<svg width="1440" height="883" viewBox="0 0 1440 883" fill="none" xmlns="http://www.w3.org/2000/svg">
<g clip-path="url(#clip0_2316_363)">
<rect width="1440" height="883" fill="#0F0F0F"/>
<rect width="129.778" height="16" transform="matrix(1 0 0 -1 912.895 158.222)" fill="#181818"/>
<rect x="1045.34" y="396.444" width="234.667" height="17.7778" fill="#181818"/>
<rect x="145" y="773" width="197.333" height="23.1111" fill="#181818"/>
<rect opacity="0.5" x="1052.45" y="125.13" width="23.1111" height="12.4444" fill="#181818"/>
<rect x="1172.45" y="373.333" width="25.7778" height="23.1111" fill="#181818"/>
<rect x="17.3398" y="425" width="25.7778" height="23.1111" fill="#111111"/>
<rect x="-165.328" y="518.222" width="365.333" height="13.3333" fill="#151515"/>
<rect x="1195.56" y="198.019" width="131.556" height="23.1111" fill="#151515"/>
<rect x="951.117" y="129.575" width="78.2222" height="12.4444" fill="#181818"/>
<rect opacity="0.5" x="72.8945" y="191.797" width="47.1111" height="16" fill="#181818"/>
<rect x="364.451" y="321.981" width="47.1111" height="16" fill="#0D0D0D"/>
<rect y="311" width="47.1111" height="16" fill="#1B2323"/>
<rect x="751.117" y="234.87" width="47.1111" height="16" fill="#0D0D0D"/>
<rect opacity="0.5" x="724.451" y="222.222" width="47.1111" height="16" fill="white" fill-opacity="0.06"/>
<rect opacity="0.5" x="991.117" y="273.981" width="47.1111" height="16" transform="rotate(-180 991.117 273.981)" fill="white" fill-opacity="0.06"/>
<rect x="-23" y="330" width="47.1111" height="16" fill="#0D0D0D"/>
<rect x="868.451" y="248.889" width="47.1111" height="16" fill="#0D0D0D"/>
<rect x="915.562" y="323.556" width="22.2222" height="6.22222" fill="#0D0D0D"/>
<path opacity="0.5" d="M1000.89 527.797H1064.01V541.13H1000.89V527.797Z" fill="white" fill-opacity="0.06"/>
<rect opacity="0.5" width="22.2222" height="13.3333" transform="matrix(-1 0 0 1 94.2285 667.353)" fill="#273636"/>
<rect opacity="0.5" width="20.4444" height="13.3333" transform="matrix(-1 0 0 1 64.0059 667.353)" fill="#273636"/>
<path opacity="0.5" d="M-26.6602 667.353H36.451V680.686H-26.6602V667.353Z" fill="#273636"/>
<rect opacity="0.5" x="1050" y="585" width="160.889" height="23.1111" fill="#151515"/>
<rect opacity="0.5" x="99" y="207" width="160.889" height="23.1111" fill="#181818"/>
<path d="M1444 742.07L1228.2 742.07" stroke="#333333"/>
<path d="M1227.7 766.172L1227.7 741.64" stroke="#333333"/>
<line x1="1318.79" y1="332.994" x2="1198.99" y2="332.994" stroke="#333333"/>
<line x1="1319.29" y1="332.494" x2="1319.29" y2="350.412" stroke="#333333"/>
<line x1="1426.7" y1="350.912" x2="1318.79" y2="350.912" stroke="#333333"/>
<line y1="-0.5" x2="11.3861" y2="-0.5" transform="matrix(0.00491463 -0.999988 0.999988 0.00496878 1199.98 344.439)" stroke="#333333"/>
<line x1="1432.15" y1="589.978" x2="1279.06" y2="589.978" stroke="#333333"/>
<line x1="1278.56" y1="628.963" x2="1278.56" y2="589.476" stroke="#333333"/>
<line y1="-0.5" x2="115.714" y2="-0.5" transform="matrix(0.999999 -0.00161298 0.0015954 0.999999 1163.35 629.149)" stroke="#333333"/>
<line y1="-0.5" x2="45.985" y2="-0.5" transform="matrix(-0.0181238 -0.999836 0.999832 -0.0183234 1165.33 674.942)" stroke="#333333"/>
<line y1="-0.5" x2="74.2539" y2="-0.5" transform="matrix(-1 -0.000185337 0.000183317 -1 1165.33 674.942)" stroke="#333333"/>
<line x1="717.264" y1="68.6553" x2="762.696" y2="68.6553" stroke="#333333"/>
<line x1="717.336" y1="-2.14971e-08" x2="717.336" y2="68.6888" stroke="#333333"/>
<line x1="762.879" y1="68.689" x2="762.879" y2="157.964" stroke="#333333"/>
<line y1="-0.5" x2="87.922" y2="-0.5" transform="matrix(-0.00125633 -0.999999 0.999999 -0.00126402 802.928 883)" stroke="#333333"/>
<line x1="757.275" y1="794.578" x2="802.818" y2="794.578" stroke="#333333"/>
<line x1="757.775" y1="705.803" x2="757.775" y2="795.078" stroke="#333333"/>
<line y1="-0.5" x2="235.212" y2="-0.5" transform="matrix(-0.999999 -0.00150453 0.00149537 -0.999999 239.211 258.849)" stroke="#333333"/>
<line x1="282.012" y1="219.902" x2="239.584" y2="219.902" stroke="#333333"/>
<line x1="239.131" y1="258.495" x2="239.131" y2="219.008" stroke="#333333"/>
</g>
<defs>
<clipPath id="clip0_2316_363">
<rect width="1440" height="883" fill="white"/>
</clipPath>
</defs>
</svg>
