<svg width="16" height="17" viewBox="0 0 16 17" fill="none" xmlns="http://www.w3.org/2000/svg">
<g id="CaretDown">
<path id="Vector" d="M13.354 6.36868L8.35403 11.3687C8.30759 11.4152 8.25245 11.452 8.19175 11.4772C8.13105 11.5024 8.06599 11.5153 8.00028 11.5153C7.93457 11.5153 7.86951 11.5024 7.80881 11.4772C7.74811 11.452 7.69296 11.4152 7.64653 11.3687L2.64653 6.36868C2.55271 6.27486 2.5 6.14761 2.5 6.01493C2.5 5.88224 2.55271 5.755 2.64653 5.66118C2.74035 5.56736 2.8676 5.51465 3.00028 5.51465C3.13296 5.51465 3.26021 5.56736 3.35403 5.66118L8.00028 10.3081L12.6465 5.66118C12.693 5.61472 12.7481 5.57787 12.8088 5.55273C12.8695 5.52759 12.9346 5.51465 13.0003 5.51465C13.066 5.51465 13.131 5.52759 13.1917 5.55273C13.2524 5.57787 13.3076 5.61472 13.354 5.66118C13.4005 5.70763 13.4373 5.76278 13.4625 5.82348C13.4876 5.88417 13.5006 5.94923 13.5006 6.01493C13.5006 6.08062 13.4876 6.14568 13.4625 6.20637C13.4373 6.26707 13.4005 6.32222 13.354 6.36868Z" fill="#F5F3EF"/>
</g>
</svg>
