<svg width="14" height="14" viewBox="0 0 14 14" fill="none" xmlns="http://www.w3.org/2000/svg">
<path d="M9.93386 7.30929L5.55886 11.6843C5.51821 11.7249 5.46995 11.7572 5.41684 11.7792C5.36374 11.8012 5.30681 11.8125 5.24933 11.8125C5.19184 11.8125 5.13492 11.8012 5.08181 11.7792C5.0287 11.7572 4.98044 11.7249 4.9398 11.6843C4.89915 11.6436 4.8669 11.5954 4.84491 11.5423C4.82291 11.4892 4.81158 11.4322 4.81158 11.3748C4.81158 11.3173 4.82291 11.2603 4.84491 11.2072C4.8669 11.1541 4.89915 11.1059 4.9398 11.0652L9.00581 6.99975L4.9398 2.93429C4.8577 2.85219 4.81158 2.74085 4.81158 2.62475C4.81158 2.50866 4.8577 2.39732 4.9398 2.31522C5.02189 2.23313 5.13323 2.18701 5.24933 2.18701C5.36542 2.18701 5.47677 2.23313 5.55886 2.31522L9.93386 6.69022C9.97454 6.73086 10.0068 6.77911 10.0288 6.83222C10.0508 6.88533 10.0622 6.94226 10.0622 6.99975C10.0622 7.05725 10.0508 7.11418 10.0288 7.16729C10.0068 7.2204 9.97454 7.26865 9.93386 7.30929Z" fill="#F5F3EF"/>
</svg>
