<svg width="14" height="14" viewBox="0 0 14 14" fill="none" xmlns="http://www.w3.org/2000/svg">
<path d="M4.06614 6.69064L8.44114 2.31564C8.48179 2.27499 8.53005 2.24275 8.58316 2.22075C8.63626 2.19875 8.69319 2.18742 8.75067 2.18742C8.80816 2.18742 8.86508 2.19875 8.91819 2.22075C8.9713 2.24275 9.01956 2.27499 9.0602 2.31564C9.10085 2.35629 9.1331 2.40454 9.15509 2.45765C9.17709 2.51076 9.18842 2.56768 9.18842 2.62517C9.18842 2.68265 9.17709 2.73958 9.15509 2.79269C9.1331 2.84579 9.10085 2.89405 9.0602 2.9347L4.99419 7.00017L9.0602 11.0656C9.1423 11.1477 9.18842 11.2591 9.18842 11.3752C9.18842 11.4913 9.1423 11.6026 9.0602 11.6847C8.97811 11.7668 8.86677 11.8129 8.75067 11.8129C8.63458 11.8129 8.52323 11.7668 8.44114 11.6847L4.06614 7.3097C4.02546 7.26907 3.99319 7.22082 3.97118 7.16771C3.94916 7.11459 3.93783 7.05766 3.93783 7.00017C3.93783 6.94267 3.94916 6.88574 3.97118 6.83263C3.99319 6.77952 4.02546 6.73127 4.06614 6.69064Z" fill="#F5F3EF"/>
</svg>
