<svg width="652" height="207" viewBox="0 0 652 207" fill="none" xmlns="http://www.w3.org/2000/svg">
    <path d="M160.992 76.2447C160.916 72.4085 161.794 68.6134 163.546 65.2C165.161 62.0861 167.639 59.5036 170.684 57.7617C173.92 55.9625 177.576 55.055 181.278 55.132C184.904 55.0711 188.478 56.0067 191.609 57.8368C194.643 59.646 197.103 62.2769 198.705 65.4254C200.452 68.8678 201.329 72.6856 201.26 76.5453V79.7009H171.736C171.771 80.8566 172.042 81.993 172.533 83.0397C173.024 84.0865 173.724 85.0215 174.591 85.7868C176.521 87.4043 178.989 88.2358 181.504 88.116C183.436 88.135 185.344 87.6838 187.063 86.8011C189.16 85.6109 191.04 84.0739 192.623 82.2555L199.302 89.0927C197.07 91.593 194.363 93.6236 191.338 95.0659C188.259 96.5096 184.895 97.2415 181.495 97.2072C177.746 97.2837 174.041 96.377 170.751 94.5775C167.68 92.8621 165.174 90.2909 163.538 87.1768C161.792 83.8019 160.916 80.044 160.992 76.2447ZM190.445 71.8869C190.359 70.8244 190.059 69.7904 189.561 68.8476C189.064 67.9047 188.38 67.0727 187.552 66.4021C185.756 65.0026 183.549 64.2363 181.272 64.2227C178.996 64.2091 176.779 64.949 174.967 66.327C173.304 67.7488 172.21 69.7231 171.886 71.8869H190.445Z" fill="white"/>
    <path d="M233.947 65.8762V81.8799C233.899 82.405 233.958 82.9345 234.119 83.4366C234.28 83.9386 234.541 84.403 234.886 84.8018C235.774 85.4872 236.888 85.8095 238.005 85.7034H247.108V96.0719H237.028C233.356 96.3076 229.724 95.1993 226.809 92.9538C225.581 91.8336 224.62 90.4523 223.996 88.9115C223.372 87.3707 223.101 85.7096 223.203 84.0504V65.8762H213.436V56.2757H223.203V46.1326H233.947V56.2757H249.575V65.8762H233.947Z" fill="white"/>
    <path d="M263.25 41.2322H273.994V59.9406H274.144C276.592 57.4136 279.813 55.7754 283.297 55.2855C286.781 54.7955 290.329 55.4819 293.379 57.2358C295.662 58.6728 297.487 60.7322 298.638 63.1714C299.945 65.9412 300.595 68.9752 300.538 72.0373V96.0803H289.772V73.4649C289.905 71.2049 289.181 68.9781 287.744 67.2287C287.038 66.4697 286.174 65.8746 285.214 65.4852C284.253 65.0958 283.219 64.9215 282.184 64.9747C281.084 64.9126 279.982 65.0774 278.948 65.4587C277.914 65.8399 276.97 66.4296 276.173 67.1911C275.419 68.0143 274.838 68.9803 274.463 70.0321C274.089 71.0839 273.93 72.2001 273.994 73.3146V96.0803H263.25V41.2322Z" fill="white"/>
    <path d="M311.561 76.2447C311.486 72.4085 312.363 68.6134 314.116 65.2C315.731 62.0861 318.209 59.5036 321.253 57.7617C324.49 55.9625 328.146 55.055 331.847 55.132C335.474 55.0711 339.047 56.0067 342.178 57.8368C345.212 59.646 347.673 62.2769 349.274 65.4254C351.019 68.8685 351.896 72.6858 351.829 76.5453V79.7009H322.305C322.34 80.8566 322.611 81.993 323.102 83.0397C323.593 84.0865 324.294 85.0215 325.16 85.7868C327.09 87.4043 329.558 88.2358 332.073 88.116C334.005 88.135 335.914 87.6838 337.633 86.8011C339.73 85.6109 341.61 84.0739 343.193 82.2555L349.871 89.0927C347.64 91.593 344.932 93.6236 341.907 95.0659C338.829 96.5096 335.465 97.2415 332.065 97.2072C328.315 97.2837 324.611 96.377 321.32 94.5775C318.249 92.8621 315.743 90.2909 314.107 87.1768C312.361 83.8019 311.486 80.044 311.561 76.2447ZM341.026 71.8869C340.937 70.8222 340.632 69.7868 340.13 68.8438C339.628 67.9009 338.938 67.0701 338.104 66.4021C336.309 65.0026 334.101 64.2363 331.825 64.2227C329.548 64.2091 327.331 64.949 325.519 66.327C323.856 67.7488 322.763 69.7231 322.439 71.8869H341.026Z" fill="white"/>
    <path d="M366.556 56.2591H376.849V59.9407H376.999C378.47 58.3548 380.265 57.1044 382.263 56.2746C384.26 55.4449 386.413 55.0552 388.574 55.1321C391.819 55.0595 394.985 56.1374 397.511 58.175C400.091 60.3229 401.931 63.2271 402.77 66.4774L392.702 69.7833C392.251 68.2755 391.296 66.9682 389.997 66.0794C388.698 65.1906 387.134 64.7742 385.565 64.8996C384.428 64.8204 383.287 64.9913 382.224 65.4002C381.16 65.8091 380.199 66.4461 379.408 67.2663C377.926 69.0964 377.181 71.4145 377.321 73.7654V96.0803H366.556V56.2591Z" fill="white"/>
    <path d="M411.937 76.2447C411.863 72.4087 412.741 68.6142 414.491 65.2C416.106 62.0861 418.585 59.5036 421.629 57.7617C424.865 55.9625 428.521 55.055 432.223 55.132C435.849 55.0711 439.423 56.0067 442.554 57.8368C445.587 59.6476 448.047 62.2781 449.65 65.4254C451.394 68.8688 452.269 72.6862 452.201 76.5453V79.7009H422.677C422.71 80.8565 422.98 81.9931 423.47 83.04C423.961 84.0869 424.661 85.0219 425.528 85.7868C427.46 87.4031 429.928 88.2344 432.444 88.116C434.377 88.134 436.285 87.6828 438.004 86.8011C440.1 85.6087 441.979 84.072 443.564 82.2555L450.243 89.0927C448.012 91.5939 445.304 93.6247 442.279 95.0659C439.201 96.5091 435.839 97.241 432.44 97.2072C428.689 97.2842 424.984 96.3776 421.692 94.5775C418.625 92.8602 416.124 90.2891 414.491 87.1768C412.744 83.8019 411.866 80.0445 411.937 76.2447ZM441.39 71.8869C441.304 70.8244 441.004 69.7904 440.506 68.8476C440.009 67.9047 439.325 67.0727 438.497 66.4021C436.702 65.0026 434.494 64.2363 432.217 64.2227C429.941 64.2091 427.724 64.949 425.912 66.327C424.252 67.7512 423.159 69.7243 422.831 71.8869H441.39Z" fill="white"/>
    <path d="M464.381 82.5561V56.259H475.121V80.0767C474.975 81.0611 475.061 82.0659 475.371 83.0114C475.681 83.957 476.207 84.8174 476.908 85.5245C477.608 86.2316 478.463 86.766 479.406 87.0854C480.348 87.4048 481.352 87.5004 482.338 87.3647C483.287 87.4097 484.235 87.2558 485.121 86.9129C486.008 86.57 486.813 86.0457 487.484 85.3736C488.138 84.6612 488.644 83.8262 488.973 82.917C489.302 82.0078 489.447 81.0424 489.4 80.0767V56.259H500.14V96.0803H489.851V92.549H489.697C488.487 94.0357 486.926 95.1977 485.155 95.93C483.25 96.7763 481.188 97.2116 479.103 97.2073C477.124 97.4158 475.124 97.1807 473.248 96.5192C471.372 95.8576 469.667 94.7863 468.257 93.383C466.847 91.9798 465.768 90.2799 465.097 88.4071C464.426 86.5342 464.182 84.5354 464.381 82.5561Z" fill="white"/>
    <path d="M511.189 56.2591H520.656V59.7152H520.811C521.611 58.4108 522.735 57.3364 524.075 56.5972C525.423 55.8655 526.936 55.4905 528.47 55.5077C530.015 55.5051 531.533 55.9145 532.867 56.6937C534.201 57.4729 535.302 58.5937 536.059 59.9406H536.209C537.083 58.5478 538.305 57.4066 539.754 56.6294C541.204 55.8521 542.83 55.4655 544.474 55.5077C545.806 55.463 547.132 55.7164 548.354 56.2494C549.576 56.7823 550.663 57.5814 551.537 58.5882C553.408 60.8376 554.373 63.7045 554.241 66.6276V96.0803H544.307V68.506C544.341 68.0296 544.278 67.5513 544.123 67.0996C543.968 66.6479 543.724 66.2319 543.405 65.8763C543.062 65.5617 542.659 65.3197 542.22 65.1647C541.781 65.0098 541.315 64.9452 540.851 64.9747C540.385 64.9551 539.921 65.0355 539.489 65.2105C539.057 65.3855 538.667 65.6509 538.346 65.989C537.691 66.7473 537.354 67.7302 537.407 68.7314V96.0803H528.028V68.506C528.081 67.5633 527.772 66.6359 527.164 65.9138C526.848 65.5916 526.466 65.3409 526.045 65.1789C525.624 65.0168 525.173 64.9472 524.722 64.9747C524.237 64.9505 523.753 65.0283 523.3 65.203C522.847 65.3777 522.435 65.6455 522.092 65.989C521.757 66.359 521.497 66.7919 521.33 67.2625C521.162 67.7332 521.089 68.2324 521.116 68.7314V96.0803H511.198L511.189 56.2591Z" fill="white"/>
    <path d="M173.013 149.614H162.494V140.013H173.013V134.136C172.938 132.579 173.213 131.025 173.818 129.588C174.423 128.152 175.341 126.869 176.507 125.833C179.244 123.672 182.68 122.591 186.161 122.795H197.732V132.32H187.439C187.002 132.291 186.565 132.349 186.152 132.493C185.739 132.636 185.359 132.861 185.034 133.155C184.745 133.468 184.522 133.835 184.379 134.236C184.235 134.637 184.174 135.063 184.2 135.488V139.996H200.128V149.597H184.208V175.368H173.013V149.614Z" fill="white"/>
    <path d="M211.182 155.478C211.108 151.678 211.986 147.92 213.737 144.546C215.372 141.434 217.861 138.852 220.912 137.104C224.169 135.355 227.809 134.44 231.506 134.44C235.203 134.44 238.842 135.355 242.1 137.104C245.15 138.852 247.639 141.434 249.275 144.546C250.956 147.945 251.83 151.686 251.83 155.478C251.83 159.27 250.956 163.011 249.275 166.41C247.639 169.52 245.15 172.099 242.1 173.844C238.843 175.595 235.203 176.511 231.506 176.511C227.808 176.511 224.169 175.595 220.912 173.844C217.862 172.099 215.373 169.52 213.737 166.41C211.988 163.036 211.11 159.278 211.182 155.478ZM241.086 155.478C241.264 152.523 240.375 149.602 238.581 147.247C237.7 146.247 236.604 145.461 235.375 144.946C234.145 144.432 232.815 144.204 231.485 144.279C230.166 144.208 228.848 144.439 227.63 144.953C226.413 145.467 225.329 146.252 224.46 147.247C222.82 149.677 221.943 152.542 221.943 155.474C221.943 158.406 222.82 161.271 224.46 163.701C225.376 164.643 226.473 165.391 227.684 165.901C228.895 166.411 230.197 166.672 231.511 166.669C232.825 166.666 234.125 166.398 235.334 165.883C236.543 165.367 237.636 164.614 238.548 163.668C240.353 161.333 241.255 158.425 241.086 155.478Z" fill="white"/>
    <path d="M263.626 161.861V135.563H274.37V159.381C274.224 160.365 274.309 161.37 274.619 162.316C274.928 163.261 275.454 164.122 276.154 164.829C276.854 165.536 277.709 166.071 278.651 166.39C279.593 166.709 280.597 166.805 281.583 166.669C282.532 166.714 283.48 166.561 284.366 166.219C285.252 165.877 286.057 165.353 286.73 164.682C287.383 163.969 287.889 163.133 288.217 162.223C288.546 161.313 288.692 160.347 288.645 159.381V135.563H299.39V175.385H289.096V171.858H288.946C287.734 173.342 286.172 174.502 284.4 175.234C282.497 176.081 280.436 176.516 278.352 176.512C276.373 176.721 274.373 176.486 272.496 175.825C270.62 175.164 268.914 174.093 267.504 172.689C266.093 171.286 265.013 169.586 264.342 167.713C263.672 165.839 263.427 163.84 263.626 161.861Z" fill="white"/>
    <path d="M313.439 135.563H324.184V139.32H324.33C325.819 137.797 327.576 136.561 329.514 135.676C331.505 134.815 333.657 134.389 335.825 134.424C338.371 134.408 340.879 135.04 343.113 136.261C345.452 137.576 347.359 139.542 348.602 141.921C350.09 144.835 350.808 148.08 350.689 151.35V175.389H339.962V152.773C340.07 150.553 339.377 148.368 338.008 146.617C337.309 145.824 336.437 145.202 335.461 144.798C334.484 144.393 333.428 144.217 332.373 144.283C331.273 144.222 330.172 144.387 329.138 144.769C328.104 145.15 327.16 145.739 326.363 146.5C325.61 147.324 325.029 148.29 324.655 149.341C324.281 150.393 324.12 151.509 324.184 152.623V175.389H313.439V135.563Z" fill="white"/>
    <path d="M360.924 155.478C360.864 151.742 361.659 148.041 363.249 144.659C364.682 141.591 366.949 138.987 369.79 137.145C372.639 135.333 375.956 134.394 379.332 134.445C383.199 134.219 387.001 135.513 389.926 138.051H390.072V120.541H400.813V175.385H390.899V171.929H390.749C389.248 173.459 387.443 174.658 385.451 175.448C383.459 176.239 381.324 176.604 379.182 176.52C375.851 176.57 372.577 175.657 369.753 173.89C366.928 172.089 364.673 169.522 363.249 166.49C361.64 163.046 360.844 159.279 360.924 155.478ZM390.072 158.029V152.849C390.075 151.36 389.658 149.9 388.87 148.637C388.047 147.315 386.897 146.228 385.531 145.481C384.073 144.674 382.431 144.259 380.764 144.279C379.494 144.226 378.229 144.475 377.074 145.004C375.918 145.534 374.904 146.33 374.115 147.326C372.512 149.74 371.66 152.574 371.667 155.471C371.674 158.369 372.539 161.199 374.152 163.605C374.922 164.597 375.915 165.392 377.05 165.928C378.185 166.463 379.43 166.723 380.685 166.686C383.17 166.771 385.589 165.871 387.414 164.181C388.269 163.404 388.948 162.453 389.406 161.392C389.865 160.331 390.092 159.184 390.072 158.029Z" fill="white"/>
    <path d="M414.416 164.72C414.33 163.083 414.629 161.448 415.288 159.947C415.947 158.446 416.947 157.12 418.21 156.075C421.995 153.55 426.346 152.002 430.874 151.567C433.061 151.332 435.2 150.769 437.219 149.897C437.709 149.683 438.129 149.334 438.428 148.89C438.727 148.447 438.894 147.928 438.91 147.393C438.914 146.811 438.761 146.24 438.467 145.738C438.173 145.236 437.749 144.823 437.24 144.542C435.867 143.773 434.304 143.409 432.732 143.49C430.692 143.448 428.705 144.142 427.134 145.444C425.545 146.763 424.468 148.597 424.092 150.628L414.099 148.374C414.576 145.713 415.743 143.225 417.484 141.157C419.273 139.025 421.536 137.341 424.092 136.24C426.814 135.046 429.759 134.444 432.732 134.474C437.216 134.248 441.611 135.784 444.979 138.752C446.514 140.219 447.717 141.997 448.509 143.966C449.301 145.936 449.663 148.052 449.57 150.173V175.418H439.97V170.956H439.82C438.621 172.748 436.941 174.165 434.973 175.046C432.77 176.051 430.37 176.552 427.948 176.512C425.536 176.556 423.146 176.041 420.965 175.009C419.002 174.085 417.337 172.629 416.161 170.806C414.999 168.99 414.393 166.875 414.416 164.72ZM439.361 160.583V156.075H439.214C438.674 156.902 437.885 157.535 436.96 157.882C435.352 158.487 433.691 158.939 431.997 159.231C429.98 159.559 428.027 160.206 426.212 161.147C425.721 161.433 425.316 161.846 425.038 162.342C424.761 162.839 424.621 163.4 424.634 163.968C424.612 164.49 424.729 165.009 424.974 165.471C425.218 165.933 425.58 166.322 426.024 166.598C427.253 167.271 428.646 167.583 430.044 167.5C431.623 167.505 433.186 167.184 434.635 166.556C435.983 166.01 437.172 165.132 438.092 164.006C438.897 163.046 439.346 161.836 439.361 160.583Z" fill="white"/>
    <path d="M484.892 145.185V161.189C484.843 161.714 484.901 162.244 485.062 162.746C485.223 163.248 485.485 163.712 485.832 164.11C486.717 164.8 487.833 165.124 488.95 165.016H498.037V175.381H487.956C484.286 175.616 480.655 174.508 477.742 172.263C476.514 171.142 475.553 169.761 474.929 168.22C474.305 166.679 474.034 165.018 474.136 163.359V145.185H464.368V135.584H474.136V125.425H484.88V135.564H500.508V145.164L484.892 145.185Z" fill="white"/>
    <path d="M552.212 165.546V175.385H513.067V165.546H527.259V145.41H513.835V135.563H538.045V165.546H552.212ZM527.042 118.738H538.087V129.327H527.042V118.738Z" fill="white"/>
    <path d="M562.506 155.478C562.433 151.679 563.31 147.921 565.057 144.546C566.694 141.434 569.184 138.852 572.236 137.104C575.494 135.355 579.133 134.44 582.83 134.44C586.527 134.44 590.167 135.355 593.424 137.104C596.474 138.853 598.962 141.435 600.599 144.546C602.277 147.946 603.15 151.687 603.15 155.478C603.15 159.27 602.277 163.01 600.599 166.41C598.962 169.519 596.473 172.098 593.424 173.844C590.167 175.595 586.528 176.511 582.83 176.511C579.133 176.511 575.493 175.595 572.236 173.844C569.185 172.099 566.694 169.52 565.057 166.41C563.311 163.035 562.435 159.277 562.506 155.478ZM592.41 155.478C592.59 152.523 591.701 149.601 589.905 147.247C589.025 146.247 587.928 145.46 586.699 144.946C585.47 144.432 584.14 144.204 582.809 144.279C581.49 144.209 580.173 144.439 578.957 144.953C577.74 145.468 576.657 146.252 575.788 147.247C574.148 149.677 573.272 152.542 573.272 155.474C573.272 158.406 574.148 161.271 575.788 163.701C576.656 164.697 577.739 165.482 578.956 165.996C580.173 166.51 581.49 166.74 582.809 166.669C584.137 166.736 585.464 166.501 586.688 165.981C587.912 165.461 589.002 164.67 589.876 163.668C591.68 161.333 592.58 158.424 592.41 155.478Z" fill="white"/>
    <path d="M614.574 135.564H625.319V139.32H625.469C626.958 137.797 628.715 136.562 630.653 135.676C632.644 134.815 634.796 134.388 636.964 134.424C639.51 134.408 642.018 135.04 644.252 136.261C646.59 137.577 648.495 139.543 649.737 141.921C651.225 144.835 651.943 148.08 651.824 151.35V175.389H641.08V152.773C641.188 150.553 640.495 148.368 639.127 146.617C638.427 145.825 637.555 145.203 636.579 144.799C635.602 144.394 634.546 144.218 633.492 144.283C632.391 144.222 631.29 144.387 630.256 144.769C629.223 145.15 628.278 145.739 627.481 146.5C626.727 147.323 626.145 148.289 625.771 149.341C625.397 150.393 625.237 151.509 625.302 152.623V175.389H614.558L614.574 135.564Z" fill="white"/>
    <path d="M0 118.036L60.7838 206.824L121.572 118.036L60.7838 156.747L0 118.036Z" fill="white"/>
    <path d="M121.572 105.526L60.7838 0L0 105.526L60.7838 144.241L121.572 105.526Z" fill="white"/>
    </svg>
    