<svg width="14" height="14" viewBox="0 0 14 14" fill="none" xmlns="http://www.w3.org/2000/svg">
<path d="M11.6849 4.50321L8.62237 1.44071C8.58171 1.4001 8.53344 1.36789 8.48033 1.34593C8.42722 1.32398 8.37031 1.3127 8.31284 1.31274H3.06284C2.83077 1.31274 2.60821 1.40493 2.44412 1.56903C2.28002 1.73312 2.18784 1.95568 2.18784 2.18774V11.8127C2.18784 12.0448 2.28002 12.2674 2.44412 12.4315C2.60821 12.5956 2.83077 12.6877 3.06284 12.6877H10.9378C11.1699 12.6877 11.3925 12.5956 11.5566 12.4315C11.7206 12.2674 11.8128 12.0448 11.8128 11.8127V4.81274C11.8129 4.75527 11.8016 4.69836 11.7796 4.64525C11.7577 4.59214 11.7255 4.54387 11.6849 4.50321ZM8.75034 2.80626L10.3193 4.37524H8.75034V2.80626ZM10.9378 11.8127H3.06284V2.18774H7.87534V4.81274C7.87534 4.92878 7.92143 5.04006 8.00348 5.1221C8.08552 5.20415 8.1968 5.25024 8.31284 5.25024H10.9378V11.8127ZM9.18784 7.43774C9.18784 7.55378 9.14174 7.66506 9.0597 7.7471C8.97765 7.82915 8.86637 7.87524 8.75034 7.87524H5.25034C5.1343 7.87524 5.02302 7.82915 4.94098 7.7471C4.85893 7.66506 4.81284 7.55378 4.81284 7.43774C4.81284 7.32171 4.85893 7.21043 4.94098 7.12838C5.02302 7.04634 5.1343 7.00024 5.25034 7.00024H8.75034C8.86637 7.00024 8.97765 7.04634 9.0597 7.12838C9.14174 7.21043 9.18784 7.32171 9.18784 7.43774ZM9.18784 9.18774C9.18784 9.30378 9.14174 9.41506 9.0597 9.4971C8.97765 9.57915 8.86637 9.62524 8.75034 9.62524H5.25034C5.1343 9.62524 5.02302 9.57915 4.94098 9.4971C4.85893 9.41506 4.81284 9.30378 4.81284 9.18774C4.81284 9.07171 4.85893 8.96043 4.94098 8.87838C5.02302 8.79634 5.1343 8.75024 5.25034 8.75024H8.75034C8.86637 8.75024 8.97765 8.79634 9.0597 8.87838C9.14174 8.96043 9.18784 9.07171 9.18784 9.18774Z" fill="black"/>
</svg>
