<svg width="49" height="19" viewBox="0 0 49 19" fill="none" xmlns="http://www.w3.org/2000/svg">
<g clip-path="url(#clip0_1204_22842)">
<path d="M48.6485 1.37681L46.4532 2.66184V0H45.7507V2.66184L43.5554 1.37681L43.2041 1.92754L45.3994 3.30435L43.2041 4.68116L43.5554 5.23188L45.7507 3.94686V6.60869H46.4532V3.94686L48.6485 5.23188L48.9998 4.68116L46.8044 3.30435L48.9998 1.92754L48.6485 1.37681Z" fill="white"/>
<path fill-rule="evenodd" clip-rule="evenodd" d="M1.66846 3.30469V19.0003H0V3.30469H1.66846ZM19.9336 3.30469L14.6648 12.9424V19.0003H12.9964V12.9424L7.72754 3.30469H9.65944L13.9623 11.5656L18.2652 3.30469H19.9336ZM29.593 11.0148L36.8816 3.30469H34.5106L27.6611 10.7395V3.30469H25.9927V19.0003H27.6611V11.2902L34.5984 19.0003H36.9694L29.593 11.0148Z" fill="white"/>
</g>
<defs>
<clipPath id="clip0_1204_22842">
<rect width="49" height="19" fill="white"/>
</clipPath>
</defs>
</svg>
