<svg xmlns="http://www.w3.org/2000/svg" width="14" height="16" viewBox="0 0 14 16" fill="none">
    <path
        d="M13.7773 14.54L8.88672 6.85403L13.7125 1.54543C13.8216 1.42241 13.8779 1.26132 13.8691 1.09709C13.8602 0.932868 13.787 0.778743 13.6653 0.668135C13.5436 0.557526 13.3832 0.499347 13.2189 0.506213C13.0546 0.513078 12.8996 0.584434 12.7875 0.70481L8.19063 5.76106L5.02735 0.789966C4.97094 0.70118 4.89304 0.628068 4.80086 0.577402C4.70867 0.526735 4.60519 0.500155 4.5 0.500122H0.750005C0.637943 0.500068 0.527928 0.530143 0.431479 0.5872C0.33503 0.644257 0.255696 0.726195 0.201784 0.824436C0.147871 0.922677 0.121363 1.03361 0.125036 1.14561C0.128709 1.25761 0.162428 1.36656 0.222661 1.46106L5.11329 9.14622L0.287505 14.4587C0.231151 14.5193 0.187372 14.5904 0.158706 14.668C0.13004 14.7455 0.117057 14.828 0.120509 14.9107C0.123962 14.9933 0.143781 15.0744 0.178819 15.1493C0.213856 15.2243 0.263415 15.2915 0.324622 15.3471C0.385829 15.4027 0.457468 15.4457 0.535387 15.4734C0.613305 15.5011 0.695953 15.5131 0.77854 15.5087C0.861127 15.5042 0.942012 15.4834 1.0165 15.4475C1.091 15.4116 1.15762 15.3612 1.2125 15.2993L5.80938 10.2431L8.97266 15.2142C9.02953 15.3022 9.10763 15.3746 9.19979 15.4246C9.29194 15.4745 9.39518 15.5005 9.50001 15.5001H13.25C13.3619 15.5001 13.4718 15.47 13.5682 15.413C13.6645 15.356 13.7437 15.2741 13.7976 15.176C13.8515 15.0779 13.8781 14.9671 13.8745 14.8552C13.8709 14.7433 13.8374 14.6345 13.7773 14.54ZM9.84297 14.2501L1.88829 1.75012H4.15391L12.1117 14.2501H9.84297Z"
        fill="#F5F3EF" />
</svg>