<svg width="1440" height="883" viewBox="0 0 1440 883" fill="none" xmlns="http://www.w3.org/2000/svg">
<g clip-path="url(#clip0_705_1191)">
<rect width="1440" height="883" fill="#FCFCFC"/>
<rect opacity="0.5" width="129.778" height="16" transform="matrix(1 0 0 -1 912.895 158.647)" fill="#EFF3FF"/>
<rect x="1045.34" y="396.444" width="234.667" height="17.7778" fill="#F3F5F5"/>
<rect x="-5" y="175" width="197.333" height="23.1111" fill="#F3F5F5"/>
<rect x="1052" y="116" width="24" height="22" fill="#FFF7F7"/>
<rect x="1172.45" y="373.333" width="25.7778" height="23.1111" fill="#F3F5F5"/>
<rect x="17.3395" y="425.425" width="25.7778" height="23.1111" fill="#F2F5FF"/>
<rect opacity="0.5" x="1195.56" y="198.019" width="131.556" height="23.1111" fill="black" fill-opacity="0.06"/>
<rect x="-165.327" y="448.425" width="365.333" height="25.7778" fill="#F2F5FF"/>
<rect x="962" y="763" width="365.333" height="25.7778" fill="#F2F5FF"/>
<rect x="-6" y="497" width="125" height="26" fill="#F4F4F4"/>
<rect x="712" y="123" width="125" height="26" fill="#F8F8F8"/>
<rect opacity="0.5" x="951.117" y="130" width="78.2222" height="12.4444" fill="#EFF3FF"/>
<rect x="200" y="681" width="47.1111" height="16" fill="#F3F5F5"/>
<rect x="364.45" y="321.981" width="47.1111" height="16" fill="white"/>
<rect opacity="0.5" x="-7" y="250" width="47.1111" height="16" fill="black" fill-opacity="0.06"/>
<rect x="751.117" y="234.87" width="47.1111" height="16" fill="white"/>
<rect opacity="0.5" x="991.117" y="273.981" width="47.1111" height="16" transform="rotate(-180 991.117 273.981)" fill="black" fill-opacity="0.06"/>
<rect x="378.673" y="327.314" width="47.1111" height="16" fill="white"/>
<rect x="868.451" y="248.889" width="47.1111" height="16" fill="white"/>
<rect x="915.562" y="323.555" width="22.2222" height="6.22222" fill="white"/>
<path d="M1000.9 528.222H1064.01V541.556H1000.9V528.222Z" fill="#EFF3FF"/>
<rect width="22.2222" height="13.3333" transform="matrix(-1 0 0 1 94.2283 667.353)" fill="#EAEFEF"/>
<rect width="20.4444" height="13.3333" transform="matrix(-1 0 0 1 64.006 667.353)" fill="#EAEFEF"/>
<path d="M-26.6606 667.353H36.4505V680.686H-26.6606V667.353Z" fill="#EAEFEF"/>
<rect x="109" y="231" width="160.889" height="23.1111" fill="#FFF7F7"/>
<rect x="94" y="234" width="160.889" height="23.1111" fill="#FFF7F7"/>
<rect x="921" y="568" width="160.889" height="23.1111" fill="#FFF7F7"/>
<rect x="120" y="231" width="160.889" height="23.1111" fill="#FFF7F7"/>
<rect x="938" y="187" width="160.889" height="23.1111" fill="#FFF7F7"/>
<rect x="1228" y="591" width="49" height="23" fill="#F8F8F8"/>
<rect x="-36" y="69" width="160.889" height="23.1111" fill="#F8F8F8"/>
<rect x="190" y="714" width="160.889" height="23.1111" fill="#F8F8F8"/>
<rect x="1016" y="714" width="117" height="23" fill="#F4F4F4"/>
<circle cx="938.673" cy="53.3335" r="16" fill="white"/>
<circle cx="938.673" cy="53.3335" r="15.5294" stroke="black" stroke-opacity="0.04" stroke-width="0.941176"/>
<path d="M1445 742.07L1229.2 742.07" stroke="#D9D9D9"/>
<path d="M1228.7 766.172L1228.7 741.64" stroke="#D9D9D9"/>
<line x1="1319.79" y1="332.994" x2="1199.99" y2="332.994" stroke="#D9D9D9"/>
<line x1="1320.29" y1="332.494" x2="1320.29" y2="350.413" stroke="#D9D9D9"/>
<line x1="1427.7" y1="350.912" x2="1319.79" y2="350.912" stroke="#D9D9D9"/>
<line y1="-0.5" x2="11.3861" y2="-0.5" transform="matrix(0.00491463 -0.999988 0.999988 0.00496878 1200.98 344.439)" stroke="#D9D9D9"/>
<line x1="1433.15" y1="589.978" x2="1280.06" y2="589.978" stroke="#D9D9D9"/>
<line x1="1279.56" y1="628.963" x2="1279.56" y2="589.476" stroke="#D9D9D9"/>
<line y1="-0.5" x2="115.714" y2="-0.5" transform="matrix(0.999999 -0.00161298 0.0015954 0.999999 1164.35 629.15)" stroke="#D9D9D9"/>
<line y1="-0.5" x2="45.985" y2="-0.5" transform="matrix(-0.0181238 -0.999836 0.999832 -0.0183234 1166.33 674.942)" stroke="#D9D9D9"/>
<line y1="-0.5" x2="74.2539" y2="-0.5" transform="matrix(-1 -0.000185337 0.000183317 -1 1166.33 674.942)" stroke="#D9D9D9"/>
<line x1="718.264" y1="68.6555" x2="763.696" y2="68.6555" stroke="#D9D9D9"/>
<line x1="718.337" y1="-2.14971e-08" x2="718.337" y2="68.6888" stroke="#D9D9D9"/>
<line x1="763.879" y1="68.689" x2="763.879" y2="157.964" stroke="#D9D9D9"/>
<line y1="-0.5" x2="87.922" y2="-0.5" transform="matrix(-0.00125633 -0.999999 0.999999 -0.00126402 803.928 883)" stroke="#D9D9D9"/>
<line x1="758.275" y1="794.578" x2="803.817" y2="794.578" stroke="#D9D9D9"/>
<line x1="758.775" y1="705.803" x2="758.775" y2="795.078" stroke="#D9D9D9"/>
<line y1="-0.5" x2="235.212" y2="-0.5" transform="matrix(-0.999999 -0.00150453 0.00149537 -0.999999 240.212 258.849)" stroke="#D9D9D9"/>
<line x1="283.011" y1="219.903" x2="240.584" y2="219.903" stroke="#D9D9D9"/>
<line x1="240.131" y1="258.495" x2="240.131" y2="219.008" stroke="#D9D9D9"/>
</g>
<defs>
<clipPath id="clip0_705_1191">
<rect width="1440" height="883" fill="white"/>
</clipPath>
</defs>
</svg>
