<svg width="1440" height="883" viewBox="0 0 1440 883" fill="none" xmlns="http://www.w3.org/2000/svg">
<g clip-path="url(#clip0_705_873)">
<rect width="1440" height="883" fill="#FCFCFC"/>
<g clip-path="url(#clip1_705_873)">
<rect width="1436.51" height="883" transform="translate(2.99316)" fill="#FCFCFC"/>
<rect opacity="0.5" x="161" y="115" width="222" height="26" fill="#E5EAFA"/>
<rect opacity="0.5" width="146" height="18" transform="matrix(1 0 0 -1 1030 178)" fill="#EAEFEF"/>
<rect opacity="0.5" x="1179" y="446" width="264" height="20" fill="#E5EAFA"/>
<rect opacity="0.5" x="1274" y="465.772" width="222" height="26" fill="#E5EAFA"/>
<rect opacity="0.5" x="1187" y="140.772" width="26" height="14" fill="#D8E3FF"/>
<rect opacity="0.5" x="1322" y="420" width="29" height="26" fill="#E5EAFA"/>
<rect opacity="0.5" x="22.5" y="478.125" width="29" height="26" fill="#D8E3E3"/>
<rect opacity="0.5" x="-183" y="583" width="411" height="15" fill="#ECECEC"/>
<rect opacity="0.5" x="168.75" y="626.625" width="99" height="14.625" fill="#FEF1F1"/>
<rect opacity="0.5" x="1348" y="222.771" width="148" height="26" fill="#FFE5E5"/>
<rect opacity="0.5" x="-197" y="504" width="411" height="29" fill="#D8E3E3"/>
<rect opacity="0.5" x="1073" y="145.772" width="88" height="14" fill="#F8F8F8"/>
<rect opacity="0.5" x="84.9999" y="215.771" width="53" height="18" fill="black" fill-opacity="0.06"/>
<rect x="413" y="362.228" width="53" height="18" fill="white"/>
<rect x="383" y="348" width="53" height="18" fill="#F0F3FB"/>
<rect x="848" y="264.229" width="53" height="18" fill="white"/>
<rect opacity="0.5" x="818" y="250" width="53" height="18" fill="#EAEFEF"/>
<rect opacity="0.5" x="1118" y="308.229" width="53" height="18" transform="rotate(-180 1118 308.229)" fill="black" fill-opacity="0.06"/>
<rect x="429" y="368.229" width="53" height="18" fill="white"/>
<rect x="980" y="280" width="53" height="18" fill="white"/>
<rect x="1033" y="364" width="25" height="7" fill="white"/>
<path opacity="0.5" d="M1129 593.771H1200V608.771H1129V593.771Z" fill="black" fill-opacity="0.06"/>
<rect opacity="0.5" width="25" height="15" transform="matrix(-1 0 0 1 109 750.772)" fill="#FFE5E5"/>
<rect opacity="0.5" width="23" height="15" transform="matrix(-1 0 0 1 75 750.772)" fill="#FFE5E5"/>
<path opacity="0.5" d="M-27.0001 750.772H43.9999V765.772H-27.0001V750.772Z" fill="#FFE5E5"/>
<rect opacity="0.5" x="1089" y="766" width="181" height="26" fill="#D9D9D9" fill-opacity="0.2"/>
</g>
<path d="M1443 742.07L1227.2 742.07" stroke="#D9D9D9"/>
<path d="M1226.7 766.172L1226.7 741.64" stroke="#D9D9D9"/>
<line x1="1317.79" y1="332.994" x2="1197.99" y2="332.994" stroke="#D9D9D9"/>
<line x1="1318.29" y1="332.494" x2="1318.29" y2="350.413" stroke="#D9D9D9"/>
<line x1="1425.7" y1="350.912" x2="1317.79" y2="350.912" stroke="#D9D9D9"/>
<line y1="-0.5" x2="11.3861" y2="-0.5" transform="matrix(0.00491463 -0.999988 0.999988 0.00496878 1198.98 344.439)" stroke="#D9D9D9"/>
<line x1="1431.15" y1="589.978" x2="1278.06" y2="589.978" stroke="#D9D9D9"/>
<line x1="1277.56" y1="628.963" x2="1277.56" y2="589.476" stroke="#D9D9D9"/>
<line y1="-0.5" x2="115.714" y2="-0.5" transform="matrix(0.999999 -0.00161298 0.0015954 0.999999 1162.35 629.15)" stroke="#D9D9D9"/>
<line y1="-0.5" x2="45.985" y2="-0.5" transform="matrix(-0.0181238 -0.999836 0.999832 -0.0183234 1164.33 674.942)" stroke="#D9D9D9"/>
<line y1="-0.5" x2="74.2539" y2="-0.5" transform="matrix(-1 -0.000185337 0.000183317 -1 1164.33 674.942)" stroke="#D9D9D9"/>
<line x1="716.264" y1="68.6555" x2="761.696" y2="68.6555" stroke="#D9D9D9"/>
<line x1="716.337" y1="-2.14971e-08" x2="716.337" y2="68.6888" stroke="#D9D9D9"/>
<line x1="761.879" y1="68.6888" x2="761.879" y2="157.964" stroke="#D9D9D9"/>
<line y1="-0.5" x2="87.922" y2="-0.5" transform="matrix(-0.00125633 -0.999999 0.999999 -0.00126402 801.928 883)" stroke="#D9D9D9"/>
<line x1="756.275" y1="794.578" x2="801.817" y2="794.578" stroke="#D9D9D9"/>
<line x1="756.775" y1="705.803" x2="756.775" y2="795.078" stroke="#D9D9D9"/>
<line y1="-0.5" x2="235.212" y2="-0.5" transform="matrix(-0.999999 -0.00150453 0.00149537 -0.999999 238.212 258.849)" stroke="#D9D9D9"/>
<line x1="281.011" y1="219.903" x2="238.584" y2="219.903" stroke="#D9D9D9"/>
<line x1="238.131" y1="258.495" x2="238.131" y2="219.008" stroke="#D9D9D9"/>
</g>
<defs>
<clipPath id="clip0_705_873">
<rect width="1440" height="883" fill="white"/>
</clipPath>
<clipPath id="clip1_705_873">
<rect width="1436.51" height="883" fill="white" transform="translate(2.99316)"/>
</clipPath>
</defs>
</svg>
