<svg width="1440" height="883" viewBox="0 0 1440 883" fill="none" xmlns="http://www.w3.org/2000/svg">
<g clip-path="url(#clip0_705_1192)">
<rect width="1440" height="883" fill="#FCFCFC"/>
<rect width="129.778" height="16" transform="matrix(1 0 0 -1 912.895 158.222)" fill="#F3F5F5"/>
<rect x="1045.34" y="396.444" width="234.667" height="17.7778" fill="#F3F5F5"/>
<rect x="1129.78" y="414.019" width="197.333" height="23.1111" fill="#F3F5F5"/>
<rect opacity="0.5" x="1052.45" y="125.13" width="23.1111" height="12.4444" fill="#F3F5F5"/>
<rect x="1172.45" y="373.333" width="25.7778" height="23.1111" fill="#F3F5F5"/>
<rect x="17.3395" y="425" width="25.7778" height="23.1111" fill="#FFF7F7"/>
<rect x="-165.327" y="518.222" width="365.333" height="13.3333" fill="#EFF3FF"/>
<rect x="1195.56" y="198.019" width="131.556" height="23.1111" fill="#EFF3FF"/>
<rect x="-165.327" y="448" width="365.333" height="25.7778" fill="#FFF7F7"/>
<rect x="951.117" y="129.575" width="78.2222" height="12.4444" fill="#F3F5F5"/>
<rect opacity="0.5" x="72.8949" y="191.797" width="47.1111" height="16" fill="#F4F4F4"/>
<rect x="364.45" y="321.981" width="47.1111" height="16" fill="white"/>
<rect x="337.784" y="309.333" width="47.1111" height="16" fill="#EAEFEF"/>
<rect x="751.117" y="234.87" width="47.1111" height="16" fill="white"/>
<rect opacity="0.5" x="724.451" y="222.222" width="47.1111" height="16" fill="black" fill-opacity="0.06"/>
<rect opacity="0.5" x="991.117" y="273.981" width="47.1111" height="16" transform="rotate(-180 991.117 273.981)" fill="black" fill-opacity="0.06"/>
<rect x="378.673" y="327.314" width="47.1111" height="16" fill="white"/>
<rect x="868.451" y="248.889" width="47.1111" height="16" fill="white"/>
<rect x="915.562" y="323.555" width="22.2222" height="6.22222" fill="white"/>
<path opacity="0.5" d="M1000.9 527.797H1064.01V541.13H1000.9V527.797Z" fill="black" fill-opacity="0.06"/>
<rect opacity="0.5" width="22.2222" height="13.3333" transform="matrix(-1 0 0 1 94.2283 667.352)" fill="#D8E3E3"/>
<rect opacity="0.5" width="20.4444" height="13.3333" transform="matrix(-1 0 0 1 64.006 667.352)" fill="#D8E3E3"/>
<path opacity="0.5" d="M-26.6606 667.352H36.4505V680.686H-26.6606V667.352Z" fill="#D8E3E3"/>
<rect opacity="0.5" x="1050" y="585" width="160.889" height="23.1111" fill="#EFF3FF"/>
<rect opacity="0.5" x="99" y="207" width="160.889" height="23.1111" fill="#F4F4F4"/>
<path d="M1440 737.07L1224.2 737.07" stroke="#D9D9D9"/>
<path d="M1223.7 761.172L1223.7 736.64" stroke="#D9D9D9"/>
<line x1="1314.79" y1="327.994" x2="1194.99" y2="327.994" stroke="#D9D9D9"/>
<line x1="1315.29" y1="327.494" x2="1315.29" y2="345.413" stroke="#D9D9D9"/>
<line x1="1422.7" y1="345.912" x2="1314.79" y2="345.912" stroke="#D9D9D9"/>
<line y1="-0.5" x2="11.3861" y2="-0.5" transform="matrix(0.00491463 -0.999988 0.999988 0.00496878 1195.98 339.439)" stroke="#D9D9D9"/>
<line x1="1428.15" y1="584.978" x2="1275.06" y2="584.978" stroke="#D9D9D9"/>
<line x1="1274.56" y1="623.963" x2="1274.56" y2="584.476" stroke="#D9D9D9"/>
<line y1="-0.5" x2="115.714" y2="-0.5" transform="matrix(0.999999 -0.00161298 0.0015954 0.999999 1159.35 624.15)" stroke="#D9D9D9"/>
<line y1="-0.5" x2="45.985" y2="-0.5" transform="matrix(-0.0181238 -0.999836 0.999832 -0.0183234 1161.33 669.942)" stroke="#D9D9D9"/>
<line y1="-0.5" x2="74.2539" y2="-0.5" transform="matrix(-1 -0.000185337 0.000183317 -1 1161.33 669.942)" stroke="#D9D9D9"/>
<line x1="713.264" y1="63.6555" x2="758.696" y2="63.6555" stroke="#D9D9D9"/>
<line x1="713.337" y1="-5" x2="713.337" y2="63.6888" stroke="#D9D9D9"/>
<line x1="758.879" y1="63.6888" x2="758.879" y2="152.964" stroke="#D9D9D9"/>
<line y1="-0.5" x2="87.922" y2="-0.5" transform="matrix(-0.00125633 -0.999999 0.999999 -0.00126402 798.928 878)" stroke="#D9D9D9"/>
<line x1="753.275" y1="789.578" x2="798.817" y2="789.578" stroke="#D9D9D9"/>
<line x1="753.775" y1="700.803" x2="753.775" y2="790.078" stroke="#D9D9D9"/>
<line y1="-0.5" x2="235.212" y2="-0.5" transform="matrix(-0.999999 -0.00150453 0.00149537 -0.999999 235.212 253.849)" stroke="#D9D9D9"/>
<line x1="278.011" y1="214.903" x2="235.584" y2="214.903" stroke="#D9D9D9"/>
<line x1="235.131" y1="253.495" x2="235.131" y2="214.008" stroke="#D9D9D9"/>
</g>
<defs>
<clipPath id="clip0_705_1192">
<rect width="1440" height="883" fill="white"/>
</clipPath>
</defs>
</svg>
