<svg width="1441" height="883" viewBox="0 0 1441 883" fill="none" xmlns="http://www.w3.org/2000/svg">
<g clip-path="url(#clip0_705_1193)">
<rect width="1440" height="883" transform="translate(0.660522)" fill="#FCFCFC"/>
<rect opacity="0.5" x="-55" y="720" width="86" height="17" fill="#FFE5E5"/>
<rect opacity="0.5" x="114" y="775" width="197" height="10" fill="#D8E3E3"/>
<rect opacity="0.5" width="129.778" height="16" transform="matrix(1 0 0 -1 1186 222)" fill="#EAEFEF"/>
<rect opacity="0.5" x="1046" y="396.87" width="234.667" height="17.7778" fill="#FFE5E5"/>
<rect opacity="0.5" x="1130.44" y="414.444" width="197.333" height="23.1111" fill="#FFE5E5"/>
<rect opacity="0.5" x="1053.11" y="125.556" width="23.1111" height="12.4444" fill="#D8E3FF"/>
<rect opacity="0.5" x="965" y="38" width="81" height="20" fill="#D8E3E3"/>
<rect opacity="0.5" x="352" y="107" width="25.7778" height="23.1111" fill="#D8E3E3"/>
<rect opacity="0.5" x="-22" y="578" width="104" height="23" fill="#F0F3FB"/>
<rect opacity="0.5" x="-164.667" y="518.222" width="365.333" height="13.3333" fill="#D8E3E3"/>
<rect opacity="0.5" x="148" y="557" width="88" height="13" fill="#FEF1F1"/>
<rect opacity="0.5" x="843" y="147" width="131.556" height="23.1111" fill="#EAEFFD"/>
<rect opacity="0.5" x="31" y="38" width="131.556" height="23.1111" fill="#FFE5E5"/>
<rect opacity="0.5" x="951.778" y="129.575" width="78.2222" height="12.4444" fill="#F8F8F8"/>
<rect opacity="0.5" x="73.5554" y="191.797" width="47.1111" height="16" fill="black" fill-opacity="0.06"/>
<rect x="365.111" y="321.981" width="47.1111" height="16" fill="white"/>
<rect x="338.444" y="309.333" width="47.1111" height="16" fill="#F0F3FB"/>
<rect x="71" y="258" width="47.1111" height="16" fill="#F0F3FB"/>
<rect x="968" y="570" width="47.1111" height="16" fill="#F0F3FB"/>
<rect x="751.778" y="234.87" width="47.1111" height="16" fill="white"/>
<rect opacity="0.5" x="725.111" y="222.222" width="47.1111" height="16" fill="#EAEFEF"/>
<rect opacity="0.5" x="991.778" y="273.981" width="47.1111" height="16" transform="rotate(-180 991.778 273.981)" fill="black" fill-opacity="0.06"/>
<rect opacity="0.5" x="188.111" y="101" width="47.1111" height="16" transform="rotate(-180 188.111 101)" fill="black" fill-opacity="0.06"/>
<rect opacity="0.5" x="412" y="77" width="88" height="16" transform="rotate(-180 412 77)" fill="black" fill-opacity="0.06"/>
<rect opacity="0.5" x="456" y="101" width="44" height="16" transform="rotate(-180 456 101)" fill="black" fill-opacity="0.06"/>
<rect opacity="0.5" x="991.778" y="273.981" width="47.1111" height="16" transform="rotate(-180 991.778 273.981)" fill="black" fill-opacity="0.06"/>
<rect opacity="0.5" x="991.778" y="273.981" width="47.1111" height="16" transform="rotate(-180 991.778 273.981)" fill="black" fill-opacity="0.06"/>
<rect x="379.333" y="327.314" width="47.1111" height="16" fill="white"/>
<rect x="869.111" y="248.889" width="47.1111" height="16" fill="white"/>
<rect x="916.222" y="323.555" width="22.2222" height="6.22222" fill="white"/>
<path opacity="0.5" d="M1001.56 527.797H1064.67V541.13H1001.56V527.797Z" fill="black" fill-opacity="0.06"/>
<rect opacity="0.5" width="22.2222" height="13.3333" transform="matrix(-1 0 0 1 117.889 442)" fill="#FFE5E5"/>
<rect opacity="0.5" width="20.4444" height="13.3333" transform="matrix(-1 0 0 1 87.6666 442)" fill="#FFE5E5"/>
<path opacity="0.5" d="M-3 442H60.1111V455.333H-3V442Z" fill="#FFE5E5"/>
<rect opacity="0.5" x="966" y="680.889" width="160.889" height="23.1111" fill="#D9D9D9" fill-opacity="0.2"/>
<rect opacity="0.5" y="647" width="88" height="10" fill="#F5F5F5"/>
<path d="M1445 738.07L1229.2 738.07" stroke="#D9D9D9"/>
<path d="M1228.7 762.172L1228.7 737.64" stroke="#D9D9D9"/>
<line x1="1319.79" y1="328.994" x2="1199.99" y2="328.994" stroke="#D9D9D9"/>
<line x1="1320.29" y1="328.494" x2="1320.29" y2="346.413" stroke="#D9D9D9"/>
<line x1="1427.7" y1="346.912" x2="1319.79" y2="346.912" stroke="#D9D9D9"/>
<line y1="-0.5" x2="11.3861" y2="-0.5" transform="matrix(0.00491463 -0.999988 0.999988 0.00496878 1200.98 340.439)" stroke="#D9D9D9"/>
<line x1="1433.15" y1="585.978" x2="1280.06" y2="585.978" stroke="#D9D9D9"/>
<line x1="1279.56" y1="624.963" x2="1279.56" y2="585.476" stroke="#D9D9D9"/>
<line y1="-0.5" x2="115.714" y2="-0.5" transform="matrix(0.999999 -0.00161298 0.0015954 0.999999 1164.35 625.15)" stroke="#D9D9D9"/>
<line y1="-0.5" x2="45.985" y2="-0.5" transform="matrix(-0.0181238 -0.999836 0.999832 -0.0183234 1166.33 670.942)" stroke="#D9D9D9"/>
<line y1="-0.5" x2="74.2539" y2="-0.5" transform="matrix(-1 -0.000185337 0.000183317 -1 1166.33 670.942)" stroke="#D9D9D9"/>
<line x1="718.264" y1="64.6555" x2="763.696" y2="64.6555" stroke="#D9D9D9"/>
<line x1="718.337" y1="-4" x2="718.337" y2="64.6888" stroke="#D9D9D9"/>
<line x1="763.879" y1="64.689" x2="763.879" y2="153.964" stroke="#D9D9D9"/>
<line y1="-0.5" x2="87.922" y2="-0.5" transform="matrix(-0.00125633 -0.999999 0.999999 -0.00126402 803.928 879)" stroke="#D9D9D9"/>
<line x1="758.275" y1="790.578" x2="803.817" y2="790.578" stroke="#D9D9D9"/>
<line x1="758.775" y1="701.803" x2="758.775" y2="791.078" stroke="#D9D9D9"/>
<line y1="-0.5" x2="235.212" y2="-0.5" transform="matrix(-0.999999 -0.00150453 0.00149537 -0.999999 240.212 254.849)" stroke="#D9D9D9"/>
<line x1="283.011" y1="215.903" x2="240.584" y2="215.903" stroke="#D9D9D9"/>
<line x1="240.131" y1="254.495" x2="240.131" y2="215.008" stroke="#D9D9D9"/>
</g>
<defs>
<clipPath id="clip0_705_1193">
<rect width="1440" height="883" fill="white" transform="translate(0.660522)"/>
</clipPath>
</defs>
</svg>
