<svg width="3683" height="1932" viewBox="0 0 3683 1932" fill="none" xmlns="http://www.w3.org/2000/svg">
  <rect width="3673" height="1931" transform="translate(8)" fill="#F6F5F5"/>
  <line y1="333.255" x2="584.186" y2="333.255" stroke="#D9D9D9" stroke-width="2.55723" class="animate-line"/>
  <line x1="585.466" y1="233.098" x2="585.466" y2="334.533" stroke="#D9D9D9" stroke-width="2.55723" class="animate-line"/>
  <line x1="849.492" y1="234.376" x2="584.185" y2="234.376" stroke="#D9D9D9" stroke-width="2.55723" class="animate-line"/>
  <line x1="3403.68" y1="96.222" x2="3094.25" y2="96.222" stroke="#D9D9D9" stroke-width="2.55723" class="animate-line"/>
  <line x1="3404.95" y1="94.9434" x2="3404.95" y2="140.974" stroke="#D9D9D9" stroke-width="2.55723" class="animate-line"/>
  <line x1="3682.41" y1="142.251" x2="3403.68" y2="142.251" stroke="#D9D9D9" stroke-width="2.55723" class="animate-line"/>
  <line x1="3095.53" y1="125.625" x2="3095.67" y2="96.3762" stroke="#D9D9D9" stroke-width="2.55723" class="animate-line"/>
  <line x1="3681.14" y1="408.583" x2="3285.73" y2="408.583" stroke="#D9D9D9" stroke-width="2.55723" class="animate-line"/>
  <line x1="3284.45" y1="508.734" x2="3284.45" y2="407.299" stroke="#D9D9D9" stroke-width="2.55723" class="animate-line"/>
  <line x1="2986.84" y1="507.936" x2="3285.72" y2="507.457" stroke="#D9D9D9" stroke-width="2.55723" class="animate-line"/>
  <path d="M1766.59 348.109L1766.59 177.971" stroke="#D9D9D9" stroke-width="2.55723" class="animate-line"/>
  <line x1="1650.52" y1="176.694" x2="1767.86" y2="176.694" stroke="#D9D9D9" stroke-width="2.55723" class="animate-line"/>
  <line x1="1650.69" y1="0.326172" x2="1650.69" y2="176.775" stroke="#D9D9D9" stroke-width="2.55723" class="animate-line"/>
  <line x1="437.499" y1="1931.04" x2="437.499" y2="1551.76" stroke="#D9D9D9" stroke-width="2.55723" class="animate-line"/>
  <line x1="321.43" y1="1550.48" x2="438.777" y2="1550.48" stroke="#D9D9D9" stroke-width="2.55723" class="animate-line"/>
  <line x1="322.708" y1="1322.42" x2="322.708" y2="1551.76" stroke="#D9D9D9" stroke-width="2.55723" class="animate-line"/>
  <line x1="2990.68" y1="626.871" x2="2988.53" y2="508.764" stroke="#D9D9D9" stroke-width="2.55723" class="animate-line"/>
  <line x1="584.187" y1="865.04" x2="0.00146471" y2="865.04" stroke="#D9D9D9" stroke-width="2.55723" class="animate-line"/>
  <line x1="1191.33" y1="763.605" x2="607.144" y2="763.605" stroke="#D9D9D9" stroke-width="2.55723" class="animate-line"/>
  <line x1="605.866" y1="863.762" x2="605.866" y2="762.327" stroke="#D9D9D9" stroke-width="2.55723" class="animate-line"/>
  <line x1="341.838" y1="862.483" x2="607.145" y2="862.483" stroke="#D9D9D9" stroke-width="2.55723" class="animate-line"/>
  <line x1="2991.96" y1="628.126" x2="2800.17" y2="628.091" stroke="#D9D9D9" stroke-width="2.55723" class="animate-line"/>
  <path d="M3682.41 1566.09L3125.01 1566.09" stroke="#D9D9D9" stroke-width="2.55723" class="animate-line"/>
  <path d="M3123.73 1628L3123.73 1564.99" stroke="#D9D9D9" stroke-width="2.55723" class="animate-line"/>
  <style>
    .animate-line {
      animation: lineColorChange 5s infinite;
    }
    @keyframes lineColorChange {
      0% { stroke: #D9D9D9; }
      25% { stroke: #E7E6E6; }
      50% { stroke: #D2CCCC; }
      75% { stroke: #FFBB6B; }
      100% { stroke: #D9D9D9; }
    }
  </style>
</svg> 

