<svg width="3727" height="1747" viewBox="0 0 3727 1747" fill="none" xmlns="http://www.w3.org/2000/svg">
<path fill-rule="evenodd" clip-rule="evenodd" d="M0 0V84H101V168H0V1747H3727V252H3658V202H3682V145H3658V85.0005H3682V1.00049H3361V85.0005H3557V169H3461V252H3361V168H3260V0H2769V168H2472V84H2674V0H2371V84H2278V0H1885V84H1785V0H1583V84H1488V168H1193V84H1485V0H992V84H891V0H496V84H403V0H0ZM891 84V168H793V84H891ZM3159 84H3066V168H3159V84ZM302 84H202V168H302V84ZM692 252H303V168H597V84H692V252ZM1092 252H992V168H1092V252ZM1785 168V252H1583V168H1785ZM1981 252H1886V84H1981V252ZM2371 252H2278V168H2371V252ZM2867 252H2774V168H2867V252ZM2082 168H2177V84H2082V168ZM2870 168H2965V84H2870V168Z" fill="black"/>
</svg>
