<svg width="25" height="24" viewBox="0 0 25 24" fill="none" xmlns="http://www.w3.org/2000/svg">
<path fill-rule="evenodd" clip-rule="evenodd" d="M1.27893 8.9532C-0.426308 10.6362 -0.42631 13.3648 1.27893 15.0477L9.06514 22.7322C10.7704 24.4152 13.5351 24.4152 15.2403 22.7322L23.0276 15.0467C24.7328 13.3638 24.7328 10.6352 23.0276 8.95221L15.2414 1.26771C13.5361 -0.415245 10.7714 -0.415247 9.06615 1.26771L1.27893 8.9532ZM6.10235 9.72751C5.79549 10.5295 5.64207 11.3875 5.64207 12.3017H6.83539C6.83539 11.5502 6.95756 10.8464 7.2019 10.1902C7.44625 9.53403 7.79288 8.95638 8.2418 8.45724C8.69071 7.95811 9.22487 7.56834 9.84426 7.28793C10.4693 7.00752 11.1626 6.86731 11.924 6.86731C12.6855 6.86731 13.3986 7.00752 14.0635 7.28793C14.7283 7.57395 15.3108 7.96652 15.8109 8.46566C16.3166 8.96479 16.7115 9.54244 16.9956 10.1986C17.2798 10.8548 17.4218 11.5558 17.4218 12.3017C17.4218 13.0476 17.2798 13.7458 16.9956 14.3964C16.7115 15.0525 16.3166 15.6302 15.8109 16.1293C15.3108 16.6284 14.7283 17.0182 14.0635 17.2986C13.3986 17.5847 12.6855 17.7277 11.924 17.7277C11.5149 17.7277 11.0972 17.6772 10.6711 17.5762C10.2506 17.4753 9.8954 17.3183 9.60559 17.1051C9.32147 16.892 9.17941 16.6172 9.17941 16.2807C9.17941 16.0171 9.27033 15.7788 9.45216 15.5657C9.634 15.3526 9.8613 15.246 10.1341 15.246H14.9926L15.1375 14.2954H14.1658C14.5124 14.0711 14.788 13.7598 14.9926 13.3616C15.2028 12.9635 15.308 12.5232 15.308 12.0409C15.308 11.4296 15.1545 10.8688 14.8477 10.3584C14.5465 9.8537 14.1402 9.4499 13.6288 9.14706C13.1174 8.84982 12.5491 8.7012 11.924 8.7012C11.299 8.7012 10.7279 8.84982 10.2108 9.14706C9.69935 9.4499 9.29021 9.8537 8.98336 10.3584C8.68219 10.8688 8.5316 11.4296 8.5316 12.0409C8.5316 12.5344 8.63673 12.9691 8.84698 13.3448C9.06291 13.7206 9.34988 14.0234 9.70788 14.2534C9.38398 14.2814 9.09133 14.3992 8.82993 14.6067C8.56854 14.8142 8.36113 15.0722 8.2077 15.3806C8.05996 15.6947 7.98609 16.0143 7.98609 16.3396C7.98609 16.749 8.09974 17.1108 8.32703 17.4248C8.56002 17.7445 8.86687 18.0137 9.24759 18.2324C9.634 18.4511 10.0602 18.6166 10.5262 18.7287C10.9921 18.8465 11.4581 18.9054 11.924 18.9054C12.8446 18.9054 13.7083 18.7343 14.5152 18.3922C15.3222 18.0557 16.0325 17.5847 16.6462 16.979C17.2599 16.3789 17.7401 15.6778 18.0867 14.8759C18.439 14.0795 18.6152 13.2214 18.6152 12.3017C18.6152 11.3875 18.4418 10.5295 18.0952 9.72751C17.7486 8.93114 17.2684 8.23011 16.6547 7.62442C16.041 7.01873 15.3278 6.54484 14.5152 6.20273C13.7083 5.86063 12.8446 5.68958 11.924 5.68958C11.0035 5.68958 10.1596 5.86063 9.3925 6.20273C8.62537 6.54484 7.96052 7.01873 7.39795 7.62442C6.84107 8.23011 6.4092 8.93114 6.10235 9.72751ZM9.8613 13.2607C9.61696 12.941 9.49478 12.5597 9.49478 12.1166C9.49478 11.6848 9.60275 11.2866 9.81868 10.9221C10.0346 10.5575 10.3244 10.2659 10.6881 10.0472C11.0575 9.82846 11.4694 9.7191 11.924 9.7191C12.373 9.7191 12.7793 9.82565 13.1429 10.0388C13.5123 10.2575 13.8049 10.5463 14.0209 10.9052C14.2368 11.2698 14.3448 11.6736 14.3448 12.1166C14.3448 12.5877 14.234 12.9831 14.0124 13.3028C13.7964 13.6224 13.5123 13.8608 13.16 14.0178C12.8077 14.1805 12.4298 14.2618 12.0263 14.2618C11.6058 14.2618 11.1995 14.1748 10.8074 14.001C10.421 13.8271 10.1056 13.5804 9.8613 13.2607Z" fill="#F5F3EF"/>
</svg>
