<svg width="1461" height="679" viewBox="0 0 1461 679" fill="none" xmlns="http://www.w3.org/2000/svg">
<rect x="266.201" y="97.5164" width="114.084" height="17.8226" fill="black"/>
<rect x="956.412" y="98.7898" width="114.084" height="19.0957" fill="#D9D9D9"/>
<rect x="494.37" y="94.9707" width="116.936" height="19.0957" fill="black"/>
<rect x="494.37" y="114.066" width="116.936" height="19.0957" fill="#D9D9D9"/>
<path d="M0.261765 82.2618H1460.51V678.738H0.261765V82.2618Z" fill="black" stroke="black" stroke-width="0.523529"/>
<rect y="59" width="40" height="196" fill="black"/>
<rect width="39.9625" height="29.67" fill="black"/>
<rect x="39.9624" y="29.6699" width="39.9625" height="29.67" fill="black"/>
<rect x="80" y="59" width="40" height="91" fill="black"/>
<rect x="80" width="79" height="30" fill="black"/>
<rect x="119.492" y="29.6699" width="39.9625" height="29.67" fill="black"/>
<rect x="119" width="42" height="59" fill="black"/>
<rect x="119" y="32" width="116" height="29" fill="black"/>
<rect x="200" y="30" width="36" height="31" fill="black"/>
<rect x="200" width="36" height="61" fill="black"/>
<rect x="235.027" width="39.9625" height="29.67" fill="black"/>
<rect x="273.802" y="59.3401" width="39.9625" height="29.67" fill="black"/>
<rect x="274" y="30" width="40" height="95" fill="black"/>
<rect x="274" y="59" width="119" height="74" fill="black"/>
<rect x="312.578" width="39.9625" height="29.67" fill="black"/>
<rect x="352.54" y="59.3401" width="39.9625" height="29.67" fill="black"/>
<rect x="353" y="30" width="119" height="29" fill="black"/>
<rect x="392.503" y="29.6699" width="39.9625" height="29.67" fill="black"/>
<rect x="392.503" width="39.9625" height="29.67" fill="black"/>
<rect x="432" y="59" width="40" height="80" fill="black"/>
<rect x="432.07" y="29.6699" width="39.9625" height="29.67" fill="black"/>
<rect x="393" width="79" height="59" fill="black"/>
<rect x="509" y="59" width="117" height="80" fill="black"/>
<rect x="589" y="30" width="38" height="131" fill="black"/>
<rect x="509" width="80" height="30" fill="black"/>
<rect x="547.604" y="59.3401" width="39.9625" height="29.67" fill="black"/>
<rect x="549" width="40" height="30" fill="black"/>
<rect x="586.38" y="59.3401" width="39.9625" height="29.67" fill="black"/>
<rect x="627" width="79" height="30" fill="black"/>
<rect x="666" width="40" height="59" fill="black"/>
<rect x="666.305" width="39.9625" height="29.67" fill="black"/>
<rect x="706" y="30" width="40" height="114" fill="black"/>
<rect x="666" y="30" width="80" height="29" fill="black"/>
<rect x="746" width="78" height="30" fill="black"/>
<rect x="784" y="59" width="117" height="69" fill="black"/>
<rect x="783.818" width="39.9625" height="29.67" fill="black"/>
<rect x="822.594" y="59.3401" width="39.9625" height="29.67" fill="black"/>
<rect x="861.369" y="59.3401" width="39.9625" height="29.67" fill="black"/>
<rect x="861.369" y="29.6699" width="39.9625" height="29.67" fill="black"/>
<rect x="861" width="40" height="153" fill="black"/>
<rect x="938.129" y="59.3401" width="39.9625" height="29.67" fill="black"/>
<rect x="938" y="30" width="40" height="128" fill="black"/>
<rect x="938" y="59" width="160" height="94" fill="black"/>
<rect x="978.091" width="39.9625" height="29.67" fill="black"/>
<rect x="1018.05" y="59.3401" width="39.9625" height="29.67" fill="black"/>
<rect x="978" width="80" height="30" fill="black"/>
<rect x="1057.62" y="59.3401" width="39.9625" height="29.67" fill="black"/>
<rect x="1096" width="40" height="59" fill="black"/>
<rect x="1096" width="40" height="59" fill="black"/>
<rect x="1134" y="59" width="112" height="99" fill="black"/>
<rect x="1096" width="78" height="30" fill="black"/>
<rect x="1173.16" y="59.3401" width="39.9625" height="29.67" fill="black"/>
<rect x="1173" y="30" width="40" height="115" fill="black"/>
<rect x="1212" y="59" width="34" height="30" fill="black"/>
<rect x="1212" width="77" height="30" fill="black"/>
<rect x="1246" width="43" height="59" fill="black"/>
<rect x="1246" width="43.367" height="29.67" fill="black"/>
<rect x="1333" width="128" height="30" fill="black"/>
<rect x="1376" y="59" width="85" height="99" fill="black"/>
<rect x="1289" y="59" width="44" height="86" fill="black"/>
<rect x="1373.52" width="43.367" height="29.67" fill="black"/>
<path d="M1417.03 59H1460.98V89H1417.03V59Z" fill="black"/>
<path d="M1417.03 30H1461V59H1417.03V30Z" fill="black"/>
<path d="M1417 0H1460.74L1461 145H1417V0Z" fill="black"/>
</svg>
