<svg width="1461" height="679" viewBox="0 0 1461 679" fill="none" xmlns="http://www.w3.org/2000/svg">
<rect x="266.201" y="97.5164" width="114.084" height="17.8226" fill="black"/>
<rect x="956.412" y="98.7898" width="114.084" height="19.0957" fill="#D9D9D9"/>
<rect x="494.37" y="94.9707" width="116.936" height="19.0957" fill="black"/>
<rect x="494.37" y="114.066" width="116.936" height="19.0957" fill="#D9D9D9"/>
<path d="M0.261765 82.2618H1460.51V678.738H0.261765V82.2618Z" fill="black" stroke="black" stroke-width="0.523529"/>
<rect y="59.3401" width="39.9625" height="29.67" fill="black"/>
<rect width="39.9625" height="29.67" fill="black"/>
<rect x="39.9624" y="59.3401" width="39.9625" height="29.67" fill="black"/>
<rect x="40" width="40" height="82" fill="black"/>
<rect x="39.9624" width="39.9625" height="29.67" fill="black"/>
<rect x="79.925" y="59.3401" width="39.9625" height="29.67" fill="black"/>
<rect width="159" height="30" fill="black"/>
<rect x="119.492" width="39.9625" height="29.67" fill="black"/>
<rect x="157" y="30" width="79" height="29" fill="black"/>
<rect x="196.251" y="29.6699" width="39.9625" height="29.67" fill="black"/>
<rect x="196" width="40" height="59" fill="black"/>
<rect x="273.802" y="59.3401" width="39.9625" height="29.67" fill="black"/>
<rect x="273.802" y="29.6699" width="39.9625" height="29.67" fill="black"/>
<rect x="274" width="40" height="82" fill="black"/>
<rect x="274" width="79" height="30" fill="black"/>
<rect x="352.54" y="59.3401" width="39.9625" height="29.67" fill="black"/>
<rect x="353" y="30" width="40" height="85" fill="black"/>
<rect x="353" y="30" width="119" height="29" fill="black"/>
<rect x="393" width="39" height="59" fill="black"/>
<rect x="432.07" y="59.3401" width="39.9625" height="29.67" fill="black"/>
<rect x="432.07" y="29.6699" width="39.9625" height="29.67" fill="black"/>
<rect x="432" width="40" height="98" fill="black"/>
<rect x="432" y="59" width="80" height="56" fill="black"/>
<rect x="589" y="30" width="40" height="85" fill="black"/>
<rect x="508.829" width="39.9625" height="29.67" fill="black"/>
<rect x="547.604" y="59.3401" width="39.9625" height="29.67" fill="black"/>
<rect x="509" width="79" height="30" fill="black"/>
<rect x="548" y="59" width="78" height="39" fill="black"/>
<rect x="589" y="30" width="157" height="29" fill="black"/>
<rect x="626" width="40" height="59" fill="black"/>
<rect x="666.305" y="29.6699" width="39.9625" height="29.67" fill="black"/>
<rect x="706.267" y="59.3401" width="39.9625" height="29.67" fill="black"/>
<rect x="706" y="30" width="40" height="103" fill="black"/>
<rect x="746" width="154" height="30" fill="black"/>
<rect x="783.818" y="59.3401" width="39.9625" height="29.67" fill="black"/>
<rect x="783.818" y="29.6699" width="39.9625" height="29.67" fill="black"/>
<rect x="784" width="40" height="105" fill="black"/>
<rect x="822.594" y="59.3401" width="39.9625" height="29.67" fill="black"/>
<rect x="822.594" width="39.9625" height="29.67" fill="black"/>
<rect x="784" y="59" width="117" height="30" fill="black"/>
<rect x="861.369" width="39.9625" height="29.67" fill="black"/>
<rect x="900" y="30" width="77" height="29" fill="black"/>
<rect x="938.129" y="59.3401" width="39.9625" height="29.67" fill="black"/>
<rect x="938.129" y="29.6699" width="39.9625" height="29.67" fill="black"/>
<rect x="938" width="40" height="89" fill="black"/>
<rect x="938" y="59" width="160" height="30" fill="black"/>
<rect x="938" width="120" height="30" fill="black"/>
<rect x="1018.05" y="59.3401" width="39.9625" height="29.67" fill="black"/>
<rect x="1018.05" width="39.9625" height="29.67" fill="black"/>
<rect x="1057.62" y="59.3401" width="39.9625" height="29.67" fill="black"/>
<rect x="1096" width="40" height="59" fill="black"/>
<rect x="1095.6" width="39.9625" height="29.67" fill="black"/>
<rect x="1134" y="59" width="200" height="75" fill="black"/>
<rect x="1096" width="78" height="30" fill="black"/>
<rect x="1173.16" y="59.3401" width="39.9625" height="29.67" fill="black"/>
<rect x="1173" y="30" width="40" height="78" fill="black"/>
<rect x="1211.93" y="59.3401" width="39.9625" height="29.67" fill="black"/>
<rect x="1212" width="79" height="30" fill="black"/>
<rect x="1248" y="59.3399" width="42.921" height="29.67" fill="black"/>
<rect x="1248" width="43" height="89" fill="black"/>
<rect x="1248" width="42.921" height="29.67" fill="black"/>
<rect x="1334" width="127" height="30" fill="black"/>
<rect x="1376" y="59" width="43" height="111" fill="black"/>
<rect x="1290.92" y="59.3398" width="42.921" height="29.67" fill="black"/>
<rect x="1374.21" width="42.921" height="29.67" fill="black"/>
<path d="M1417.27 59H1460.77V89H1417.27V59Z" fill="black"/>
<path d="M1417.27 30H1460.79V59H1417.27V30Z" fill="black"/>
<path d="M1417 0H1460.74L1461 134H1417V0Z" fill="black"/>
</svg>
