<svg width="1461" height="679" viewBox="0 0 1461 679" fill="none" xmlns="http://www.w3.org/2000/svg">
<rect x="266.201" y="97.5164" width="114.084" height="17.8226" fill="black"/>
<rect x="956.412" y="98.7898" width="114.084" height="19.0957" fill="#D9D9D9"/>
<rect x="494.37" y="94.9707" width="116.936" height="19.0957" fill="black"/>
<rect x="494.37" y="114.066" width="116.936" height="19.0957" fill="#D9D9D9"/>
<path d="M0.261765 82.2618H1460.51V678.738H0.261765V82.2618Z" fill="black" stroke="black" stroke-width="0.523529"/>
<rect y="59.3401" width="39.9625" height="29.67" fill="black"/>
<rect width="39.9625" height="29.67" fill="black"/>
<rect x="39.9624" y="59.3401" width="39.9625" height="29.67" fill="black"/>
<rect x="40" width="40" height="177" fill="black"/>
<rect width="159" height="30" fill="black"/>
<rect x="79.925" y="59.3401" width="39.9625" height="29.67" fill="black"/>
<rect x="79.925" width="39.9625" height="29.67" fill="black"/>
<rect x="119.492" y="29.6699" width="39.9625" height="29.67" fill="black"/>
<rect x="119" width="40" height="59" fill="black"/>
<rect x="119" y="30" width="116" height="29" fill="black"/>
<rect x="196.251" y="29.6699" width="39.9625" height="29.67" fill="black"/>
<rect x="196" width="40" height="59" fill="black"/>
<rect x="235.027" width="39.9625" height="29.67" fill="black"/>
<rect x="273.802" y="59.3401" width="39.9625" height="29.67" fill="black"/>
<rect x="274" y="30" width="40" height="147" fill="black"/>
<rect x="275" y="59" width="118" height="133" fill="black"/>
<rect x="312.578" width="39.9625" height="29.67" fill="black"/>
<rect x="352.54" y="59.3401" width="39.9625" height="29.67" fill="black"/>
<rect x="353" y="30" width="40" height="176" fill="black"/>
<rect x="392" y="29" width="78" height="30" fill="black"/>
<rect x="392" width="41" height="30" fill="black"/>
<rect x="432" y="30" width="40" height="134" fill="black"/>
<rect x="432.07" y="29.6699" width="39.9625" height="29.67" fill="black"/>
<rect x="433" y="59" width="77" height="113" fill="black"/>
<rect x="470.054" width="39.9625" height="29.67" fill="black"/>
<rect x="588.754" y="29.6699" width="39.9625" height="29.67" fill="black"/>
<rect x="508.829" width="39.9625" height="29.67" fill="black"/>
<rect x="553" y="59" width="35" height="170" fill="black"/>
<rect x="547.604" width="39.9625" height="29.67" fill="black"/>
<rect x="626" width="80" height="30" fill="black"/>
<rect x="666" width="40" height="59" fill="black"/>
<rect x="666.305" width="39.9625" height="29.67" fill="black"/>
<rect x="706" y="59" width="40" height="124" fill="black"/>
<rect x="745.834" width="39.9625" height="29.67" fill="black"/>
<rect x="783.818" y="59.3401" width="39.9625" height="29.67" fill="black"/>
<rect x="784" y="30" width="40" height="153" fill="black"/>
<rect x="823" width="77" height="30" fill="black"/>
<rect x="861" y="59" width="40" height="132" fill="black"/>
<rect x="861.369" width="39.9625" height="29.67" fill="black"/>
<rect x="900.145" y="29.6699" width="39.9625" height="29.67" fill="black"/>
<rect x="938.129" y="59.3401" width="39.9625" height="29.67" fill="black"/>
<rect x="938" width="120" height="30" fill="black"/>
<rect x="978.091" width="39.9625" height="29.67" fill="black"/>
<rect x="1018" y="59" width="78" height="76" fill="black"/>
<rect x="1018.05" width="39.9625" height="29.67" fill="black"/>
<rect x="1057.62" y="59.3401" width="39.9625" height="29.67" fill="black"/>
<rect x="1096" width="40" height="59" fill="black"/>
<rect x="1096" width="40" height="59" fill="black"/>
<rect x="1134" y="59" width="40" height="86" fill="black"/>
<rect x="1096" width="78" height="30" fill="black"/>
<rect x="1173.16" y="29.6699" width="39.9625" height="29.67" fill="black"/>
<rect x="1212" width="79" height="30" fill="black"/>
<rect x="1248" width="43" height="59" fill="black"/>
<rect x="1248" width="42.921" height="29.67" fill="black"/>
<rect x="1334" width="127" height="30" fill="black"/>
<rect x="1376" y="59" width="43" height="76" fill="black"/>
<rect x="1290.92" y="59.3398" width="42.921" height="29.67" fill="black"/>
<rect x="1340" width="121" height="30" fill="black"/>
<path d="M1417 0H1461V59H1417V0Z" fill="black"/>
<path d="M1417.27 0H1460.52L1460.78 30H1417.27V0Z" fill="black"/>
</svg>
