<svg width="1461" height="679" viewBox="0 0 1461 679" fill="none" xmlns="http://www.w3.org/2000/svg">
<rect x="266.201" y="97.5164" width="114.084" height="17.8226" fill="black"/>
<rect x="956.412" y="98.7898" width="114.084" height="19.0957" fill="#D9D9D9"/>
<rect x="494.37" y="94.9707" width="116.936" height="19.0957" fill="black"/>
<rect x="494.37" y="114.066" width="116.936" height="19.0957" fill="#D9D9D9"/>
<path d="M0.261765 82.2618H1460.51V678.738H0.261765V82.2618Z" fill="black" stroke="black" stroke-width="0.523529"/>
<rect y="59.3401" width="39.9625" height="29.67" fill="black"/>
<rect width="159" height="30" fill="black"/>
<rect x="39.9624" y="59.3401" width="39.9625" height="29.67" fill="black"/>
<rect x="39.9624" y="29.6699" width="39.9625" height="29.67" fill="black"/>
<rect x="40" width="40" height="114" fill="black"/>
<rect y="59" width="120" height="30" fill="black"/>
<rect x="79.925" width="39.9625" height="29.67" fill="black"/>
<rect x="119" y="30" width="116" height="29" fill="black"/>
<rect x="119.492" width="39.9625" height="29.67" fill="black"/>
<rect x="157.476" y="29.6699" width="39.9625" height="29.67" fill="black"/>
<rect x="196.251" y="29.6699" width="39.9625" height="29.67" fill="black"/>
<rect x="196" width="157" height="30" fill="black"/>
<rect x="235.027" width="39.9625" height="29.67" fill="black"/>
<rect x="273.802" y="59.3401" width="39.9625" height="29.67" fill="black"/>
<rect x="273.802" y="29.6699" width="39.9625" height="29.67" fill="black"/>
<rect x="274" width="40" height="141" fill="black"/>
<rect x="275" y="59" width="118" height="30" fill="black"/>
<rect x="312.578" width="39.9625" height="29.67" fill="black"/>
<rect x="352.54" y="59.3401" width="39.9625" height="29.67" fill="black"/>
<rect x="353" y="30" width="40" height="120" fill="black"/>
<rect x="392.503" y="29.6699" width="39.9625" height="29.67" fill="black"/>
<rect x="393" width="39" height="59" fill="black"/>
<rect x="432.07" y="59.3401" width="39.9625" height="29.67" fill="black"/>
<rect x="432.07" y="29.6699" width="39.9625" height="29.67" fill="black"/>
<rect x="432" width="40" height="133" fill="black"/>
<rect x="432" y="59" width="194" height="30" fill="black"/>
<rect x="470.054" width="39.9625" height="29.67" fill="black"/>
<rect x="508.829" y="59.3401" width="39.9625" height="29.67" fill="black"/>
<rect x="589" y="30" width="40" height="136" fill="black"/>
<rect x="508.829" width="39.9625" height="29.67" fill="black"/>
<rect x="547.604" y="59.3401" width="39.9625" height="29.67" fill="black"/>
<rect x="393" width="195" height="30" fill="black"/>
<rect x="586.38" y="59.3401" width="39.9625" height="29.67" fill="black"/>
<rect x="626.343" y="29.6699" width="39.9625" height="29.67" fill="black"/>
<rect x="626" width="80" height="59" fill="black"/>
<rect x="666.305" y="29.6699" width="39.9625" height="29.67" fill="black"/>
<rect x="666.305" width="39.9625" height="29.67" fill="black"/>
<rect x="706.267" y="59.3401" width="39.9625" height="29.67" fill="black"/>
<rect x="706" y="30" width="40" height="123" fill="black"/>
<rect x="746" width="154" height="30" fill="black"/>
<rect x="783.818" y="59.3401" width="39.9625" height="29.67" fill="black"/>
<rect x="784" width="40" height="144" fill="black"/>
<rect x="783.818" width="39.9625" height="29.67" fill="black"/>
<rect x="785" y="59" width="113" height="30" fill="black"/>
<rect x="822.594" width="39.9625" height="29.67" fill="black"/>
<rect x="861.369" y="59.3401" width="39.9625" height="29.67" fill="black"/>
<rect x="861" width="40" height="144" fill="black"/>
<rect x="861.369" width="39.9625" height="29.67" fill="black"/>
<rect x="900.145" y="29.6699" width="39.9625" height="29.67" fill="black"/>
<rect x="938.129" y="59.3401" width="39.9625" height="29.67" fill="black"/>
<rect x="938" width="40" height="133" fill="black"/>
<rect x="938" width="120" height="30" fill="black"/>
<rect x="938" y="59" width="162" height="30" fill="black"/>
<rect x="978.091" width="39.9625" height="29.67" fill="black"/>
<rect x="1018.05" y="59.3401" width="39.9625" height="29.67" fill="black"/>
<rect x="1018.05" width="39.9625" height="29.67" fill="black"/>
<rect x="1057.62" y="59.3401" width="39.9625" height="29.67" fill="black"/>
<rect x="1096" width="40" height="59" fill="black"/>
<rect x="1096" width="40" height="59" fill="black"/>
<rect x="1134.38" y="59.3401" width="39.9625" height="29.67" fill="black"/>
<rect x="1096" width="117" height="30" fill="black"/>
<rect x="1173.16" y="59.3401" width="39.9625" height="29.67" fill="black"/>
<rect x="1173.16" y="29.6699" width="39.9625" height="29.67" fill="black"/>
<rect x="1173" width="40" height="125" fill="black"/>
<rect x="1134" y="59" width="204" height="30" fill="black"/>
<rect x="1252" y="59.3399" width="42.1141" height="29.67" fill="black"/>
<rect x="1252" y="29.6699" width="42.1141" height="29.67" fill="black"/>
<rect x="1252" width="42" height="125" fill="black"/>
<rect x="1336.23" width="42.1141" height="29.67" fill="black"/>
<rect x="1378" y="59" width="83" height="109" fill="black"/>
<rect x="1294.11" y="59.3398" width="42.1141" height="29.67" fill="black"/>
<rect x="1338" width="123" height="30" fill="black"/>
<path d="M1418.09 59H1460.77V89H1418.09V59Z" fill="black"/>
<path d="M1418.09 30H1460.79V59H1418.09V30Z" fill="black"/>
<path d="M1418 0H1460.74L1461 183H1418V0Z" fill="black"/>
</svg>
