<svg width="3727" height="1747" viewBox="0 0 3727 1747" fill="none" xmlns="http://www.w3.org/2000/svg">
<rect width="101" height="84" fill="black"/>
<rect y="168" width="101" height="84" fill="black"/>
<rect x="3063" width="101" height="84" fill="black"/>
<rect x="3063" y="168" width="101" height="84" fill="black"/>
<rect x="2965" width="101" height="84" fill="black"/>
<rect x="2965" y="84" width="101" height="84" fill="black"/>
<rect x="2965" y="168" width="101" height="84" fill="black"/>
<rect x="2867" width="101" height="84" fill="black"/>
<rect x="2867" y="168" width="101" height="84" fill="black"/>
<rect x="2769" width="101" height="84" fill="black"/>
<rect x="2769" y="84" width="101" height="84" fill="black"/>
<rect x="2673" y="168" width="101" height="84" fill="black"/>
<rect x="2573" width="101" height="84" fill="black"/>
<rect x="2573" y="168" width="101" height="84" fill="black"/>
<rect x="2472" width="101" height="84" fill="black"/>
<rect x="2472" y="168" width="101" height="84" fill="black"/>
<rect x="2371" width="101" height="84" fill="black"/>
<rect x="2371" y="84" width="101" height="84" fill="black"/>
<rect x="2371" y="168" width="101" height="84" fill="black"/>
<rect x="2275" y="84" width="101" height="84" fill="black"/>
<rect x="2177" width="101" height="84" fill="black"/>
<rect x="2177" y="84" width="101" height="84" fill="black"/>
<rect x="2079" width="101" height="84" fill="black"/>
<rect x="2079" y="168" width="101" height="84" fill="black"/>
<rect x="1981" width="101" height="84" fill="black"/>
<rect x="1981" y="84" width="101" height="84" fill="black"/>
<rect x="1981" y="168" width="101" height="84" fill="black"/>
<rect x="1885" width="101" height="84" fill="black"/>
<rect x="1785" y="84" width="101" height="84" fill="black"/>
<rect x="1684" y="84" width="101" height="84" fill="black"/>
<rect x="1583" y="84" width="101" height="84" fill="black"/>
<rect x="202" width="101" height="84" fill="black"/>
<rect x="1482" y="168" width="101" height="84" fill="black"/>
<rect x="1384" width="101" height="84" fill="black"/>
<rect x="692" y="168" width="101" height="84" fill="black"/>
<rect x="1384" y="168" width="101" height="84" fill="black"/>
<rect x="1488" y="84" width="101" height="84" fill="black"/>
<rect x="302" y="84" width="101" height="84" fill="black"/>
<rect x="1286" y="168" width="101" height="84" fill="black"/>
<rect x="101" y="168" width="101" height="84" fill="black"/>
<rect x="790" y="168" width="101" height="84" fill="black"/>
<rect x="891" y="84" width="101" height="84" fill="black"/>
<rect x="692" y="84" width="101" height="84" fill="black"/>
<rect x="891" y="168" width="101" height="84" fill="black"/>
<rect x="1583" width="101" height="84" fill="black"/>
<rect x="1286" width="101" height="84" fill="black"/>
<rect x="594" width="101" height="84" fill="black"/>
<rect x="692" width="101" height="84" fill="black"/>
<rect x="1785" y="168" width="101" height="84" fill="black"/>
<rect x="496" width="101" height="84" fill="black"/>
<rect x="1684" width="101" height="84" fill="black"/>
<rect x="496" y="84" width="101" height="84" fill="black"/>
<rect x="790" width="101" height="84" fill="black"/>
<rect x="101" width="101" height="84" fill="black"/>
<rect x="2177" y="168" width="101" height="84" fill="black"/>
<rect x="398" y="84" width="101" height="84" fill="black"/>
<rect x="1092" y="84" width="101" height="84" fill="black"/>
<rect x="101" y="84" width="101" height="84" fill="black"/>
<rect x="1092" y="168" width="101" height="84" fill="black"/>
<rect x="992" y="84" width="101" height="84" fill="black"/>
<rect x="1188" y="168" width="101" height="84" fill="black"/>
<rect x="202" y="168" width="101" height="84" fill="black"/>
<rect x="1092" width="101" height="84" fill="black"/>
<rect x="1188" width="101" height="84" fill="black"/>
<rect x="0.671121" y="252.671" width="3725.66" height="1493.66" fill="black" stroke="black" stroke-width="1.34224"/>
<rect x="302" width="101" height="84" fill="black"/>
<rect x="992" width="101" height="84" fill="black"/>
<rect x="3649" y="145" width="33" height="57" fill="black"/>
<rect x="3557" y="85.0005" width="101" height="84" fill="black"/>
<rect x="3658" y="1.00049" width="24" height="84" fill="black"/>
<rect x="3557" y="1.00049" width="101" height="84" fill="black"/>
<rect x="3260" y="169" width="101" height="84" fill="black"/>
<rect x="3456" y="1.00049" width="101" height="84" fill="black"/>
<rect x="3557" y="169" width="101" height="84" fill="black"/>
<rect x="3159" y="169" width="101" height="84" fill="black"/>
<rect x="3461" y="169" width="101" height="84" fill="black"/>
<rect x="3159" y="1.00049" width="101" height="84" fill="black"/>
<rect x="3361" y="1.00049" width="101" height="84" fill="black"/>
<rect x="3159" y="85.0005" width="101" height="84" fill="black"/>
<rect x="2417.21" y="279.688" width="288.333" height="54.0625" fill="#D9D9D9"/>
<rect x="1249.46" y="322.938" width="295.542" height="54.0625" fill="#D9D9D9"/>
<rect x="1249.46" y="268.875" width="295.542" height="54.0625" fill="black"/>
<rect x="672.789" y="276.082" width="288.333" height="50.4583" fill="black"/>
</svg>
