<svg width="1277" height="785" viewBox="0 0 1277 785" fill="none" xmlns="http://www.w3.org/2000/svg">
<g clip-path="url(#clip0_561_2700)">
<rect width="1276.9" height="784.889" fill="#F9F9F9"/>
<rect width="129.778" height="16" transform="matrix(1 0 0 -1 912.895 158.647)" fill="#DDE5FF"/>
<rect x="1045.34" y="396.444" width="234.667" height="17.7778" fill="#E9F2F2"/>
<rect x="-5" y="175" width="197.333" height="23.1111" fill="#E9F2F2"/>
<rect x="1097" y="46" width="197.333" height="23.1111" fill="#E9F2F2"/>
<rect x="1052" y="116" width="24" height="22" fill="#FFE7E7"/>
<rect x="1172.45" y="373.333" width="25.7778" height="23.1111" fill="#E9F2F2"/>
<rect x="17.3395" y="425.425" width="25.7778" height="23.1111" fill="#DDE5FF"/>
<rect opacity="0.5" x="1195.56" y="198.019" width="131.556" height="23.1111" fill="black" fill-opacity="0.06"/>
<rect x="-165.327" y="448.425" width="365.333" height="25.7778" fill="#DDE5FF"/>
<rect x="962" y="763" width="365.333" height="25.7778" fill="#DDE5FF"/>
<rect x="-6" y="497" width="125" height="26" fill="#F4F4F4"/>
<rect x="712" y="123" width="125" height="26" fill="#F4F4F4"/>
<rect x="951.117" y="130" width="78.2222" height="12.4444" fill="#DDE5FF"/>
<rect x="200" y="681" width="47.1111" height="16" fill="#F3F5F5"/>
<rect x="364.45" y="321.981" width="47.1111" height="16" fill="white"/>
<rect opacity="0.5" x="-7" y="250" width="47.1111" height="16" fill="black" fill-opacity="0.06"/>
<rect x="751.117" y="234.87" width="47.1111" height="16" fill="white"/>
<rect opacity="0.5" x="991.117" y="273.981" width="47.1111" height="16" transform="rotate(-180 991.117 273.981)" fill="black" fill-opacity="0.06"/>
<rect x="378.673" y="327.314" width="47.1111" height="16" fill="white"/>
<rect x="868.451" y="248.889" width="47.1111" height="16" fill="white"/>
<rect x="915.562" y="323.555" width="22.2222" height="6.22222" fill="white"/>
<path d="M1000.9 528.222H1064.01V541.556H1000.9V528.222Z" fill="#DDE5FF"/>
<rect width="22.2222" height="13.3333" transform="matrix(-1 0 0 1 94.2283 667.353)" fill="#E9F2F2"/>
<rect width="20.4444" height="13.3333" transform="matrix(-1 0 0 1 64.006 667.353)" fill="#E9F2F2"/>
<path d="M-26.6606 667.353H36.4505V680.686H-26.6606V667.353Z" fill="#E9F2F2"/>
<rect x="921" y="568" width="160.889" height="23.1111" fill="#FFE7E7"/>
<rect x="120" y="266" width="160.889" height="23.1111" fill="#FFE7E7"/>
<rect x="938" y="187" width="160.889" height="23.1111" fill="#FFE7E7"/>
<rect x="1228" y="591" width="49" height="23" fill="#E7E7E7"/>
<rect x="-36" y="69" width="160.889" height="23.1111" fill="#E7E7E7"/>
<rect x="190" y="714" width="160.889" height="23.1111" fill="#F4F4F4"/>
<rect x="1016" y="714" width="117" height="23" fill="#F4F4F4"/>
</g>
<defs>
<clipPath id="clip0_561_2700">
<rect width="1276.9" height="784.889" fill="white"/>
</clipPath>
</defs>
</svg>
