<svg width="1278" height="785" viewBox="0 0 1278 785" fill="none" xmlns="http://www.w3.org/2000/svg">
<g clip-path="url(#clip0_561_2439)">
<rect width="1276.9" height="784.889" transform="translate(0.660522)" fill="#F9F9F9"/>
<rect x="-55" y="720" width="86" height="17" fill="#FFE7E7"/>
<rect opacity="0.5" x="114" y="775" width="197" height="10" fill="#D8E3E3"/>
<rect opacity="0.5" width="129.778" height="16" transform="matrix(1 0 0 -1 1186 222)" fill="#E9F2F2"/>
<rect x="1046" y="396.87" width="234.667" height="17.7778" fill="#FFE7E7"/>
<rect x="1130.44" y="414.444" width="197.333" height="23.1111" fill="#FFE7E7"/>
<rect x="1053.11" y="125.556" width="23.1111" height="12.4444" fill="#DDE5FF"/>
<rect x="965" y="38" width="81" height="20" fill="#E9F2F2"/>
<rect opacity="0.5" x="352" y="107" width="25.7778" height="23.1111" fill="#D8E3E3"/>
<rect x="-22" y="578" width="104" height="23" fill="#DDE5FF"/>
<rect x="-164.667" y="518.222" width="365.333" height="13.3333" fill="#E9F2F2"/>
<rect x="148" y="557" width="88" height="13" fill="#FFE7E7"/>
<rect x="843" y="147" width="131.556" height="23.1111" fill="#DDE5FF"/>
<rect x="31" y="38" width="131.556" height="23.1111" fill="#FFE7E7"/>
<rect opacity="0.5" x="951.778" y="129.575" width="78.2222" height="12.4444" fill="#E7E7E7"/>
<rect opacity="0.5" x="73.5554" y="191.797" width="47.1111" height="16" fill="black" fill-opacity="0.06"/>
<rect x="365.111" y="321.981" width="47.1111" height="16" fill="white"/>
<rect x="338.444" y="309.333" width="47.1111" height="16" fill="#DDE5FF"/>
<rect x="71" y="258" width="47.1111" height="16" fill="#DDE5FF"/>
<rect x="968" y="570" width="47.1111" height="16" fill="#DDE5FF"/>
<rect x="751.778" y="234.87" width="47.1111" height="16" fill="white"/>
<rect opacity="0.5" x="725.111" y="222.222" width="47.1111" height="16" fill="#E9F2F2"/>
<rect opacity="0.5" x="991.778" y="273.981" width="47.1111" height="16" transform="rotate(-180 991.778 273.981)" fill="black" fill-opacity="0.06"/>
<rect opacity="0.5" x="188.111" y="101" width="47.1111" height="16" transform="rotate(-180 188.111 101)" fill="black" fill-opacity="0.06"/>
<rect opacity="0.5" x="412" y="77" width="88" height="16" transform="rotate(-180 412 77)" fill="black" fill-opacity="0.06"/>
<rect opacity="0.5" x="456" y="101" width="44" height="16" transform="rotate(-180 456 101)" fill="black" fill-opacity="0.06"/>
<rect opacity="0.5" x="991.778" y="273.981" width="47.1111" height="16" transform="rotate(-180 991.778 273.981)" fill="black" fill-opacity="0.06"/>
<rect x="991.778" y="273.981" width="47.1111" height="16" transform="rotate(-180 991.778 273.981)" fill="#F4F4F4"/>
<rect x="379.333" y="327.314" width="47.1111" height="16" fill="white"/>
<rect x="869.111" y="248.889" width="47.1111" height="16" fill="white"/>
<rect x="916.222" y="323.555" width="22.2222" height="6.22222" fill="white"/>
<path opacity="0.5" d="M1001.56 527.797H1064.67V541.13H1001.56V527.797Z" fill="black" fill-opacity="0.06"/>
<rect width="22.2222" height="13.3333" transform="matrix(-1 0 0 1 117.889 442)" fill="#FFE7E7"/>
<rect width="20.4444" height="13.3333" transform="matrix(-1 0 0 1 87.6666 442)" fill="#FFE7E7"/>
<path d="M-3 442H60.1111V455.333H-3V442Z" fill="#FFE7E7"/>
<rect opacity="0.5" x="966" y="680.889" width="160.889" height="23.1111" fill="#E7E7E7"/>
<rect opacity="0.5" x="-3" y="656" width="88" height="10" fill="#E7E7E7"/>
</g>
<defs>
<clipPath id="clip0_561_2439">
<rect width="1276.9" height="784.889" fill="white" transform="translate(0.660522)"/>
</clipPath>
</defs>
</svg>
