<svg width="1278" height="785" viewBox="0 0 1278 785" fill="none" xmlns="http://www.w3.org/2000/svg">
<g clip-path="url(#clip0_561_2731)">
<rect width="1276.9" height="784.889" transform="translate(0.660522)" fill="#F9F9F9"/>
<rect x="-55" y="720" width="86" height="17" fill="#FFE7E7"/>
<rect opacity="0.5" x="199" y="775" width="197" height="10" fill="#D8E3E3"/>
<rect opacity="0.5" width="129.778" height="16" transform="matrix(1 0 0 -1 1186 222)" fill="#E9F2F2"/>
<rect x="1111" y="744" width="234.667" height="17.7778" fill="#FFE7E7"/>
<rect opacity="0.5" x="522" y="764" width="234.667" height="17.7778" fill="#FFE7E7"/>
<rect x="1195.44" y="761.575" width="197.333" height="23.1111" fill="#FFE7E7"/>
<rect opacity="0.5" x="1053.11" y="125.556" width="23.1111" height="12.4444" fill="#DDE5FF"/>
<rect x="1145" y="81" width="81" height="20" fill="#E9F2F2"/>
<rect x="352" y="107" width="25.7778" height="23.1111" fill="#E9F2F2"/>
<rect opacity="0.5" x="-22" y="578" width="104" height="23" fill="#DDE5FF"/>
<rect x="148" y="557" width="88" height="13" fill="#FFE7E7"/>
<rect opacity="0.5" x="1" y="472" width="147" height="19" fill="#F4F4F4"/>
<rect opacity="0.5" x="659" y="50" width="131.556" height="23.1111" fill="#DDE5FF"/>
<rect opacity="0.5" x="492" y="706" width="131.556" height="23.1111" fill="#DDE5FF"/>
<rect x="31" y="38" width="131.556" height="23.1111" fill="#FFE7E7"/>
<rect opacity="0.5" x="951.778" y="129.575" width="78.2222" height="12.4444" fill="#E7E7E7"/>
<rect x="73.5554" y="191.797" width="47.1111" height="16" fill="#E9F2F2"/>
<rect x="365.111" y="321.981" width="47.1111" height="16" fill="white"/>
<rect width="48" height="18" transform="matrix(1 0 0 -1 811 753)" fill="#DDE5FF"/>
<rect x="71" y="258" width="47.1111" height="16" fill="#DDE5FF"/>
<rect x="1131" y="469.203" width="47.1111" height="16" fill="#DDE5FF"/>
<rect x="751.778" y="234.87" width="47.1111" height="16" fill="white"/>
<rect opacity="0.5" x="928" y="93" width="47.1111" height="16" fill="#E9F2F2"/>
<rect opacity="0.5" x="991.778" y="273.981" width="47.1111" height="16" transform="rotate(-180 991.778 273.981)" fill="black" fill-opacity="0.06"/>
<rect opacity="0.5" x="188.111" y="101" width="47.1111" height="16" transform="rotate(-180 188.111 101)" fill="black" fill-opacity="0.06"/>
<rect opacity="0.5" x="412" y="77" width="88" height="16" transform="rotate(-180 412 77)" fill="black" fill-opacity="0.06"/>
<rect opacity="0.5" x="456" y="101" width="44" height="16" transform="rotate(-180 456 101)" fill="black" fill-opacity="0.06"/>
<rect opacity="0.5" x="352" y="696" width="88" height="16" transform="rotate(-180 352 696)" fill="black" fill-opacity="0.06"/>
<rect opacity="0.5" x="396" y="720" width="44" height="16" transform="rotate(-180 396 720)" fill="black" fill-opacity="0.06"/>
<rect x="706.111" y="208" width="47.1111" height="16" transform="rotate(-180 706.111 208)" fill="#FFE7E7"/>
<rect opacity="0.5" x="748.111" y="117" width="47.1111" height="16" transform="rotate(-180 748.111 117)" fill="black" fill-opacity="0.06"/>
<rect x="379.333" y="327.314" width="47.1111" height="16" fill="white"/>
<rect x="869.111" y="248.889" width="47.1111" height="16" fill="white"/>
<rect x="916.222" y="323.556" width="22.2222" height="6.22222" fill="white"/>
<path d="M1164.56 427H1227.67V440.333H1164.56V427Z" fill="#E9F2F2"/>
<rect width="22.2222" height="13.3333" transform="matrix(-1 0 0 1 117.889 379)" fill="#E9F2F2"/>
<rect width="20.4444" height="13.3333" transform="matrix(-1 0 0 1 87.6666 379)" fill="#E9F2F2"/>
<path d="M-3 379H60.1111V392.333H-3V379Z" fill="#E9F2F2"/>
<rect opacity="0.5" x="869" y="704" width="160.889" height="23.1111" fill="#F4F4F4"/>
<rect opacity="0.5" y="647" width="88" height="10" fill="#E7E7E7"/>
</g>
<rect opacity="0.5" x="1110" y="379" width="168" height="13" fill="#F9F9F9"/>
<rect opacity="0.5" x="1074" y="392" width="204" height="13" fill="#F9F9F9"/>
<defs>
<clipPath id="clip0_561_2731">
<rect width="1276.9" height="784.889" fill="white" transform="translate(0.660522)"/>
</clipPath>
</defs>
</svg>
