<svg width="1277" height="785" viewBox="0 0 1277 785" fill="none" xmlns="http://www.w3.org/2000/svg">
<g clip-path="url(#clip0_561_2798)">
<rect width="1276.9" height="784.889" fill="#F9F9F9"/>
<rect width="129.778" height="16" transform="matrix(1 0 0 -1 912.895 158.222)" fill="#F3F5F5"/>
<rect x="1045.34" y="396.444" width="234.667" height="17.7778" fill="#FFE7E7"/>
<rect x="1" y="68" width="240" height="28" fill="#E9F2F2"/>
<rect x="145" y="773" width="197.333" height="23.1111" fill="#F3F5F5"/>
<rect opacity="0.5" x="1052.45" y="125.13" width="23.1111" height="12.4444" fill="#F3F5F5"/>
<rect x="1172.45" y="373.333" width="25.7778" height="23.1111" fill="#FFE7E7"/>
<rect x="17.3395" y="425" width="25.7778" height="23.1111" fill="#FFE7E7"/>
<rect x="-165.327" y="518.222" width="365.333" height="13.3333" fill="#DDE5FF"/>
<rect x="1195.56" y="198.019" width="131.556" height="23.1111" fill="#DDE5FF"/>
<rect x="951.117" y="129.575" width="78.2222" height="12.4444" fill="#F3F5F5"/>
<rect opacity="0.5" x="121" y="131" width="47.1111" height="16" fill="#E7E7E7"/>
<rect x="364.45" y="321.981" width="47.1111" height="16" fill="white"/>
<rect width="88" height="14" transform="matrix(1 0 0 -1 1196 468)" fill="#E9F2F2"/>
<rect x="751.117" y="234.87" width="47.1111" height="16" fill="white"/>
<rect opacity="0.5" x="724.451" y="222.222" width="47.1111" height="16" fill="black" fill-opacity="0.06"/>
<rect opacity="0.5" x="991.117" y="273.981" width="47.1111" height="16" transform="rotate(-180 991.117 273.981)" fill="black" fill-opacity="0.06"/>
<rect x="-23" y="330" width="47.1111" height="16" fill="white"/>
<rect x="868.451" y="248.889" width="47.1111" height="16" fill="white"/>
<rect x="915.562" y="323.556" width="22.2222" height="6.22222" fill="white"/>
<path opacity="0.5" d="M1000.9 527.797H1064.01V541.13H1000.9V527.797Z" fill="black" fill-opacity="0.06"/>
<path opacity="0.5" d="M-57 454H164V493H-57V454Z" fill="black" fill-opacity="0.06"/>
<rect width="22.2222" height="13.3333" transform="matrix(-1 0 0 1 94.2283 667.353)" fill="#E9F2F2"/>
<rect width="20.4444" height="13.3333" transform="matrix(-1 0 0 1 64.006 667.353)" fill="#E9F2F2"/>
<path d="M-26.6606 667.353H36.4505V680.686H-26.6606V667.353Z" fill="#E9F2F2"/>
<rect x="1050" y="585" width="160.889" height="23.1111" fill="#DDE5FF"/>
<rect opacity="0.5" x="-36" y="299" width="160.889" height="23.1111" fill="#E7E7E7"/>
</g>
<defs>
<clipPath id="clip0_561_2798">
<rect width="1276.9" height="784.889" fill="white"/>
</clipPath>
</defs>
</svg>
