<svg width="3445" height="1446" viewBox="0 0 3445 1446" fill="none" xmlns="http://www.w3.org/2000/svg">
<g filter="url(#filter0_bd_697_77)">
<path d="M2724.96 1013.83C2758.5 995.015 2799.88 1019.32 2799.79 1057.78L2796.88 2217.97C2796.81 2245.72 2774.26 2268.16 2746.51 2268.1L689.653 2262.95C637.973 2262.82 620.124 2194.14 665.2 2168.86L2724.96 1013.83Z" fill="white" fill-opacity="0.5" shape-rendering="crispEdges"/>
<path d="M2801.04 1057.79C2801.14 1018.36 2758.73 993.449 2724.34 1012.73L664.586 2167.77C618.383 2193.68 636.678 2264.07 689.65 2264.2L2746.5 2269.35C2774.95 2269.42 2798.07 2246.42 2798.14 2217.97L2801.04 1057.79Z" stroke="#DCDCDC" stroke-width="2.51256" shape-rendering="crispEdges"/>
</g>
<g filter="url(#filter1_bd_697_77)">
<path d="M674.829 976.153C641.385 957.558 600.258 981.679 600.162 1019.94L597.255 2180.99C597.185 2208.74 619.626 2231.29 647.378 2231.36L2748.01 2236.62C2799.92 2236.75 2817.92 2167.68 2772.55 2142.45L674.829 976.153Z" fill="white" fill-opacity="0.5" shape-rendering="crispEdges"/>
<path d="M598.906 1019.94C599.004 980.719 641.159 955.995 675.44 975.055L2773.16 2141.36C2819.66 2167.21 2801.21 2238.01 2748 2237.88L647.375 2232.62C618.929 2232.55 595.927 2209.43 595.998 2180.98L598.906 1019.94Z" stroke="#DCDCDC" stroke-width="2.51256" shape-rendering="crispEdges"/>
</g>
<defs>
<filter id="filter0_bd_697_77" x="561.553" y="929.438" width="2316.12" height="1416.55" filterUnits="userSpaceOnUse" color-interpolation-filters="sRGB">
<feFlood flood-opacity="0" result="BackgroundImageFix"/>
<feGaussianBlur in="BackgroundImageFix" stdDeviation="37.6884"/>
<feComposite in2="SourceAlpha" operator="in" result="effect1_backgroundBlur_697_77"/>
<feColorMatrix in="SourceAlpha" type="matrix" values="0 0 0 0 0 0 0 0 0 0 0 0 0 0 0 0 0 0 127 0" result="hardAlpha"/>
<feOffset dy="10.0502"/>
<feGaussianBlur stdDeviation="5.02512"/>
<feComposite in2="hardAlpha" operator="out"/>
<feColorMatrix type="matrix" values="0 0 0 0 0 0 0 0 0 0 0 0 0 0 0 0 0 0 0.25 0"/>
<feBlend mode="normal" in2="effect1_backgroundBlur_697_77" result="effect2_dropShadow_697_77"/>
<feBlend mode="normal" in="SourceGraphic" in2="effect2_dropShadow_697_77" result="shape"/>
</filter>
<filter id="filter1_bd_697_77" x="519.365" y="891.856" width="2356.99" height="1422.66" filterUnits="userSpaceOnUse" color-interpolation-filters="sRGB">
<feFlood flood-opacity="0" result="BackgroundImageFix"/>
<feGaussianBlur in="BackgroundImageFix" stdDeviation="37.6884"/>
<feComposite in2="SourceAlpha" operator="in" result="effect1_backgroundBlur_697_77"/>
<feColorMatrix in="SourceAlpha" type="matrix" values="0 0 0 0 0 0 0 0 0 0 0 0 0 0 0 0 0 0 127 0" result="hardAlpha"/>
<feOffset dy="10.0502"/>
<feGaussianBlur stdDeviation="5.02512"/>
<feComposite in2="hardAlpha" operator="out"/>
<feColorMatrix type="matrix" values="0 0 0 0 0 0 0 0 0 0 0 0 0 0 0 0 0 0 0.25 0"/>
<feBlend mode="normal" in2="effect1_backgroundBlur_697_77" result="effect2_dropShadow_697_77"/>
<feBlend mode="normal" in="SourceGraphic" in2="effect2_dropShadow_697_77" result="shape"/>
</filter>
</defs>
</svg>
