<svg width="1280" height="785" viewBox="0 0 1280 785" fill="none" xmlns="http://www.w3.org/2000/svg">
<g clip-path="url(#clip0_169_817)">
<rect width="1276.9" height="784.889" transform="translate(2.66016)" fill="#FCFCFC"/>
<rect opacity="0.5" x="150" y="107.425" width="197.333" height="23.1111" fill="#EFF3FF"/>
<rect opacity="0.5" width="129.778" height="16" transform="matrix(1 0 0 -1 915.555 158.222)" fill="#EAEFEF"/>
<rect opacity="0.5" x="1048" y="396.87" width="234.667" height="17.7778" fill="#EFF3FF"/>
<rect opacity="0.5" x="1132.44" y="414.444" width="197.333" height="23.1111" fill="#EFF3FF"/>
<rect opacity="0.5" x="1055.11" y="125.556" width="23.1111" height="12.4444" fill="#D8E3FF"/>
<rect opacity="0.5" x="1175.11" y="373.759" width="25.7778" height="23.1111" fill="#EFF3FF"/>
<rect opacity="0.5" x="20" y="425" width="25.7778" height="23.1111" fill="#D8E3E3"/>
<rect opacity="0.5" x="-162.668" y="518.222" width="365.333" height="13.3333" fill="#F5F5F5"/>
<rect opacity="0.5" x="150" y="557" width="88" height="13" fill="#FEF1F1"/>
<rect opacity="0.5" x="1198.22" y="198.019" width="131.556" height="23.1111" fill="#FFE5E5"/>
<rect opacity="0.5" x="-162.668" y="448" width="365.333" height="25.7778" fill="#D8E3E3"/>
<rect opacity="0.5" x="953.777" y="129.575" width="78.2222" height="12.4444" fill="#F8F8F8"/>
<rect opacity="0.5" x="75.5547" y="191.797" width="47.1111" height="16" fill="black" fill-opacity="0.06"/>
<rect x="367.111" y="321.981" width="47.1111" height="16" fill="white"/>
<rect x="340.443" y="309.333" width="47.1111" height="16" fill="#F0F3FB"/>
<rect x="753.777" y="234.87" width="47.1111" height="16" fill="white"/>
<rect opacity="0.5" x="727.11" y="222.222" width="47.1111" height="16" fill="#EAEFEF"/>
<rect opacity="0.5" x="993.777" y="273.981" width="47.1111" height="16" transform="rotate(-180 993.777 273.981)" fill="black" fill-opacity="0.06"/>
<rect x="381.332" y="327.314" width="47.1111" height="16" fill="white"/>
<rect x="871.11" y="248.889" width="47.1111" height="16" fill="white"/>
<rect x="918.222" y="323.555" width="22.2222" height="6.22222" fill="white"/>
<path opacity="0.5" d="M1003.55 527.797H1066.67V541.13H1003.55V527.797Z" fill="black" fill-opacity="0.06"/>
<rect opacity="0.5" width="22.2222" height="13.3333" transform="matrix(-1 0 0 1 96.8887 667.353)" fill="#FFE5E5"/>
<rect opacity="0.5" width="20.4444" height="13.3333" transform="matrix(-1 0 0 1 66.666 667.353)" fill="#FFE5E5"/>
<path opacity="0.5" d="M-24 667.353H39.1111V680.686H-24V667.353Z" fill="#FFE5E5"/>
<rect opacity="0.5" x="968" y="680.889" width="160.889" height="23.1111" fill="#D9D9D9" fill-opacity="0.2"/>
<rect opacity="0.5" x="167" y="678" width="88" height="26" fill="#F5F5F5"/>
</g>
<line y1="229.504" x2="203.062" y2="229.504" stroke="#EFEFEF" stroke-width="0.888889"/>
<line x1="203.507" y1="194.689" x2="203.507" y2="229.948" stroke="#EFEFEF" stroke-width="0.888889"/>
<line x1="295.281" y1="195.134" x2="203.061" y2="195.134" stroke="#EFEFEF" stroke-width="0.888889"/>
<line x1="1183.11" y1="147.111" x2="1075.56" y2="147.111" stroke="#EFEFEF" stroke-width="0.888889"/>
<line x1="1183.56" y1="146.667" x2="1183.56" y2="162.667" stroke="#EFEFEF" stroke-width="0.888889"/>
<line x1="1280" y1="163.111" x2="1183.11" y2="163.111" stroke="#EFEFEF" stroke-width="0.888889"/>
<line x1="1279.56" y1="255.687" x2="1142.11" y2="255.687" stroke="#EFEFEF" stroke-width="0.888889"/>
<line x1="1141.67" y1="290.5" x2="1141.67" y2="255.241" stroke="#EFEFEF" stroke-width="0.888889"/>
<line x1="1038.22" y1="290.222" x2="1142.11" y2="290.055" stroke="#EFEFEF" stroke-width="0.888889"/>
<line x1="549" y1="174.556" x2="573" y2="174.556" stroke="#EFEFEF" stroke-width="0.888889"/>
<line x1="573.777" y1="113.778" x2="573.777" y2="175.111" stroke="#EFEFEF" stroke-width="0.888889"/>
<line x1="573.444" y1="-0.000846132" x2="573.778" y2="175.11" stroke="#EFEFEF" stroke-width="0.888889"/>
<line x1="152.073" y1="784.889" x2="152.073" y2="653.052" stroke="#EFEFEF" stroke-width="0.888889"/>
<line x1="111.729" y1="652.608" x2="152.518" y2="652.608" stroke="#EFEFEF" stroke-width="0.888889"/>
<line x1="112.173" y1="573.337" x2="112.173" y2="653.052" stroke="#EFEFEF" stroke-width="0.888889"/>
<line x1="1039.56" y1="331.564" x2="1038.81" y2="290.51" stroke="#EFEFEF" stroke-width="0.888889"/>
<line x1="203.062" y1="414.351" x2="0.000488236" y2="414.351" stroke="#EFEFEF" stroke-width="0.888889"/>
<line x1="202.556" y1="414.259" x2="202.556" y2="379" stroke="#EFEFEF" stroke-width="0.888889"/>
<line x1="1040" y1="332" x2="973.333" y2="331.988" stroke="#EFEFEF" stroke-width="0.888889"/>
<path d="M1280 658.035L1086.25 658.035" stroke="#EFEFEF" stroke-width="0.888889"/>
<path d="M1085.8 679.556L1085.8 657.651" stroke="#EFEFEF" stroke-width="0.888889"/>
<defs>
<clipPath id="clip0_169_817">
<rect width="1276.9" height="784.889" fill="white" transform="translate(2.66016)"/>
</clipPath>
</defs>
</svg>
