<svg width="1214" height="494" viewBox="0 0 1214 494" fill="none" xmlns="http://www.w3.org/2000/svg">
<rect x="266" y="127" width="74" height="76" transform="rotate(90 266 127)" fill="#3B3B3B"/>
<rect x="266" y="196" width="75" height="76" transform="rotate(90 266 196)" fill="#3B3B3B"/>
<rect x="339" y="127" width="75" height="76" transform="rotate(90 339 127)" fill="#3B3B3B"/>
<rect x="406" y="127" width="75" height="76" transform="rotate(90 406 127)" fill="#3B3B3B"/>
<rect x="406" y="195" width="75" height="76" transform="rotate(90 406 195)" fill="#3B3B3B"/>
<rect x="482" y="195" width="75" height="76" transform="rotate(90 482 195)" fill="#3B3B3B"/>
<rect x="558" y="271" width="75" height="76" transform="rotate(90 558 271)" fill="#3B3B3B"/>
<rect x="558" y="196" width="75" height="76" transform="rotate(90 558 196)" fill="#3B3B3B"/>
<rect x="628" y="271" width="75" height="76" transform="rotate(90 628 271)" fill="#3B3B3B"/>
<rect x="726" y="345" width="41" height="59" transform="rotate(90 726 345)" fill="#3B3B3B"/>
<rect x="169" y="127" width="41" height="59" transform="rotate(90 169 127)" fill="#3B3B3B"/>
<rect x="510" y="308" width="75" height="76" transform="rotate(90 510 308)" fill="#3B3B3B"/>
<rect x="704" y="242" width="75" height="76" transform="rotate(90 704 242)" fill="#3B3B3B"/>
<rect x="773" y="242" width="75" height="76" transform="rotate(90 773 242)" fill="#3B3B3B"/>
<rect x="844" y="242" width="75" height="76" transform="rotate(90 844 242)" fill="#3B3B3B"/>
<rect x="882" y="174" width="75" height="76" transform="rotate(90 882 174)" fill="#3B3B3B"/>
<rect x="228" y="345" width="37" height="38" transform="rotate(90 228 345)" fill="#3B3B3B"/>
<rect x="952" y="122" width="37" height="38" transform="rotate(90 952 122)" fill="#3B3B3B"/>
<rect x="882" y="249" width="68" height="76" transform="rotate(90 882 249)" fill="#3B3B3B"/>
<rect x="882" y="312" width="68" height="76" transform="rotate(90 882 312)" fill="#3B3B3B"/>
<rect x="957" y="312" width="68" height="76" transform="rotate(90 957 312)" fill="#3B3B3B"/>
<rect x="1033" y="312" width="68" height="76" transform="rotate(90 1033 312)" fill="#3B3B3B"/>
</svg>
