<svg width="1214" height="494" viewBox="0 0 1214 494" fill="none" xmlns="http://www.w3.org/2000/svg">
<path d="M111 249H222V360H111V249Z" fill="#262626"/>
<path d="M946.5 247H1057.5V358H946.5V247Z" fill="#262626"/>
<path d="M266 201V276H190V201H266Z" fill="#3B3B3B"/>
<path d="M228 345V382H190V345H228Z" fill="#3B3B3B"/>
<path d="M952 122V159H914V122H952Z" fill="#3B3B3B"/>
<path d="M266 127V201H190V127H266Z" fill="#3B3B3B"/>
<path d="M342 126V201H266V126H342Z" fill="#3B3B3B"/>
<path d="M418 120V195H342V120H418Z" fill="#3B3B3B"/>
<path d="M418 195V270H342V195H418Z" fill="#3B3B3B"/>
<path d="M482 195V270H418V195H482Z" fill="#3B3B3B"/>
<path d="M558 273.5V348.5H482V273.5H558Z" fill="#3B3B3B"/>
<path d="M558 196V273.5H482V196H558Z" fill="#3B3B3B"/>
<path d="M634 273.5V348.5H558V273.5H634Z" fill="#3B3B3B"/>
<path d="M510 308V383H434V308H510Z" fill="#3B3B3B"/>
<path d="M710 242V317H634V242H710Z" fill="#3B3B3B"/>
<path d="M786 242V317H710V242H786Z" fill="#3B3B3B"/>
<path d="M862 242V317H786V242H862Z" fill="#3B3B3B"/>
<path d="M862 175.5V242H786V175.5H862Z" fill="#3B3B3B"/>
<path d="M862 317V385H786V317H862Z" fill="#3B3B3B"/>
<path d="M938 317V385H862V317H938Z" fill="#3B3B3B"/>
<path d="M1007 317L1009.5 385H938V317H1007Z" fill="#3B3B3B"/>
</svg>
