<svg width="1280" height="786" viewBox="0 0 1280 786" fill="none" xmlns="http://www.w3.org/2000/svg">
<g clip-path="url(#clip0_48_234)">
<rect width="1276.9" height="784.889" transform="translate(2.66064 1)" fill="#F6F5F5"/>
<rect opacity="0.5" x="1048" y="397.444" width="234.667" height="17.7778" fill="black" fill-opacity="0.06"/>
<rect opacity="0.5" x="1132.44" y="415.019" width="197.333" height="23.1111" fill="black" fill-opacity="0.06"/>
<rect opacity="0.5" x="801" y="717" width="234.667" height="17.7778" fill="black" fill-opacity="0.06"/>
<rect opacity="0.5" x="885.444" y="734.575" width="197.333" height="23.1111" fill="black" fill-opacity="0.06"/>
<rect opacity="0.5" x="595" y="650" width="149" height="10" fill="black" fill-opacity="0.06"/>
<rect opacity="0.5" x="649" y="660" width="125" height="14" fill="black" fill-opacity="0.06"/>
<rect opacity="0.5" x="1055.11" y="126.13" width="23.1111" height="12.4444" fill="black" fill-opacity="0.06"/>
<rect opacity="0.5" x="1175.11" y="374.333" width="25.7778" height="23.1111" fill="black" fill-opacity="0.06"/>
<rect opacity="0.5" x="-162.667" y="519.222" width="365.333" height="13.3333" fill="#EAE9E9"/>
<rect x="1198.22" y="199.019" width="131.556" height="23.1111" fill="black" fill-opacity="0.06"/>
<rect opacity="0.5" x="-162" y="459" width="365.333" height="25.7778" fill="black" fill-opacity="0.06"/>
<path fill-rule="evenodd" clip-rule="evenodd" d="M148 298H36V318H-19V344H167V318H148V298Z" fill="#EFEEEE"/>
<rect opacity="0.5" x="317" y="608" width="112" height="20" fill="black" fill-opacity="0.06"/>
<rect opacity="0.5" x="36" y="19" width="112" height="20" fill="black" fill-opacity="0.06"/>
<rect opacity="0.5" x="-10" y="39" width="177" height="20" fill="black" fill-opacity="0.06"/>
<rect opacity="0.5" x="-4" y="158" width="202" height="20" fill="black" fill-opacity="0.06"/>
<rect opacity="0.5" x="75.5557" y="192.797" width="47.1111" height="16" fill="black" fill-opacity="0.06"/>
<rect x="367.111" y="322.981" width="47.1111" height="16" fill="white"/>
<rect opacity="0.5" x="340.445" y="310.333" width="47.1111" height="16" fill="black" fill-opacity="0.06"/>
<rect x="53" y="107" width="84" height="16" fill="white"/>
<rect opacity="0.5" x="5" y="94" width="84" height="16" fill="black" fill-opacity="0.06"/>
<rect x="754" y="239" width="47.1111" height="16" fill="white"/>
<rect x="397" y="627" width="47.1111" height="16" fill="white"/>
<rect opacity="0.5" x="276" y="758" width="112" height="20" fill="black" fill-opacity="0.06"/>
<rect x="356" y="777" width="47.1111" height="16" fill="white"/>
<rect opacity="0.5" x="727.111" y="223.222" width="47.1111" height="16" fill="black" fill-opacity="0.06"/>
<rect x="879" y="33" width="136" height="31" fill="white"/>
<rect opacity="0.5" x="801" y="2" width="136" height="31" fill="black" fill-opacity="0.06"/>
<rect x="1242" y="587" width="136" height="31" transform="rotate(-180 1242 587)" fill="white"/>
<rect opacity="0.5" x="1320" y="618" width="136" height="31" transform="rotate(-180 1320 618)" fill="black" fill-opacity="0.06"/>
<rect opacity="0.5" x="993.778" y="274.981" width="47.1111" height="16" transform="rotate(-180 993.778 274.981)" fill="black" fill-opacity="0.06"/>
<rect x="381.333" y="328.314" width="47.1111" height="16" fill="white"/>
<rect x="871.111" y="249.889" width="47.1111" height="16" fill="white"/>
<rect x="918.222" y="324.555" width="22.2222" height="6.22222" fill="white"/>
<path opacity="0.5" d="M808 479H871.111V492.333H808V479Z" fill="black" fill-opacity="0.06"/>
<path opacity="0.5" d="M962 529H1025.11V542.333H962V529Z" fill="black" fill-opacity="0.06"/>
<path opacity="0.5" d="M994 542H1057.11V555.333H994V542Z" fill="black" fill-opacity="0.06"/>
<rect opacity="0.5" width="22.2222" height="13.3333" transform="matrix(-1 0 0 1 96.8889 668.353)" fill="black" fill-opacity="0.06"/>
<rect opacity="0.5" width="20.4444" height="13.3333" transform="matrix(-1 0 0 1 66.6667 668.353)" fill="black" fill-opacity="0.06"/>
<path opacity="0.5" d="M-24 668.353H39.1111V681.686H-24V668.353Z" fill="black" fill-opacity="0.06"/>
<rect x="968" y="681.889" width="160.889" height="23.1111" fill="#EFEEEE"/>
<rect opacity="0.5" x="1072" y="46" width="93" height="23" fill="black" fill-opacity="0.06"/>
<rect x="348" y="24" width="131.556" height="23.1111" fill="#EFEEEE"/>
</g>
<line y1="230.504" x2="203.062" y2="230.504" stroke="#D9D9D9" stroke-width="0.888889"/>
<line x1="203.507" y1="195.689" x2="203.507" y2="230.948" stroke="#D9D9D9" stroke-width="0.888889"/>
<line x1="295.282" y1="196.134" x2="203.062" y2="196.134" stroke="#D9D9D9" stroke-width="0.888889"/>
<line x1="1183.11" y1="148.111" x2="1075.56" y2="148.111" stroke="#D9D9D9" stroke-width="0.888889"/>
<line x1="1183.56" y1="147.667" x2="1183.56" y2="163.667" stroke="#D9D9D9" stroke-width="0.888889"/>
<line x1="1280" y1="164.111" x2="1183.11" y2="164.111" stroke="#D9D9D9" stroke-width="0.888889"/>
<line x1="1076" y1="158.331" x2="1076.05" y2="148.164" stroke="#D9D9D9" stroke-width="0.888889"/>
<line x1="1279.56" y1="256.687" x2="1142.11" y2="256.687" stroke="#D9D9D9" stroke-width="0.888889"/>
<line x1="1141.67" y1="291.5" x2="1141.67" y2="256.241" stroke="#D9D9D9" stroke-width="0.888889"/>
<line x1="1038.22" y1="291.222" x2="1142.11" y2="291.055" stroke="#D9D9D9" stroke-width="0.888889"/>
<path d="M614.062 235.667L614.062 176.527" stroke="#D9D9D9" stroke-width="0.888889"/>
<line x1="573.717" y1="176.083" x2="614.507" y2="176.083" stroke="#D9D9D9" stroke-width="0.888889"/>
<line x1="573.778" y1="114.778" x2="573.778" y2="176.111" stroke="#D9D9D9" stroke-width="0.888889"/>
<line x1="152.074" y1="785.889" x2="152.074" y2="654.052" stroke="#D9D9D9" stroke-width="0.888889"/>
<line x1="111.728" y1="653.608" x2="152.518" y2="653.608" stroke="#D9D9D9" stroke-width="0.888889"/>
<line x1="112.173" y1="574.337" x2="112.173" y2="654.052" stroke="#D9D9D9" stroke-width="0.888889"/>
<line x1="1039.56" y1="332.564" x2="1038.81" y2="291.51" stroke="#D9D9D9" stroke-width="0.888889"/>
<line x1="203.062" y1="415.351" x2="0.000488236" y2="415.351" stroke="#D9D9D9" stroke-width="0.888889"/>
<line x1="414.104" y1="380.092" x2="211.042" y2="380.092" stroke="#D9D9D9" stroke-width="0.888889"/>
<line x1="210.598" y1="414.906" x2="210.598" y2="379.648" stroke="#D9D9D9" stroke-width="0.888889"/>
<line x1="118.822" y1="414.462" x2="211.042" y2="414.462" stroke="#D9D9D9" stroke-width="0.888889"/>
<line x1="1040" y1="333" x2="973.333" y2="332.988" stroke="#D9D9D9" stroke-width="0.888889"/>
<path d="M1280 659.035L1086.25 659.035" stroke="#D9D9D9" stroke-width="0.888889"/>
<path d="M1085.8 680.556L1085.8 658.651" stroke="#D9D9D9" stroke-width="0.888889"/>
<rect opacity="0.5" x="0.666748" y="436" width="93" height="23" fill="black" fill-opacity="0.06"/>
<rect opacity="0.5" x="3" y="497" width="30" height="23" fill="black" fill-opacity="0.06"/>
<rect x="1198" y="176" width="25.7778" height="23.1111" fill="black" fill-opacity="0.06"/>
<rect x="347.778" y="0.980957" width="25.7778" height="23.1111" fill="#EFEEEE"/>
<defs>
<clipPath id="clip0_48_234">
<rect width="1276.9" height="784.889" fill="white" transform="translate(2.66064 1)"/>
</clipPath>
</defs>
</svg>
