<svg width="1280" height="785" viewBox="0 0 1280 785" fill="none" xmlns="http://www.w3.org/2000/svg">
<g clip-path="url(#clip0_48_233)">
<rect width="1276.9" height="784.889" transform="translate(2.66064)" fill="#F6F5F5"/>
<rect opacity="0.5" x="1048" y="396.444" width="234.667" height="17.7778" fill="black" fill-opacity="0.06"/>
<rect opacity="0.5" x="1132.44" y="414.019" width="197.333" height="23.1111" fill="black" fill-opacity="0.06"/>
<rect opacity="0.5" x="801" y="716" width="234.667" height="17.7778" fill="black" fill-opacity="0.06"/>
<rect opacity="0.5" x="885.445" y="733.575" width="197.333" height="23.1111" fill="black" fill-opacity="0.06"/>
<rect opacity="0.5" x="1055.11" y="125.13" width="23.1111" height="12.4444" fill="black" fill-opacity="0.06"/>
<rect opacity="0.5" x="1175.11" y="373.333" width="25.7778" height="23.1111" fill="black" fill-opacity="0.06"/>
<rect opacity="0.5" x="-162.667" y="518.222" width="365.333" height="13.3333" fill="#EAE9E9"/>
<rect x="1198.22" y="198.019" width="131.556" height="23.1111" fill="black" fill-opacity="0.06"/>
<rect opacity="0.5" x="-162" y="458" width="365.333" height="25.7778" fill="black" fill-opacity="0.06"/>
<path fill-rule="evenodd" clip-rule="evenodd" d="M148 297H36V317H-19V343H167V317H148V297Z" fill="#EFEEEE"/>
<rect opacity="0.5" x="284" y="654" width="112" height="20" fill="black" fill-opacity="0.06"/>
<rect opacity="0.5" x="36" y="18" width="112" height="20" fill="black" fill-opacity="0.06"/>
<rect opacity="0.5" x="-10" y="38" width="177" height="20" fill="black" fill-opacity="0.06"/>
<rect opacity="0.5" x="-4" y="157" width="202" height="20" fill="black" fill-opacity="0.06"/>
<rect opacity="0.5" x="75.5557" y="191.797" width="47.1111" height="16" fill="black" fill-opacity="0.06"/>
<rect x="367.111" y="321.981" width="47.1111" height="16" fill="white"/>
<rect opacity="0.5" x="340.445" y="309.333" width="47.1111" height="16" fill="black" fill-opacity="0.06"/>
<rect x="53" y="106" width="84" height="16" fill="white"/>
<rect opacity="0.5" x="5" y="93" width="84" height="16" fill="black" fill-opacity="0.06"/>
<rect x="753.778" y="234.87" width="47.1111" height="16" fill="white"/>
<rect x="364" y="673" width="47.1111" height="16" fill="white"/>
<rect opacity="0.5" x="727.111" y="222.222" width="47.1111" height="16" fill="black" fill-opacity="0.06"/>
<rect opacity="0.5" x="993.778" y="273.981" width="47.1111" height="16" transform="rotate(-180 993.778 273.981)" fill="black" fill-opacity="0.06"/>
<rect x="381.333" y="327.314" width="47.1111" height="16" fill="white"/>
<rect x="871.111" y="248.889" width="47.1111" height="16" fill="white"/>
<rect x="918.222" y="323.555" width="22.2222" height="6.22222" fill="white"/>
<path opacity="0.5" d="M1003.56 527.797H1066.67V541.13H1003.56V527.797Z" fill="black" fill-opacity="0.06"/>
<rect opacity="0.5" width="22.2222" height="13.3333" transform="matrix(-1 0 0 1 96.8889 667.353)" fill="black" fill-opacity="0.06"/>
<rect opacity="0.5" width="20.4444" height="13.3333" transform="matrix(-1 0 0 1 66.6667 667.353)" fill="black" fill-opacity="0.06"/>
<path opacity="0.5" d="M-24 667.353H39.1111V680.686H-24V667.353Z" fill="black" fill-opacity="0.06"/>
<rect x="968" y="680.889" width="160.889" height="23.1111" fill="#EFEEEE"/>
<rect opacity="0.5" x="1072" y="45" width="93" height="23" fill="black" fill-opacity="0.06"/>
</g>
<line y1="229.504" x2="203.062" y2="229.504" stroke="#D9D9D9" stroke-width="0.888889"/>
<line x1="203.507" y1="194.689" x2="203.507" y2="229.948" stroke="#D9D9D9" stroke-width="0.888889"/>
<line x1="295.282" y1="195.134" x2="203.062" y2="195.134" stroke="#D9D9D9" stroke-width="0.888889"/>
<line x1="1183.11" y1="147.111" x2="1075.56" y2="147.111" stroke="#D9D9D9" stroke-width="0.888889"/>
<line x1="1183.56" y1="146.667" x2="1183.56" y2="162.667" stroke="#D9D9D9" stroke-width="0.888889"/>
<line x1="1280" y1="163.111" x2="1183.11" y2="163.111" stroke="#D9D9D9" stroke-width="0.888889"/>
<line x1="1076" y1="157.331" x2="1076.05" y2="147.164" stroke="#D9D9D9" stroke-width="0.888889"/>
<line x1="1279.56" y1="255.687" x2="1142.11" y2="255.687" stroke="#D9D9D9" stroke-width="0.888889"/>
<line x1="1141.67" y1="290.5" x2="1141.67" y2="255.241" stroke="#D9D9D9" stroke-width="0.888889"/>
<line x1="1038.22" y1="290.222" x2="1142.11" y2="290.055" stroke="#D9D9D9" stroke-width="0.888889"/>
<path d="M614.062 234.667L614.062 175.527" stroke="#D9D9D9" stroke-width="0.888889"/>
<line x1="573.717" y1="175.083" x2="614.507" y2="175.083" stroke="#D9D9D9" stroke-width="0.888889"/>
<line x1="573.778" y1="113.778" x2="573.778" y2="175.111" stroke="#D9D9D9" stroke-width="0.888889"/>
<line x1="152.074" y1="784.889" x2="152.074" y2="653.052" stroke="#D9D9D9" stroke-width="0.888889"/>
<line x1="111.728" y1="652.608" x2="152.518" y2="652.608" stroke="#D9D9D9" stroke-width="0.888889"/>
<line x1="112.173" y1="573.337" x2="112.173" y2="653.052" stroke="#D9D9D9" stroke-width="0.888889"/>
<line x1="1039.56" y1="331.564" x2="1038.81" y2="290.51" stroke="#D9D9D9" stroke-width="0.888889"/>
<line x1="203.062" y1="414.351" x2="0.000488236" y2="414.351" stroke="#D9D9D9" stroke-width="0.888889"/>
<line x1="414.104" y1="379.092" x2="211.042" y2="379.092" stroke="#D9D9D9" stroke-width="0.888889"/>
<line x1="210.598" y1="413.906" x2="210.598" y2="378.648" stroke="#D9D9D9" stroke-width="0.888889"/>
<line x1="118.822" y1="413.462" x2="211.042" y2="413.462" stroke="#D9D9D9" stroke-width="0.888889"/>
<line x1="1040" y1="332" x2="973.333" y2="331.988" stroke="#D9D9D9" stroke-width="0.888889"/>
<path d="M1280 658.035L1086.25 658.035" stroke="#D9D9D9" stroke-width="0.888889"/>
<path d="M1085.8 679.556L1085.8 657.651" stroke="#D9D9D9" stroke-width="0.888889"/>
<rect opacity="0.5" x="0.666748" y="435" width="93" height="23" fill="black" fill-opacity="0.06"/>
<rect opacity="0.5" x="3" y="496" width="30" height="23" fill="black" fill-opacity="0.06"/>
<rect x="1198" y="175" width="25.7778" height="23.1111" fill="black" fill-opacity="0.06"/>
<rect opacity="0.5" x="909" y="68" width="365" height="26" fill="black" fill-opacity="0.06"/>
<defs>
<clipPath id="clip0_48_233">
<rect width="1276.9" height="784.889" fill="white" transform="translate(2.66064)"/>
</clipPath>
</defs>
</svg>
