<svg width="774" height="410" viewBox="0 0 774 410" fill="none" xmlns="http://www.w3.org/2000/svg">
<g filter="url(#filter0_d_297_20)">
<mask id="path-1-outside-1_297_20" maskUnits="userSpaceOnUse" x="4" y="0" width="767" height="403" fill="black">
<rect fill="white" x="4" width="767" height="403"/>
<path fill-rule="evenodd" clip-rule="evenodd" d="M6.03084 18.4398C6.06738 5.47457 19.719 -2.93308 31.3137 2.86882L386.236 180.105L744 2.86882C755.622 -2.79331 769.651 5.51172 769.615 18.4397L769.615 380.84C769.609 382.956 769.226 384.984 768.531 386.859C766.499 393.149 760.738 398.258 752.148 398.257L22.4653 401.758C14.3292 401.758 9.00682 397.563 6.61167 391.63C5.57065 389.385 4.99264 386.881 5.00007 384.242L6.03084 18.4398Z"/>
</mask>
<path fill-rule="evenodd" clip-rule="evenodd" d="M6.03084 18.4398C6.06738 5.47457 19.719 -2.93308 31.3137 2.86882L386.236 180.105L744 2.86882C755.622 -2.79331 769.651 5.51172 769.615 18.4397L769.615 380.84C769.609 382.956 769.226 384.984 768.531 386.859C766.499 393.149 760.738 398.258 752.148 398.257L22.4653 401.758C14.3292 401.758 9.00682 397.563 6.61167 391.63C5.57065 389.385 4.99264 386.881 5.00007 384.242L6.03084 18.4398Z" fill="#FBFBFB" fill-opacity="0.98" shape-rendering="crispEdges"/>
<path d="M31.3137 2.86882L30.9229 3.64985L30.9235 3.65017L31.3137 2.86882ZM6.03084 18.4398L5.15748 18.4374L6.03084 18.4398ZM386.236 180.105L385.845 180.886L386.234 181.08L386.623 180.887L386.236 180.105ZM744 2.86882L743.617 2.08366L743.612 2.08623L744 2.86882ZM769.615 18.4397L768.741 18.4372V18.4397H769.615ZM769.615 380.84L770.488 380.842V380.84H769.615ZM768.531 386.859L767.712 386.556L767.706 386.573L767.7 386.591L768.531 386.859ZM752.148 398.257L752.148 397.384L752.143 397.384L752.148 398.257ZM22.4653 401.758V402.632L22.4695 402.632L22.4653 401.758ZM6.61167 391.63L7.42154 391.303L7.41329 391.283L7.40401 391.263L6.61167 391.63ZM5.00007 384.242L5.87343 384.245L5.00007 384.242ZM31.7045 2.08778C19.5301 -4.00422 5.19584 4.82383 5.15748 18.4374L6.9042 18.4423C6.93891 6.12532 19.9079 -1.86194 30.9229 3.64985L31.7045 2.08778ZM386.626 179.323L31.7039 2.08746L30.9235 3.65017L385.845 180.886L386.626 179.323ZM743.612 2.08623L385.848 179.322L386.623 180.887L744.388 3.65141L743.612 2.08623ZM770.488 18.4422C770.527 4.82824 755.785 -3.84404 743.617 2.08368L744.383 3.65396C755.46 -1.74259 768.776 6.19519 768.741 18.4372L770.488 18.4422ZM770.488 380.84L770.488 18.4397H768.741L768.741 380.84H770.488ZM769.35 387.163C770.081 385.192 770.482 383.063 770.488 380.842L768.741 380.837C768.736 382.849 768.372 384.775 767.712 386.556L769.35 387.163ZM752.147 399.131C761.133 399.131 767.218 393.763 769.362 387.128L767.7 386.591C765.779 392.536 760.343 397.384 752.148 397.384L752.147 399.131ZM22.4695 402.632L752.152 399.131L752.143 397.384L22.4612 400.885L22.4695 402.632ZM5.8018 391.957C8.32966 398.219 13.9715 402.632 22.4653 402.632V400.885C14.6869 400.885 9.68399 396.908 7.42154 391.303L5.8018 391.957ZM4.12671 384.24C4.11891 387.009 4.72569 389.639 5.81933 391.997L7.40401 391.263C6.4156 389.131 5.86636 386.753 5.87343 384.245L4.12671 384.24ZM5.15748 18.4374L4.12671 384.24L5.87343 384.245L6.9042 18.4423L5.15748 18.4374Z" fill="#D9D9D9" fill-opacity="0.99" mask="url(#path-1-outside-1_297_20)"/>
</g>
<defs>
<filter id="filter0_d_300_20" x="0.6332" y="0.125488" width="773.348" height="409.493" filterUnits="userSpaceOnUse" color-interpolation-filters="sRGB">
<feFlood flood-opacity="10" result="BackgroundImageFix"/>
<feColorMatrix in="SourceAlpha" type="matrix" values="0 0 0 0 0 0 0 0 0 0 0 0 0 0 0 0 0 0 127 0" result="hardAlpha"/>
<feOffset dy="3.49345"/>
<feGaussianBlur stdDeviation="1.74672"/>
<feComposite in2="hardAlpha" operator="out"/>
<feColorMatrix type="matrix" values="0 0 0 0 0 0 0 0 0 0 0 0 0 0 0 0 0 0 0.25 0"/>
<feBlend mode="normal" in2="BackgroundImageFix" result="effect1_dropShadow_297_20"/>
<feBlend mode="normal" in="SourceGraphic" in2="effect1_dropShadow_297_20" result="shape"/>
</filter>
</defs>
</svg>
