<svg width="347" height="277" viewBox="0 0 347 277" fill="none" xmlns="http://www.w3.org/2000/svg">
<line x1="39" y1="45" x2="239" y2="45" stroke="black" stroke-width="20"/>
<line x1="104.969" y1="141.5" x2="306.031" y2="141.5" stroke="black" stroke-width="20"/>
<line x1="39" y1="241" x2="226" y2="241" stroke="black" stroke-width="20"/>
<path d="M256.791 79V62.2L291.391 22.4V20.8H257.791V9H305.191V25.8L270.591 65.6V67.2H305.391V79H256.791Z" fill="black"/>
<path d="M41.3012 178V108H54.5012V135.8H56.3012L79.0012 108H95.9012L66.7012 142.5L96.9012 178H79.5012L56.3012 149.6H54.5012V178H41.3012Z" fill="black"/>
<path d="M259.914 267V197H304.914V209H273.114V225.7H302.114V237.7H273.114V255H305.514V267H259.914Z" fill="black"/>
</svg>
