<svg width="1274" height="256" viewBox="0 0 1274 256" fill="none" xmlns="http://www.w3.org/2000/svg">
<path d="M47.4929 256H0V239.604L157.454 47.4929V41.5028H4.70651V0H204.947V59.901L47.4929 252.012V256Z" fill="white"/>
<path d="M261.061 256H214.851V0H261.061V124.509H267.907L379.579 0H625.244V41.9307H482.765V127.931H613.263V169.862H482.765V256H436.555V3.66041L304.703 147.613L404.541 256H343.317L267.907 172.429H261.061V256Z" fill="white"/>
<path d="M678.125 256H634.055V88.5679H677.269V113.384H684.115C688.108 105.968 694.526 99.4072 703.369 93.7023C712.211 87.9974 724.192 85.145 739.31 85.145C754.998 85.145 767.549 88.4253 776.962 94.9859C786.66 101.261 793.934 109.391 798.783 119.374H805.628C810.478 109.676 817.466 101.546 826.594 94.9859C836.007 88.4253 849.271 85.145 866.385 85.145C880.077 85.145 892.2 87.9974 902.754 93.7023C913.308 99.1219 921.722 107.394 927.998 118.518C934.273 129.358 937.411 142.907 937.411 159.166V256H893.341V162.588C893.341 149.753 889.775 139.912 882.644 133.066C875.798 125.935 865.957 122.369 853.121 122.369C839.43 122.369 828.448 126.79 820.176 135.633C811.904 144.476 807.768 157.169 807.768 173.713V256H763.698V162.588C763.698 149.753 760.132 139.912 753.001 133.066C746.155 125.935 736.314 122.369 723.479 122.369C709.787 122.369 698.805 126.79 690.533 135.633C682.261 144.476 678.125 157.169 678.125 173.713V256Z" fill="white"/>
<path d="M1133.19 256C1132.58 254.286 1132.27 252.244 1132.27 249.873V163.016C1132.27 137.344 1124.43 117.52 1108.74 103.543C1093.05 89.5663 1071.51 82.5778 1044.13 82.5778C1026.44 82.5778 1011.33 85.4303 998.776 91.1351C986.225 96.84 976.099 104.399 968.397 113.812C960.981 122.94 955.561 133.208 952.139 144.618L993.214 157.882C995.781 146.472 1001.06 137.202 1009.04 130.071C1017.03 122.94 1028.58 119.374 1043.7 119.374C1059.1 119.374 1070.51 123.082 1077.93 130.499C1085.35 137.915 1089.06 147.756 1089.06 160.021V173.713H1024.88C1009.47 173.713 995.638 176.138 983.373 180.987C971.392 185.836 961.837 193.109 954.706 202.808C947.86 212.221 944.437 224.201 944.437 238.748C944.437 244.896 945.073 250.647 946.345 256H994.834C990.616 250.957 988.507 244.779 988.507 237.465C988.507 227.766 992.073 220.493 999.204 215.644C1006.33 210.509 1015.75 207.942 1027.44 207.942H1089.06V212.221C1089.06 229.906 1083.64 243.883 1072.8 254.151C1072.11 254.788 1071.4 255.404 1070.68 256H1133.19Z" fill="white"/>
<path d="M1206.35 256H1162.28V88.5679H1206.35V256Z" fill="white"/>
<path d="M1273.04 256H1228.97V0H1273.04V256Z" fill="white"/>
<path d="M1184.53 0C1175.98 0 1168.7 2.85243 1162.71 8.5573C1157.01 13.9769 1154.15 21.108 1154.15 29.9505C1154.15 38.793 1157.01 46.0667 1162.71 51.7716C1168.7 57.1912 1175.98 59.901 1184.53 59.901C1193.37 59.901 1200.65 57.1912 1206.35 51.7716C1212.06 46.0667 1214.91 38.793 1214.91 29.9505C1214.91 21.108 1212.06 13.9769 1206.35 8.5573C1200.65 2.85243 1193.37 0 1184.53 0Z" fill="white"/>
</svg>
