<svg width="854" height="215" viewBox="0 0 854 215" fill="none" xmlns="http://www.w3.org/2000/svg">
<path d="M0.800001 210V172.2L88.1 92.4V88.2H3.8V62.1H121.7V100.2L34.1 180V183.9H124.1V210H0.800001ZM132.366 210V-1.43051e-05H163.266V119.7H168.066L226.266 62.1H267.366L192.666 133.8L269.766 210H228.966L168.066 148.5H163.266V210H132.366ZM266.701 210V-1.43051e-05H399.001V29.4H299.101V89.7H390.601V119.1H299.101V180.6H400.501V210H266.701ZM405.179 210V62.1H435.479V79.5H440.279C443.079 74.3 447.579 69.7 453.779 65.7C459.979 61.7 468.379 59.7 478.979 59.7C489.979 59.7 498.779 62 505.379 66.6C512.179 71 517.279 76.7 520.679 83.7H525.479C528.879 76.9 533.779 71.2 540.179 66.6C546.779 62 556.079 59.7 568.079 59.7C577.679 59.7 586.179 61.7 593.579 65.7C600.979 69.5 606.879 75.3 611.279 83.1C615.679 90.7 617.879 100.2 617.879 111.6V210H586.979V114C586.979 105 584.479 98.1 579.479 93.3C574.679 88.3 567.779 85.8 558.779 85.8C549.179 85.8 541.479 88.9 535.679 95.1C529.879 101.3 526.979 110.2 526.979 121.8V210H496.079V114C496.079 105 493.579 98.1 488.579 93.3C483.779 88.3 476.879 85.8 467.879 85.8C458.279 85.8 450.579 88.9 444.779 95.1C438.979 101.3 436.079 110.2 436.079 121.8V210H405.179ZM678.305 214.2C667.705 214.2 658.205 212.4 649.805 208.8C641.605 205.2 635.005 199.9 630.005 192.9C625.205 185.9 622.805 177.4 622.805 167.4C622.805 157.2 625.205 148.8 630.005 142.2C635.005 135.4 641.705 130.3 650.105 126.9C658.705 123.5 668.405 121.8 679.205 121.8H724.205V112.2C724.205 103.6 721.605 96.7 716.405 91.5C711.205 86.3 703.205 83.7 692.405 83.7C681.805 83.7 673.705 86.2 668.105 91.2C662.505 96.2 658.805 102.7 657.005 110.7L628.205 101.4C630.605 93.4 634.405 86.2 639.605 79.8C645.005 73.2 652.105 67.9 660.905 63.9C669.705 59.9 680.305 57.9 692.705 57.9C711.905 57.9 727.005 62.8 738.005 72.6C749.005 82.4 754.505 96.3 754.505 114.3V175.2C754.505 181.2 757.305 184.2 762.905 184.2H775.505V210H752.405C745.405 210 739.705 208.2 735.305 204.6C730.905 201 728.705 196.1 728.705 189.9V189H724.205C722.605 192 720.205 195.5 717.005 199.5C713.805 203.5 709.105 207 702.905 210C696.705 212.8 688.505 214.2 678.305 214.2ZM682.805 188.7C695.205 188.7 705.205 185.2 712.805 178.2C720.405 171 724.205 161.2 724.205 148.8V145.8H681.005C672.805 145.8 666.205 147.6 661.205 151.2C656.205 154.6 653.705 159.7 653.705 166.5C653.705 173.3 656.305 178.7 661.505 182.7C666.705 186.7 673.805 188.7 682.805 188.7ZM775.55 210V62.1H806.45V210H775.55ZM791.15 42C785.15 42 780.05 40.1 775.85 36.3C771.85 32.3 769.85 27.2 769.85 21C769.85 14.8 771.85 9.8 775.85 6C780.05 1.99999 785.15 -1.43051e-05 791.15 -1.43051e-05C797.35 -1.43051e-05 802.45 1.99999 806.45 6C810.45 9.8 812.45 14.8 812.45 21C812.45 27.2 810.45 32.3 806.45 36.3C802.45 40.1 797.35 42 791.15 42ZM822.308 210V-1.43051e-05H853.208V210H822.308Z" fill="white"/>
</svg>
