<svg width="1042" height="237" viewBox="0 0 1042 237" fill="none" xmlns="http://www.w3.org/2000/svg">
<path d="M0.896484 235.5V214.107L109.196 115.112V109.901H4.61812V77.5232H150.878V124.788L42.2066 223.783V228.621H153.856V235.5H0.896484Z" fill="white"/>
<path d="M145.502 235.5V0.485352H183.835V148.979H189.79L261.989 77.5232H312.976L220.307 166.47L308 235.5H257.5L189.79 184.706H183.835V235.5H145.502Z" fill="white"/>
<path d="M332.575 235.5V0.485352H496.699V36.9573H372.769V111.762H486.279V148.234H372.769V224.528H498.56V235.5H332.575Z" fill="white"/>
<path d="M485.755 236.454V78.4773H523.344V100.063H529.299C532.772 93.612 538.355 87.9054 546.046 82.9433C553.737 77.9811 564.158 75.5 577.308 75.5C590.954 75.5 601.87 78.3532 610.058 84.0598C618.494 89.5182 624.82 96.5893 629.038 105.273H634.993C639.211 96.8374 645.289 89.7663 653.229 84.0598C661.417 78.3532 672.954 75.5 687.84 75.5C699.749 75.5 710.294 77.9811 719.474 82.9433C728.654 87.6573 735.973 94.8525 741.432 104.529C746.89 113.957 749.619 125.742 749.619 139.884V235.966H711.286V142.862C711.286 131.697 708.185 123.137 701.982 117.182C696.028 110.98 687.468 107.878 676.303 107.878C664.394 107.878 654.842 111.724 647.646 119.415C640.451 127.107 636.854 138.147 636.854 152.538V236.454H598.521V142.862C598.521 131.697 595.42 123.137 589.217 117.182C583.262 110.98 574.702 107.878 563.538 107.878C551.628 107.878 542.076 111.724 534.881 119.415C527.686 127.107 524.088 138.147 524.088 152.538V236.454H485.755Z" fill="white"/>
<path d="M859.5 236.065C846.35 236.065 828.5 235.966 809 235.966C780.5 237.5 777 235.966 764.663 235.966C758.708 227.282 755.731 220.558 755.731 208.152C755.731 195.499 758.708 185.078 764.663 176.891C770.865 168.455 779.177 162.128 789.598 157.91C800.266 153.693 812.3 151.584 825.698 151.584H881.522V139.674C881.522 129.006 878.297 120.446 871.846 113.995C865.395 107.544 855.471 104.319 842.073 104.319C828.923 104.319 818.875 107.42 811.927 113.623C804.98 119.826 800.39 127.889 798.157 137.814L762.43 126.277C765.407 116.352 770.121 107.42 776.572 99.4808C783.271 91.2932 792.079 84.7183 802.996 79.7561C813.912 74.794 827.062 72.3129 842.445 72.3129C866.263 72.3129 884.996 78.3915 898.642 90.5489C912.288 102.706 919.11 119.95 919.11 142.28V217.829C919.11 225.272 922.584 228.994 929.531 228.994H945.162V237C939 235 902.5 237 887.104 236.065V236C882.5 236 886.5 236 880 236C876.5 236 875 236 874.5 236.065C866.5 236 872.154 236.065 859.5 236.065ZM830 233.72C845.383 233.72 857.952 230.234 867.38 221.55C876.808 212.618 881.522 200.461 881.522 185.078V181.357H827.93C817.758 181.357 809.57 183.59 803.368 188.056C797.165 192.274 794.064 198.6 794.064 207.036C794.064 215.472 797.289 222.171 803.74 227.133C810.191 232.095 818.835 233.72 830 233.72Z" fill="white"/>
<path d="M945.162 237L945.217 77.5232H983.55L981 237H945.162ZM964.57 52.5882C957.126 52.5882 950.8 50.2312 945.589 45.5171C940.627 40.5549 938.146 34.2282 938.146 26.5368C938.146 18.8454 940.627 12.6427 945.589 7.92863C950.8 2.96645 957.126 0.485352 964.57 0.485352C972.261 0.485352 978.588 2.96645 983.55 7.92863C988.512 12.6427 990.993 18.8454 990.993 26.5368C990.993 34.2282 988.512 40.5549 983.55 45.5171C978.588 50.2312 972.261 52.5882 964.57 52.5882Z" fill="white"/>
<path d="M1003.22 237V0.485352H1041.56V237H1003.22Z" fill="white"/>
</svg>
