<svg width="1461" height="679" viewBox="0 0 1461 679" fill="none" xmlns="http://www.w3.org/2000/svg">
<rect x="266.201" y="97.5164" width="114.084" height="17.8226" fill="black"/>
<rect x="956.412" y="98.7898" width="114.084" height="19.0957" fill="#D9D9D9"/>
<rect x="494.37" y="94.9707" width="116.936" height="19.0957" fill="black"/>
<rect x="494.37" y="114.066" width="116.936" height="19.0957" fill="#D9D9D9"/>
<path d="M0.261765 82.2618H1460.51V678.738H0.261765V82.2618Z" fill="black" stroke="black" stroke-width="0.523529"/>
<rect y="59.3401" width="39.9625" height="29.67" fill="black"/>
<rect width="39.9625" height="29.67" fill="black"/>
<rect x="39.9624" y="59.3401" width="39.9625" height="29.67" fill="black"/>
<rect x="40" y="30" width="40" height="186" fill="black"/>
<rect x="79.925" y="59.3401" width="39.9625" height="29.67" fill="black"/>
<rect x="80" width="79" height="30" fill="black"/>
<rect x="119" y="30" width="117" height="29" fill="black"/>
<rect x="119" width="40" height="59" fill="black"/>
<rect x="157.476" y="29.6699" width="39.9625" height="29.67" fill="black"/>
<rect x="196.251" y="29.6699" width="39.9625" height="29.67" fill="black"/>
<rect x="196" width="40" height="59" fill="black"/>
<rect x="196" width="79" height="30" fill="black"/>
<rect x="273.802" y="59.3401" width="39.9625" height="29.67" fill="black"/>
<rect x="274" y="30" width="40" height="280" fill="black"/>
<rect x="275" y="59" width="118" height="287" fill="black"/>
<rect x="313" y="1" width="39.9625" height="29.67" fill="black"/>
<rect x="352.54" y="59.3401" width="39.9625" height="29.67" fill="black"/>
<rect x="353" y="30" width="40" height="402" fill="black"/>
<rect x="353" y="30" width="119" height="29" fill="black"/>
<rect x="432.07" y="59.3401" width="39.9625" height="29.67" fill="black"/>
<rect x="432" y="30" width="40" height="375" fill="black"/>
<rect x="470.054" y="59.3401" width="39.9625" height="29.67" fill="black"/>
<rect x="470" width="117" height="30" fill="black"/>
<rect x="432" y="59" width="117" height="281" fill="black"/>
<rect x="588.754" y="29.6699" width="39.9625" height="29.67" fill="black"/>
<rect x="508.829" width="39.9625" height="29.67" fill="black"/>
<rect x="547.604" width="39.9625" height="29.67" fill="black"/>
<rect x="587" y="29" width="44" height="376" fill="black"/>
<rect x="626.343" y="29.6699" width="39.9625" height="29.67" fill="black"/>
<rect x="626" width="40" height="59" fill="black"/>
<rect x="626" width="80" height="30" fill="black"/>
<rect x="706.267" y="59.3401" width="39.9625" height="29.67" fill="black"/>
<rect x="706" y="30" width="40" height="402" fill="black"/>
<rect x="746" width="154" height="30" fill="black"/>
<rect x="783.818" y="59.3401" width="39.9625" height="29.67" fill="black"/>
<rect x="784" width="40" height="164" fill="black"/>
<rect x="783.818" width="39.9625" height="29.67" fill="black"/>
<rect x="784" y="59" width="117" height="128" fill="black"/>
<rect x="822.594" width="39.9625" height="29.67" fill="black"/>
<rect x="861.369" y="59.3401" width="39.9625" height="29.67" fill="black"/>
<rect x="860" width="40" height="240" fill="black"/>
<rect x="861.369" width="39.9625" height="29.67" fill="black"/>
<rect x="860" y="30" width="118" height="29" fill="black"/>
<rect x="938.129" y="59.3401" width="39.9625" height="29.67" fill="black"/>
<rect x="938.129" y="29.6699" width="39.9625" height="29.67" fill="black"/>
<rect x="938" width="40" height="266" fill="black"/>
<rect x="978" y="59" width="122" height="172" fill="black"/>
<rect x="978.091" width="39.9625" height="29.67" fill="black"/>
<rect x="1018.05" y="59.3401" width="39.9625" height="29.67" fill="black"/>
<rect x="938" width="120" height="30" fill="black"/>
<rect x="1057.62" y="59.3401" width="39.9625" height="29.67" fill="black"/>
<rect x="1100" width="40" height="30" fill="black"/>
<rect x="1134" y="59" width="40" height="263" fill="black"/>
<rect x="1134" width="40" height="30" fill="black"/>
<rect x="1173.16" y="29.6699" width="39.9625" height="29.67" fill="black"/>
<rect x="1211.93" width="39.9625" height="29.67" fill="black"/>
<rect x="1248" y="59.3398" width="42.921" height="29.67" fill="black"/>
<rect x="1248" y="29.6699" width="42.921" height="29.67" fill="black"/>
<rect x="1248" width="43" height="231" fill="black"/>
<rect x="1334" width="127" height="30" fill="black"/>
<rect x="1376" y="59" width="41" height="172" fill="black"/>
<rect x="1291" y="59" width="43" height="197" fill="black"/>
<rect x="1374.21" width="42.921" height="29.67" fill="black"/>
<path d="M1417 1H1461V59H1417V1Z" fill="black"/>
<path d="M1417.27 0H1460.52L1460.78 30H1417.27V0Z" fill="black"/>
</svg>
