<svg width="1461" height="679" viewBox="0 0 1461 679" fill="none" xmlns="http://www.w3.org/2000/svg">
<rect x="266.201" y="97.5164" width="114.084" height="17.8226" fill="black"/>
<rect x="956.412" y="98.7898" width="114.084" height="19.0957" fill="#D9D9D9"/>
<rect x="494.37" y="94.9707" width="116.936" height="19.0957" fill="black"/>
<rect x="494.37" y="114.066" width="116.936" height="19.0957" fill="#D9D9D9"/>
<path d="M0.261765 82.2618H1460.51V678.738H0.261765V82.2618Z" fill="black" stroke="black" stroke-width="0.523529"/>
<rect width="39.9625" height="29.67" fill="black"/>
<rect x="39.9624" y="59.3401" width="39.9625" height="29.67" fill="black"/>
<rect x="40" y="30" width="40" height="156" fill="black"/>
<rect x="40" y="59" width="80" height="100" fill="black"/>
<rect x="80" width="79" height="30" fill="black"/>
<rect x="80" width="79" height="30" fill="black"/>
<rect x="159" y="29" width="37" height="30" fill="black"/>
<rect x="196.251" width="39.9625" height="29.67" fill="black"/>
<rect x="273.802" y="59.3401" width="39.9625" height="29.67" fill="black"/>
<rect x="273.802" y="29.6699" width="39.9625" height="29.67" fill="black"/>
<rect x="274" width="40" height="133" fill="black"/>
<rect x="274" width="79" height="30" fill="black"/>
<rect x="353" y="59" width="40" height="100" fill="black"/>
<rect x="392.503" y="29.6699" width="39.9625" height="29.67" fill="black"/>
<rect x="432.07" y="59.3401" width="39.9625" height="29.67" fill="black"/>
<rect x="470.054" y="59.3401" width="39.9625" height="29.67" fill="black"/>
<rect x="508.829" y="59.3401" width="39.9625" height="29.67" fill="black"/>
<rect x="432" width="40" height="133" fill="black"/>
<rect x="470" width="79" height="30" fill="black"/>
<rect x="547.604" y="59.3401" width="39.9625" height="29.67" fill="black"/>
<rect x="432" width="156" height="30" fill="black"/>
<rect x="432" y="59" width="194" height="30" fill="black"/>
<rect x="626.343" y="29.6699" width="39.9625" height="29.67" fill="black"/>
<rect x="626" width="40" height="59" fill="black"/>
<rect x="626" width="80" height="30" fill="black"/>
<rect x="706.267" y="59.3401" width="39.9625" height="29.67" fill="black"/>
<rect x="706" y="30" width="40" height="114" fill="black"/>
<rect x="745.834" width="39.9625" height="29.67" fill="black"/>
<rect x="783.818" y="59.3401" width="39.9625" height="29.67" fill="black"/>
<rect x="784" y="30" width="40" height="103" fill="black"/>
<rect x="823" y="59" width="77" height="74" fill="black"/>
<rect x="822.594" width="39.9625" height="29.67" fill="black"/>
<rect x="784" y="59" width="117" height="85" fill="black"/>
<rect x="861.369" width="39.9625" height="29.67" fill="black"/>
<rect x="900.145" y="29.6699" width="39.9625" height="29.67" fill="black"/>
<rect x="938.129" y="59.3401" width="39.9625" height="29.67" fill="black"/>
<rect x="938.129" y="29.6699" width="39.9625" height="29.67" fill="black"/>
<rect x="938" width="40" height="133" fill="black"/>
<rect x="978.091" width="39.9625" height="29.67" fill="black"/>
<rect x="1018.05" y="59.3401" width="39.9625" height="29.67" fill="black"/>
<rect x="940" width="118" height="30" fill="black"/>
<rect x="1089" y="29" width="46" height="31" fill="black"/>
<rect x="1134" width="160" height="30" fill="black"/>
<rect x="1173.16" y="59.3401" width="39.9625" height="29.67" fill="black"/>
<rect x="1173" y="29" width="40" height="60" fill="black"/>
<rect x="1173" width="40" height="118" fill="black"/>
<rect x="1136" width="158" height="30" fill="black"/>
<rect x="1252" y="59.3398" width="42.1141" height="29.67" fill="black"/>
<rect x="1252" width="42" height="144" fill="black"/>
<rect x="1252" width="42.1141" height="29.67" fill="black"/>
<rect x="1336" width="82" height="30" fill="black"/>
<rect x="1378" y="59" width="83" height="141" fill="black"/>
<rect x="1294" y="59" width="42" height="78" fill="black"/>
<rect x="1375.84" width="42.1141" height="29.67" fill="black"/>
<path d="M1418.09 59H1460.77V89H1418.09V59Z" fill="black"/>
<path d="M1418 30H1461V163H1418V30Z" fill="black"/>
</svg>
