<svg width="1440" height="883" viewBox="0 0 1440 883" fill="none" xmlns="http://www.w3.org/2000/svg">
<g clip-path="url(#clip0_830_358)">
<rect width="1440" height="883" fill="#0F0F0F"/>
<rect opacity="0.5" x="-55.6602" y="720" width="86" height="17" fill="#1A1A1A"/>
<rect opacity="0.5" x="113.34" y="775" width="197" height="10" fill="#273636"/>
<rect opacity="0.5" width="129.778" height="16" transform="matrix(1 0 0 -1 1185.34 222)" fill="#1B2323"/>
<rect opacity="0.5" x="1110.34" y="744" width="234.667" height="17.7778" fill="#1A1A1A"/>
<rect opacity="0.5" x="1194.78" y="761.575" width="197.333" height="23.1111" fill="#1A1A1A"/>
<rect opacity="0.5" x="1052.45" y="125.556" width="23.1111" height="12.4444" fill="#001141"/>
<rect opacity="0.5" x="1144.34" y="81" width="81" height="20" fill="#273636"/>
<rect opacity="0.5" x="351.34" y="107" width="25.7778" height="23.1111" fill="#273636"/>
<rect opacity="0.5" x="-22.6602" y="578" width="104" height="23" fill="#161616"/>
<rect opacity="0.5" x="147.34" y="557" width="88" height="13" fill="#141414"/>
<rect opacity="0.5" x="0.339844" y="472" width="147" height="19" fill="#1D1D1D"/>
<rect opacity="0.5" x="592.34" y="50" width="131.556" height="23.1111" fill="#181818"/>
<rect opacity="0.5" x="30.3398" y="38" width="131.556" height="23.1111" fill="#1A1A1A"/>
<rect opacity="0.5" x="951.117" y="129.575" width="78.2222" height="12.4444" fill="#141414"/>
<rect opacity="0.5" x="72.8945" y="191.797" width="47.1111" height="16" fill="white" fill-opacity="0.06"/>
<rect x="364.45" y="321.981" width="47.1111" height="16" fill="#0D0D0D"/>
<rect width="48" height="18" transform="matrix(1 0 0 -1 942.34 738)" fill="#161616"/>
<rect x="70.3398" y="258" width="47.1111" height="16" fill="#161616"/>
<rect x="1130.34" y="469.203" width="47.1111" height="16" fill="#161616"/>
<rect x="751.117" y="234.87" width="47.1111" height="16" fill="#0D0D0D"/>
<rect opacity="0.5" x="927.34" y="93" width="47.1111" height="16" fill="#1B2323"/>
<rect opacity="0.5" x="991.117" y="273.981" width="47.1111" height="16" transform="rotate(-180 991.117 273.981)" fill="white" fill-opacity="0.06"/>
<rect opacity="0.5" x="187.45" y="101" width="47.1111" height="16" transform="rotate(-180 187.45 101)" fill="white" fill-opacity="0.06"/>
<rect opacity="0.5" x="411.34" y="77" width="88" height="16" transform="rotate(-180 411.34 77)" fill="white" fill-opacity="0.06"/>
<rect opacity="0.5" x="455.34" y="101" width="44" height="16" transform="rotate(-180 455.34 101)" fill="white" fill-opacity="0.06"/>
<rect opacity="0.5" x="705.45" y="208" width="47.1111" height="16" transform="rotate(-180 705.45 208)" fill="#1A1A1A"/>
<rect opacity="0.5" x="747.45" y="117" width="47.1111" height="16" transform="rotate(-180 747.45 117)" fill="white" fill-opacity="0.06"/>
<rect x="378.673" y="327.314" width="47.1111" height="16" fill="#0D0D0D"/>
<rect x="868.45" y="248.889" width="47.1111" height="16" fill="#0D0D0D"/>
<rect x="915.562" y="323.556" width="22.2222" height="6.22222" fill="#0D0D0D"/>
<path opacity="0.5" d="M1163.89 427H1227.01V440.333H1163.89V427Z" fill="white" fill-opacity="0.06"/>
<rect opacity="0.5" width="22.2222" height="13.3333" transform="matrix(-1 0 0 1 117.229 379)" fill="#273636"/>
<rect opacity="0.5" width="20.4444" height="13.3333" transform="matrix(-1 0 0 1 87.0059 379)" fill="#273636"/>
<path opacity="0.5" d="M-3.66016 379H59.451V392.333H-3.66016V379Z" fill="#273636"/>
<rect opacity="0.5" x="965.34" y="680.889" width="160.889" height="23.1111" fill="#333333" fill-opacity="0.2"/>
<rect opacity="0.5" x="-0.660156" y="647" width="88" height="10" fill="#171717"/>
</g>
<rect opacity="0.5" x="1109.34" y="379" width="168" height="13" fill="#273636"/>
<rect opacity="0.5" x="1073.34" y="392" width="204" height="13" fill="#273636"/>
<path d="M1440 742.07L1224.2 742.07" stroke="#333333"/>
<path d="M1223.7 766.172L1223.7 741.64" stroke="#333333"/>
<line x1="1314.79" y1="332.994" x2="1194.99" y2="332.994" stroke="#333333"/>
<line x1="1315.29" y1="332.494" x2="1315.29" y2="350.412" stroke="#333333"/>
<line x1="1422.7" y1="350.912" x2="1314.79" y2="350.912" stroke="#333333"/>
<line y1="-0.5" x2="11.3861" y2="-0.5" transform="matrix(0.00491463 -0.999988 0.999988 0.00496878 1195.98 344.439)" stroke="#333333"/>
<line x1="1428.15" y1="589.978" x2="1275.06" y2="589.978" stroke="#333333"/>
<line x1="1274.56" y1="628.963" x2="1274.56" y2="589.476" stroke="#333333"/>
<line y1="-0.5" x2="115.714" y2="-0.5" transform="matrix(0.999999 -0.00161298 0.0015954 0.999999 1159.35 629.149)" stroke="#333333"/>
<line y1="-0.5" x2="45.985" y2="-0.5" transform="matrix(-0.0181238 -0.999836 0.999832 -0.0183234 1161.33 674.942)" stroke="#333333"/>
<line y1="-0.5" x2="74.2539" y2="-0.5" transform="matrix(-1 -0.000185337 0.000183317 -1 1161.33 674.942)" stroke="#333333"/>
<line x1="713.264" y1="68.6553" x2="758.696" y2="68.6553" stroke="#333333"/>
<line x1="713.337" y1="-2.14971e-08" x2="713.337" y2="68.6888" stroke="#333333"/>
<line x1="758.879" y1="68.689" x2="758.879" y2="157.964" stroke="#333333"/>
<line y1="-0.5" x2="87.922" y2="-0.5" transform="matrix(-0.00125633 -0.999999 0.999999 -0.00126402 798.928 883)" stroke="#333333"/>
<line x1="753.275" y1="794.578" x2="798.818" y2="794.578" stroke="#333333"/>
<line x1="753.775" y1="705.803" x2="753.775" y2="795.078" stroke="#333333"/>
<line y1="-0.5" x2="235.212" y2="-0.5" transform="matrix(-0.999999 -0.00150453 0.00149537 -0.999999 235.212 258.849)" stroke="#333333"/>
<line x1="278.012" y1="219.902" x2="235.584" y2="219.902" stroke="#333333"/>
<line x1="235.131" y1="258.495" x2="235.131" y2="219.008" stroke="#333333"/>
<defs>
<clipPath id="clip0_830_358">
<rect width="1440" height="883" fill="white"/>
</clipPath>
</defs>
</svg>
