<svg width="1441" height="883" viewBox="0 0 1441 883" fill="none" xmlns="http://www.w3.org/2000/svg">
<g clip-path="url(#clip0_830_232)">
<rect width="1440" height="883" transform="translate(0.660156)" fill="#0F0F0F"/>
<rect opacity="0.5" x="-55" y="720" width="86" height="17" fill="#1A1A1A"/>
<rect opacity="0.5" x="114" y="775" width="197" height="10" fill="#273636"/>
<rect opacity="0.5" width="129.778" height="16" transform="matrix(1 0 0 -1 1186 222)" fill="#1B2323"/>
<rect opacity="0.5" x="1046" y="396.87" width="234.667" height="17.7778" fill="#1A1A1A"/>
<rect opacity="0.5" x="1130.44" y="414.444" width="197.333" height="23.1111" fill="#1A1A1A"/>
<rect opacity="0.5" x="1053.11" y="125.556" width="23.1111" height="12.4444" fill="#151919"/>
<rect opacity="0.5" x="965" y="38" width="81" height="20" fill="#273636"/>
<rect opacity="0.5" x="352" y="107" width="25.7778" height="23.1111" fill="#273636"/>
<rect opacity="0.5" x="-22" y="578" width="104" height="23" fill="#161616"/>
<rect opacity="0.5" x="-164.667" y="518.222" width="365.333" height="13.3333" fill="#273636"/>
<rect opacity="0.5" x="148" y="557" width="88" height="13" fill="#141414"/>
<rect opacity="0.5" x="843" y="147" width="131.556" height="23.1111" fill="#181818"/>
<rect opacity="0.5" x="31" y="38" width="131.556" height="23.1111" fill="#1A1A1A"/>
<rect opacity="0.5" x="951.777" y="129.575" width="78.2222" height="12.4444" fill="#141414"/>
<rect opacity="0.5" x="73.5547" y="191.797" width="47.1111" height="16" fill="white" fill-opacity="0.06"/>
<rect x="365.11" y="321.981" width="47.1111" height="16" fill="#0D0D0D"/>
<rect x="338.444" y="309.333" width="47.1111" height="16" fill="#161616"/>
<rect x="71" y="258" width="47.1111" height="16" fill="#161616"/>
<rect x="968" y="570" width="47.1111" height="16" fill="#161616"/>
<rect x="751.777" y="234.87" width="47.1111" height="16" fill="#0D0D0D"/>
<rect opacity="0.5" x="725.11" y="222.222" width="47.1111" height="16" fill="#1B2323"/>
<rect opacity="0.5" x="991.777" y="273.981" width="47.1111" height="16" transform="rotate(-180 991.777 273.981)" fill="white" fill-opacity="0.06"/>
<rect opacity="0.5" x="188.11" y="101" width="47.1111" height="16" transform="rotate(-180 188.11 101)" fill="white" fill-opacity="0.06"/>
<rect opacity="0.5" x="412" y="77" width="88" height="16" transform="rotate(-180 412 77)" fill="white" fill-opacity="0.06"/>
<rect opacity="0.5" x="456" y="101" width="44" height="16" transform="rotate(-180 456 101)" fill="white" fill-opacity="0.06"/>
<rect opacity="0.5" x="991.777" y="273.981" width="47.1111" height="16" transform="rotate(-180 991.777 273.981)" fill="white" fill-opacity="0.06"/>
<rect opacity="0.5" x="991.777" y="273.981" width="47.1111" height="16" transform="rotate(-180 991.777 273.981)" fill="white" fill-opacity="0.06"/>
<rect x="379.333" y="327.314" width="47.1111" height="16" fill="#0D0D0D"/>
<rect x="869.11" y="248.889" width="47.1111" height="16" fill="#0D0D0D"/>
<rect x="916.222" y="323.555" width="22.2222" height="6.22222" fill="#0D0D0D"/>
<path opacity="0.5" d="M1001.55 527.797H1064.67V541.13H1001.55V527.797Z" fill="white" fill-opacity="0.06"/>
<rect opacity="0.5" width="22.2222" height="13.3333" transform="matrix(-1 0 0 1 117.889 442)" fill="#1A1A1A"/>
<rect opacity="0.5" width="20.4444" height="13.3333" transform="matrix(-1 0 0 1 87.666 442)" fill="#1A1A1A"/>
<path opacity="0.5" d="M-3 442H60.1111V455.333H-3V442Z" fill="#1A1A1A"/>
<rect opacity="0.5" x="966" y="680.889" width="160.889" height="23.1111" fill="#333333" fill-opacity="0.2"/>
<rect opacity="0.5" y="647" width="88" height="10" fill="#171717"/>
</g>
<path d="M1441 742.07L1225.2 742.07" stroke="#333333"/>
<path d="M1224.7 766.172L1224.7 741.64" stroke="#333333"/>
<line x1="1315.79" y1="332.994" x2="1195.99" y2="332.994" stroke="#333333"/>
<line x1="1316.29" y1="332.494" x2="1316.29" y2="350.412" stroke="#333333"/>
<line x1="1423.7" y1="350.912" x2="1315.79" y2="350.912" stroke="#333333"/>
<line y1="-0.5" x2="11.3861" y2="-0.5" transform="matrix(0.00491463 -0.999988 0.999988 0.00496878 1196.98 344.439)" stroke="#333333"/>
<line x1="1429.15" y1="589.978" x2="1276.06" y2="589.978" stroke="#333333"/>
<line x1="1275.56" y1="628.963" x2="1275.56" y2="589.476" stroke="#333333"/>
<line y1="-0.5" x2="115.714" y2="-0.5" transform="matrix(0.999999 -0.00161298 0.0015954 0.999999 1160.35 629.15)" stroke="#333333"/>
<line y1="-0.5" x2="45.985" y2="-0.5" transform="matrix(-0.0181238 -0.999836 0.999832 -0.0183234 1162.33 674.942)" stroke="#333333"/>
<line y1="-0.5" x2="74.2539" y2="-0.5" transform="matrix(-1 -0.000185337 0.000183317 -1 1162.33 674.942)" stroke="#333333"/>
<line x1="714.264" y1="68.6555" x2="759.696" y2="68.6555" stroke="#333333"/>
<line x1="714.337" y1="-2.14971e-08" x2="714.337" y2="68.6888" stroke="#333333"/>
<line x1="759.879" y1="68.689" x2="759.879" y2="157.964" stroke="#333333"/>
<line y1="-0.5" x2="87.922" y2="-0.5" transform="matrix(-0.00125633 -0.999999 0.999999 -0.00126402 799.928 883)" stroke="#333333"/>
<line x1="754.275" y1="794.578" x2="799.818" y2="794.578" stroke="#333333"/>
<line x1="754.775" y1="705.803" x2="754.775" y2="795.078" stroke="#333333"/>
<line y1="-0.5" x2="235.212" y2="-0.5" transform="matrix(-0.999999 -0.00150453 0.00149537 -0.999999 236.212 258.849)" stroke="#333333"/>
<line x1="279.012" y1="219.903" x2="236.584" y2="219.903" stroke="#333333"/>
<line x1="236.131" y1="258.495" x2="236.131" y2="219.008" stroke="#333333"/>
<defs>
<clipPath id="clip0_830_232">
<rect width="1440" height="883" fill="white" transform="translate(0.660156)"/>
</clipPath>
</defs>
</svg>
