<svg xmlns="http://www.w3.org/2000/svg" width="20" height="20" viewBox="0 0 20 20" fill="none">
    <path
        d="M16.6925 7.94223L10.4425 14.1922C10.3845 14.2503 10.3156 14.2964 10.2397 14.3279C10.1638 14.3593 10.0825 14.3755 10.0003 14.3755C9.91821 14.3755 9.83688 14.3593 9.76101 14.3279C9.68514 14.2964 9.61621 14.2503 9.55816 14.1922L3.30816 7.94223C3.19088 7.82495 3.125 7.66589 3.125 7.50004C3.125 7.33419 3.19088 7.17513 3.30816 7.05785C3.42544 6.94058 3.5845 6.87469 3.75035 6.87469C3.9162 6.87469 4.07526 6.94058 4.19253 7.05785L10.0003 12.8664L15.8082 7.05785C15.8662 6.99979 15.9352 6.95372 16.011 6.9223C16.0869 6.89087 16.1682 6.87469 16.2503 6.87469C16.3325 6.87469 16.4138 6.89087 16.4897 6.9223C16.5655 6.95372 16.6345 6.99979 16.6925 7.05785C16.7506 7.11592 16.7967 7.18486 16.8281 7.26073C16.8595 7.3366 16.8757 7.41792 16.8757 7.50004C16.8757 7.58216 16.8595 7.66348 16.8281 7.73935C16.7967 7.81522 16.7506 7.88416 16.6925 7.94223Z"
        fill="#F5F3EF" />
</svg>