<svg width="113" height="25" viewBox="0 0 113 25" fill="none" xmlns="http://www.w3.org/2000/svg">
<path fill-rule="evenodd" clip-rule="evenodd" d="M1.27813 8.962C-0.426042 10.646 -0.426045 13.3764 1.27813 15.0604L9.06819 22.7584C10.7724 24.4424 13.5354 24.4424 15.2395 22.7584L23.0306 15.0594C24.7348 13.3754 24.7348 10.645 23.0306 8.96101L15.2406 1.26302C13.5364 -0.421008 10.7734 -0.421009 9.0692 1.26302L1.27813 8.962ZM6.10317 9.73539C5.79632 10.5384 5.64289 11.3975 5.64289 12.3128H6.83621C6.83621 11.5604 6.95838 10.8556 7.20273 10.1987C7.44707 9.54166 7.7937 8.96328 8.24262 8.46352C8.69153 7.96376 9.22569 7.57349 9.84508 7.29273C10.4701 7.01196 11.1634 6.87158 11.9249 6.87158C12.6863 6.87158 13.3995 7.01196 14.0643 7.29273C14.7292 7.57911 15.3116 7.97218 15.8117 8.47194C16.3174 8.97171 16.7123 9.55008 16.9965 10.2071C17.2806 10.8641 17.4227 11.566 17.4227 12.3128C17.4227 13.0597 17.2806 13.7588 16.9965 14.4101C16.7123 15.0671 16.3174 15.6455 15.8117 16.1453C15.3116 16.645 14.7292 17.0353 14.0643 17.3161C13.3995 17.6024 12.6863 17.7456 11.9249 17.7456C11.5157 17.7456 11.0981 17.6951 10.6719 17.594C10.2514 17.4929 9.89622 17.3357 9.60641 17.1223C9.32229 16.9089 9.18023 16.6338 9.18023 16.2969C9.18023 16.033 9.27115 15.7943 9.45299 15.5809C9.63483 15.3675 9.86212 15.2609 10.1349 15.2609H14.9934L15.1383 14.3091H14.1666C14.5132 14.0844 14.7888 13.7728 14.9934 13.3741C15.2037 12.9754 15.3088 12.5346 15.3088 12.0517C15.3088 11.4396 15.1553 10.8781 14.8485 10.3671C14.5473 9.86173 14.141 9.45743 13.6296 9.1542C13.1182 8.85659 12.5499 8.70779 11.9249 8.70779C11.2998 8.70779 10.7287 8.85659 10.2116 9.1542C9.70017 9.45743 9.29104 9.86173 8.98418 10.3671C8.68301 10.8781 8.53243 11.4396 8.53243 12.0517C8.53243 12.5459 8.63755 12.981 8.8478 13.3573C9.06374 13.7335 9.3507 14.0367 9.7087 14.2669C9.3848 14.295 9.09215 14.4129 8.83076 14.6207C8.56936 14.8285 8.36195 15.0868 8.20852 15.3956C8.06078 15.7101 7.98691 16.0302 7.98691 16.3558C7.98691 16.7658 8.10056 17.1279 8.32786 17.4424C8.56084 17.7625 8.86769 18.032 9.24842 18.251C9.63483 18.47 10.061 18.6357 10.527 18.748C10.9929 18.8659 11.4589 18.9248 11.9249 18.9248C12.8454 18.9248 13.7092 18.7536 14.5161 18.411C15.323 18.0741 16.0333 17.6024 16.647 16.996C17.2607 16.3951 17.7409 15.6932 18.0875 14.8902C18.4398 14.0929 18.616 13.2337 18.616 12.3128C18.616 11.3975 18.4427 10.5384 18.096 9.73539C17.7494 8.93801 17.2692 8.2361 16.6555 7.62965C16.0418 7.02319 15.3287 6.5487 14.5161 6.20617C13.7092 5.86363 12.8454 5.69237 11.9249 5.69237C11.0043 5.69237 10.1605 5.86363 9.39332 6.20617C8.62619 6.5487 7.96134 7.02319 7.39877 7.62965C6.84189 8.2361 6.41002 8.93801 6.10317 9.73539ZM9.86212 13.273C9.61778 12.953 9.49561 12.5711 9.49561 12.1275C9.49561 11.6951 9.60357 11.2964 9.81951 10.9314C10.0354 10.5665 10.3252 10.2745 10.6889 10.0555C11.0583 9.83646 11.4703 9.72697 11.9249 9.72697C12.3738 9.72697 12.7801 9.83366 13.1438 10.047C13.5131 10.266 13.8058 10.5552 14.0217 10.9146C14.2376 11.2796 14.3456 11.6839 14.3456 12.1275C14.3456 12.5992 14.2348 12.9951 14.0132 13.3152C13.7972 13.6352 13.5131 13.8739 13.1608 14.0311C12.8085 14.1939 12.4306 14.2754 12.0271 14.2754C11.6066 14.2754 11.2003 14.1883 10.8083 14.0143C10.4218 13.8402 10.1065 13.5931 9.86212 13.273Z" fill="#F5F3EF"/>
<path d="M33.5741 19.0303V16.8654L41.4218 8.40883L41.1962 9.96484H33.6417V7.6421H43.1807V9.78443L35.3556 18.2861L35.5134 16.685H43.1807V19.0303H33.5741ZM46.2645 17.0458V13.5955L52.0376 7.6421H55.2398V7.82251L46.2645 17.0458ZM44.7311 19.0303V2.79367L47.2568 2.47796L47.3244 2.65837V19.0303H44.7311ZM52.3984 19.0303L48.4745 13.3024L50.2786 11.6787L55.2849 18.8499V19.0303H52.3984ZM61.0279 19.3685C59.8703 19.3685 58.848 19.113 57.961 18.6018C57.0891 18.0907 56.405 17.3841 55.9089 16.482C55.4128 15.58 55.1647 14.5276 55.1647 13.3249C55.1647 12.1372 55.4053 11.0924 55.8863 10.1903C56.3825 9.27328 57.059 8.56669 57.9159 8.07057C58.7879 7.55942 59.7876 7.30384 60.9152 7.30384C62.0427 7.30384 63.0199 7.56693 63.8468 8.09312C64.6887 8.60427 65.3427 9.3259 65.8087 10.258C66.2898 11.1901 66.5303 12.2801 66.5303 13.5279V13.9563L66.1921 14.2946H56.3825V12.1297H65.3577L63.9821 12.6484C63.9671 12.017 63.8167 11.4757 63.5311 11.0247C63.2605 10.5587 62.8997 10.2054 62.4486 9.96484C62.0127 9.70926 61.5165 9.58147 60.9603 9.58147C60.3589 9.58147 59.8102 9.7243 59.3141 10.0099C58.818 10.2805 58.4346 10.6639 58.164 11.16C57.8934 11.6411 57.7581 12.2049 57.7581 12.8513V13.7534C57.7581 14.3698 57.9009 14.9335 58.1865 15.4447C58.4872 15.9408 58.8856 16.3392 59.3817 16.6399C59.8778 16.9406 60.4266 17.0909 61.0279 17.0909C61.5992 17.0909 62.1179 16.9406 62.5839 16.6399C63.065 16.3242 63.4409 15.9032 63.7115 15.377H63.9821L66.0793 16.2791C65.6283 17.2563 64.9593 18.0155 64.0723 18.5567C63.2003 19.0979 62.1855 19.3685 61.0279 19.3685ZM68.3152 19.0303V7.6421H70.7507V10.4159L70.3222 9.98739C70.5778 9.4161 70.9085 8.93502 71.3145 8.54414C71.7204 8.15325 72.1939 7.85258 72.7352 7.6421C73.2764 7.41659 73.8853 7.30384 74.5618 7.30384C75.5089 7.30384 76.3508 7.56693 77.0875 8.09312C77.8241 8.61931 78.3203 9.39355 78.5758 10.4159L77.7415 10.3708C77.997 9.7243 78.3578 9.17556 78.8239 8.72454C79.2899 8.27353 79.8312 7.92775 80.4476 7.6872C81.079 7.43163 81.7405 7.30384 82.432 7.30384C83.1988 7.30384 83.8978 7.48425 84.5293 7.84506C85.1757 8.19084 85.6869 8.70951 86.0627 9.40107C86.4536 10.0776 86.649 10.927 86.649 11.9493V19.0303H84.0557V12.5807C84.0557 11.9042 83.958 11.3555 83.7625 10.9345C83.5671 10.4985 83.2965 10.1828 82.9507 9.98739C82.6049 9.77691 82.2065 9.67168 81.7555 9.67168C81.3346 9.67168 80.8911 9.78443 80.425 10.0099C79.974 10.2354 79.5831 10.6113 79.2524 11.1375C78.9366 11.6486 78.7788 12.3627 78.7788 13.2798V19.0303H76.1854V12.5807C76.1854 11.9042 76.0877 11.3555 75.8923 10.9345C75.6968 10.4985 75.4262 10.1828 75.0805 9.98739C74.7347 9.77691 74.3363 9.67168 73.8853 9.67168C73.4643 9.67168 73.0208 9.78443 72.5548 10.0099C72.1037 10.2354 71.7129 10.6113 71.3821 11.1375C71.0664 11.6637 70.9085 12.3778 70.9085 13.2798V19.0303H68.3152ZM92.4575 19.3685C91.6757 19.3685 90.9766 19.2182 90.3602 18.9175C89.7589 18.6168 89.2853 18.1959 88.9395 17.6547C88.5937 17.1135 88.4209 16.4971 88.4209 15.8055C88.4209 14.7381 88.7892 13.8887 89.5258 13.2573C90.2625 12.6108 91.3224 12.235 92.7055 12.1297L97.1255 11.7689V13.9112L93.0889 14.2495C92.3673 14.3096 91.8486 14.46 91.5329 14.7005C91.2172 14.9411 91.0593 15.2643 91.0593 15.6702C91.0593 16.0761 91.2397 16.4069 91.6005 16.6624C91.9613 16.918 92.4199 17.0458 92.9761 17.0458C93.5624 17.0458 94.0886 16.903 94.5547 16.6173C95.0358 16.3167 95.4191 15.9333 95.7048 15.4672C95.9904 15.0012 96.1332 14.4976 96.1332 13.9563V12.0846C96.1332 11.363 95.8927 10.7692 95.4116 10.3031C94.9305 9.82202 94.2991 9.58147 93.5173 9.58147C92.8559 9.58147 92.3071 9.74685 91.8711 10.0776C91.4502 10.3933 91.1796 10.7917 91.0593 11.2728H90.8112L88.6013 10.7316C88.8719 9.70926 89.4356 8.8824 90.2926 8.25098C91.1645 7.61955 92.247 7.30384 93.5399 7.30384C95.1485 7.30384 96.4039 7.76989 97.3059 8.70199C98.2079 9.61906 98.6589 10.9195 98.6589 12.6033V19.0303H96.3587V15.7153L97.2833 15.8506C97.1029 16.4971 96.7797 17.0909 96.3136 17.6321C95.8476 18.1583 95.2838 18.5793 94.6223 18.895C93.9759 19.2107 93.2543 19.3685 92.4575 19.3685ZM100.953 19.0303V7.6421H103.546V19.0303H100.953ZM102.261 5.92824C101.81 5.92824 101.427 5.77038 101.111 5.45467C100.795 5.13896 100.637 4.74808 100.637 4.28203C100.637 3.84605 100.795 3.4702 101.111 3.15449C101.427 2.82374 101.818 2.65837 102.284 2.65837C102.72 2.65837 103.095 2.82374 103.411 3.15449C103.742 3.4702 103.907 3.85356 103.907 4.30458C103.907 4.7556 103.742 5.13896 103.411 5.45467C103.095 5.77038 102.712 5.92824 102.261 5.92824ZM106.297 19.0303V2.79367L108.822 2.47796L108.89 2.65837V19.0303H106.297Z" fill="#F5F3EF"/>
</svg>
